<svg width="192" height="128" enable-background="new" version="1.0" xmlns="http://www.w3.org/2000/svg">
  <g fill-rule="evenodd">
    <circle id="south" cx="164" cy="82" r="8" enable-background="new"/>
    <circle id="east" cx="181" cy="65" r="8" enable-background="new"/>
    <circle id="west" cx="147" cy="65" r="8" enable-background="new"/>
    <circle id="north" cx="164" cy="48" r="8" enable-background="new"/>
    <path id="start" d="m123.5 66.25c0 3.25-5.75 3.75-9 3.75h-1.5c-0.7071 0-1.5-0.7929-1.5-1.5v-5c0-0.7071 0.7929-1.5 1.5-1.5h1.5c3.25 0 9 0.5 9 3.75z" enable-background="new"/>
    <path id="back" d="m68.5 66.25c0 3.25 5.75 3.75 9 3.75h1.5c0.7071 0 1.5-0.7929 1.5-1.5v-5c0-0.7071-0.7929-1.5-1.5-1.5h-1.5c-3.25 0-9 0.5-9 3.75z" enable-background="new"/>
    <circle id="guide" cx="96" cy="66" r="12" enable-background="new"/>
    <path id="rightshoulder" d="m148 23c0-0.4714 0.5286-1 1-1h30c0.4714 0 1 0.5286 1 1v6c0 0.4714-0.5286 1-1 1h-30c-0.4714 0-1-0.5286-1-1z"/>
    <path id="righttrigger" d="m148 13c0-0.74536 0.28858-1.7777 1-2 4.8669-1.5209 9.901-3 15-3s10.133 1.4791 15 3c0.71143 0.22232 1 1.2546 1 2v6c0 0.4714-0.5286 1-1 1h-30c-0.4714 0-1-0.5286-1-1z"/>
    <path id="leftshoulder" d="m12 23c0-0.4714 0.5286-1 1-1h30c0.4714 0 1 0.5286 1 1v6c0 0.4714-0.5286 1-1 1h-30c-0.4714 0-1-0.5286-1-1z"/>
    <path id="lefttrigger" d="m12 13c0-0.74536 0.28858-1.7777 1-2 4.8669-1.5209 9.901-3 15-3 5.099 0 10.133 1.4791 15 3 0.71143 0.22232 1 1.2546 1 2v6c0 0.4714-0.5286 1-1 1h-30c-0.4714 0-1-0.5286-1-1z"/>
  </g>
  <g id="dpad">
    <path id="dp-base" d="m80 96.5c0-0.2357-0.2643-0.5-0.5-0.5h-10.5c-0.47141 0-1-0.52859-1-1v-10.5c0-0.2357-0.2643-0.5-0.5-0.5h-11c-0.2357 0-0.5 0.2643-0.5 0.5v10.5c0 0.47141-0.5286 1-1 1h-10.5c-0.2357 0-0.5 0.2643-0.5 0.5v11c0 0.2357 0.2643 0.5 0.5 0.5h10.5c0.4714 0 1 0.52859 1 1v10.5c0 0.24985 0.25015 0.5 0.5 0.5h11c0.24985 0 0.5-0.25015 0.5-0.5v-10.5c0-0.47141 0.52859-1 1-1h10.5c0.2357 0 0.5-0.2643 0.5-0.5zm-1.293 5.5c0 0.23985-0.0829 0.48042-0.24805 0.56445l-6.6445 3.3828c-0.36916 0.18791-1.1074-0.14428-1.1074-0.56446v-6.7656c0-0.42018 0.73826-0.75041 1.1074-0.5625l6.6445 3.3828c0.1651 0.084 0.24805 0.32265 0.24805 0.5625zm-12.754-9.5293c-0.0336 0.36339-0.3001 0.77929-0.61523 0.77929h-6.7637c-0.42018 0-0.75237-0.73826-0.56446-1.1074l3.3828-6.6445c0.16807-0.33019 0.95888-0.33019 1.127 0l3.3828 6.6445c0.047 0.0923 0.062 0.207 0.0508 0.32813zm0 19.059c0.0112 0.12113-4e-3 0.23583-0.0508 0.32812l-3.3828 6.6445c-0.16808 0.33019-0.95888 0.33019-1.127 0l-3.3828-6.6445c-0.18791-0.36916 0.14428-1.1074 0.56446-1.1074h6.7637c0.31513 0 0.58159 0.4159 0.61523 0.7793zm-12.746-12.912v6.7656c0 0.42018-0.73826 0.75237-1.1074 0.56446l-6.6465-3.3828c-0.33019-0.16807-0.33019-0.95888 0-1.127l6.6465-3.3828c0.36916-0.18791 1.1074 0.14232 1.1074 0.5625z" enable-background="new"/>
    <path id="dpup" d="m56.5 84c-0.2357 0-0.5 0.2643-0.5 0.5v10.5c0 0.2357-0.13119 0.48666-0.32227 0.67773l6.3223 6.3223 6.3223-6.3223c-0.19107-0.19107-0.32227-0.44203-0.32227-0.67773v-10.5c0-0.2357-0.2643-0.5-0.5-0.5zm5.5 1.293c0.23984 0 0.48042 0.0829 0.56445 0.24805l3.3828 6.6445c0.18791 0.36916-0.14427 1.1074-0.56445 1.1074h-6.7656c-0.42018 0-0.75041-0.73826-0.5625-1.1074l3.3828-6.6445c0.08404-0.1651 0.32265-0.24805 0.5625-0.24805z" enable-background="new"/>
    <path id="dpdown" d="m62 102-6.3223 6.3223c0.19108 0.19107 0.32227 0.44203 0.32227 0.67773v10.5c0 0.2357 0.2643 0.5 0.5 0.5h11c0.2357 0 0.5-0.2643 0.5-0.5v-10.5c0-0.2357 0.13119-0.48666 0.32227-0.67773zm-3.3828 8.793h6.7656c0.42018 0 0.75236 0.73826 0.56445 1.1074l-3.3828 6.6465c-0.16807 0.33019-0.95888 0.33019-1.127 0l-3.3828-6.6465c-0.18791-0.36916 0.14232-1.1074 0.5625-1.1074z" enable-background="new"/>
    <path id="dpleft" d="m55.678 95.678c-0.19107 0.19107-0.44203 0.32227-0.67773 0.32227h-10.5c-0.2357 0-0.5 0.2643-0.5 0.5v11c0 0.2357 0.2643 0.5 0.5 0.5h10.5c0.2357 0 0.48666 0.13119 0.67773 0.32227l6.3223-6.3223zm-3.207 2.3691c0.36339 0.0336 0.7793 0.3001 0.7793 0.61523v6.7637c0 0.42018-0.73826 0.75236-1.1074 0.56445l-6.6445-3.3828c-0.33019-0.16807-0.33019-0.95888 0-1.127l6.6445-3.3828c0.0923-0.047 0.207-0.06198 0.32812-0.05078z" enable-background="new"/>
    <path id="dpright" d="m68.322 95.678-6.3223 6.3223 6.3223 6.3223c0.19107-0.19108 0.44203-0.32227 0.67773-0.32227h10.5c0.24985 0 0.5-0.25015 0.5-0.5v-11c0-0.24985-0.25015-0.5-0.5-0.5h-10.5c-0.2357 0-0.48666-0.13119-0.67773-0.32227zm3.207 2.3691c0.12113-0.0112 0.23584 4e-3 0.32812 0.05078l6.6445 3.3828c0.33019 0.16808 0.33019 0.95888 0 1.127l-6.6445 3.3828c-0.36916 0.18791-1.1074-0.14427-1.1074-0.56445v-6.7637c0-0.31513 0.4159-0.58159 0.7793-0.61523z" enable-background="new"/>
  </g>
  <g fill-rule="evenodd">
    <path id="leftstick-base" d="m30 48c-8.8366 1e-6 -16 7.1634-16 16s7.1634 16 16 16c8.8366-1e-6 16-7.1634 16-16s-7.1634-16-16-16z" enable-background="new" opacity=".25"/>
    <path id="rightstick-base" d="m130 86c-8.8366 1e-6 -16 7.1634-16 16 0 8.8366 7.1634 16 16 16s16-7.1634 16-16c0-8.8366-7.1634-16-16-16z" enable-background="new" opacity=".25"/>
    <circle id="leftstick" cx="30" cy="64" r="10" enable-background="new"/>
    <circle id="rightstick" cx="130" cy="102" r="10" enable-background="new"/>
  </g>
</svg>
