<?xml version="1.0" encoding="UTF-8"?>
<svg width="48px" height="48px" viewBox="0 0 48 48" version="1.1" xmlns="http://www.w3.org/2000/svg" xmlns:xlink="http://www.w3.org/1999/xlink">
    <title>48x48/com.github.avojak.replay</title>
    <defs>
        <radialGradient cx="50%" cy="40.1050202%" fx="50%" fy="40.1050202%" r="51.3996832%" gradientTransform="translate(0.500000,0.401050),scale(0.250000,1.000000),rotate(-90.000000),scale(1.000000,3.190320),translate(-0.500000,-0.401050)" id="radialGradient-1">
            <stop stop-color="#181818" stop-opacity="0" offset="0%"></stop>
            <stop stop-color="#181818" stop-opacity="0.49685861" offset="50%"></stop>
            <stop stop-color="#181818" stop-opacity="0" offset="100%"></stop>
        </radialGradient>
        <linearGradient x1="27.9609334%" y1="77.8394389%" x2="23.7843512%" y2="34.1631945%" id="linearGradient-2">
            <stop stop-color="#E7C591" offset="0%"></stop>
            <stop stop-color="#CFA25E" offset="100%"></stop>
        </linearGradient>
        <linearGradient x1="52.0106933%" y1="60.6098179%" x2="65.4116409%" y2="44.7024548%" id="linearGradient-3">
            <stop stop-color="#FFFFFF" stop-opacity="0.462194056" offset="0%"></stop>
            <stop stop-color="#FFFFFF" stop-opacity="0" offset="28.6030376%"></stop>
            <stop stop-color="#FFFFFF" stop-opacity="0" offset="100%"></stop>
        </linearGradient>
        <path d="M41.3624228,15.9501104 L24.4637755,7.62397213 L29.1466441,3.5192797 C29.7523733,2.98833761 30.617496,2.8725825 31.3415012,3.22560353 L44.6584702,9.7188859 C45.6513047,10.2029866 46.0637148,11.4002792 45.5796141,12.3931136 C45.4466824,12.6657411 45.2534841,12.9045631 45.0146374,13.0915092 L41.3624228,15.9501104 L41.3624228,15.9501104 Z" id="path-4"></path>
        <linearGradient x1="71.1491752%" y1="77.0833518%" x2="76.7159722%" y2="34.9512441%" id="linearGradient-5">
            <stop stop-color="#E7C591" offset="0%"></stop>
            <stop stop-color="#CFA25E" offset="100%"></stop>
        </linearGradient>
        <linearGradient x1="52.0106933%" y1="60.2456484%" x2="65.4116409%" y2="44.8842868%" id="linearGradient-6">
            <stop stop-color="#FFFFFF" stop-opacity="0.462194056" offset="0%"></stop>
            <stop stop-color="#FFFFFF" stop-opacity="0" offset="28.6030376%"></stop>
            <stop stop-color="#FFFFFF" stop-opacity="0" offset="100%"></stop>
        </linearGradient>
        <path d="M6.02249708,15.8553983 L23.0638818,7.82545021 L18.4533632,3.63965562 C17.8569924,3.09822296 16.9940216,2.96738701 16.2639657,3.30771864 L2.83570152,9.56759889 C1.83456955,10.0342985 1.40132656,11.2242112 1.86802622,12.2253431 C1.99617967,12.5002491 2.18518053,12.7424065 2.42072817,12.9334926 L6.02249708,15.8553983 L6.02249708,15.8553983 Z" id="path-7"></path>
        <linearGradient x1="50%" y1="0%" x2="50%" y2="100%" id="linearGradient-8">
            <stop stop-color="#B6802E" offset="0%"></stop>
            <stop stop-color="#804B00" offset="100%"></stop>
        </linearGradient>
        <linearGradient x1="50%" y1="0%" x2="50%" y2="100%" id="linearGradient-9">
            <stop stop-color="#C4C4C4" offset="0%"></stop>
            <stop stop-color="#FFF394" offset="0.01%"></stop>
            <stop stop-color="#F9C440" offset="100%"></stop>
        </linearGradient>
        <linearGradient x1="50%" y1="-2.38095238%" x2="50%" y2="102.380952%" id="linearGradient-10">
            <stop stop-color="#FFFFFF" offset="0%"></stop>
            <stop stop-color="#FFFFFF" stop-opacity="0.302083" offset="99.99%"></stop>
            <stop stop-color="#FFFFFF" stop-opacity="0" offset="100%"></stop>
        </linearGradient>
        <linearGradient x1="50%" y1="0%" x2="50%" y2="100%" id="linearGradient-11">
            <stop stop-color="#ED5353" offset="0%"></stop>
            <stop stop-color="#C6262E" offset="100%"></stop>
        </linearGradient>
        <linearGradient x1="48.57%" y1="-1.67333333%" x2="48.57%" y2="101.306667%" id="linearGradient-12">
            <stop stop-color="#FFFFFF" offset="0%"></stop>
            <stop stop-color="#FFFFFF" stop-opacity="0.235294" offset="50.7761%"></stop>
            <stop stop-color="#FFFFFF" stop-opacity="0.156863" offset="83.4566%"></stop>
            <stop stop-color="#FFFFFF" stop-opacity="0.392157" offset="100%"></stop>
        </linearGradient>
        <linearGradient x1="50%" y1="90.9933333%" x2="50%" y2="9.00666667%" id="linearGradient-13">
            <stop stop-color="#4D4D4D" offset="0%"></stop>
            <stop stop-color="#252525" offset="100%"></stop>
        </linearGradient>
        <linearGradient x1="50%" y1="0%" x2="50%" y2="100%" id="linearGradient-14">
            <stop stop-color="#FFFFFF" offset="0%"></stop>
            <stop stop-color="#FFFFFF" stop-opacity="0" offset="100%"></stop>
        </linearGradient>
        <linearGradient x1="48.57%" y1="-1.675%" x2="48.57%" y2="101.3075%" id="linearGradient-15">
            <stop stop-color="#FFFFFF" offset="0%"></stop>
            <stop stop-color="#FFFFFF" stop-opacity="0.235294" offset="50.7761%"></stop>
            <stop stop-color="#FFFFFF" stop-opacity="0.156863" offset="83.4566%"></stop>
            <stop stop-color="#FFFFFF" stop-opacity="0.392157" offset="100%"></stop>
        </linearGradient>
        <linearGradient x1="50%" y1="87.5%" x2="50%" y2="12.5%" id="linearGradient-16">
            <stop stop-color="#FFFFFF" offset="0%"></stop>
            <stop stop-color="#FFFFFF" stop-opacity="0" offset="100%"></stop>
        </linearGradient>
        <radialGradient cx="50.0002704%" cy="82.0000098%" fx="50.0002704%" fy="82.0000098%" r="119.845587%" gradientTransform="translate(0.500003,0.820000),scale(0.607143,1.000000),rotate(89.999999),translate(-0.500003,-0.820000)" id="radialGradient-17">
            <stop stop-color="#F4F4F4" offset="0%"></stop>
            <stop stop-color="#D0D0D0" offset="100%"></stop>
        </radialGradient>
        <linearGradient x1="49.99998%" y1="-1.35135973%" x2="49.99998%" y2="101.351374%" id="linearGradient-18">
            <stop stop-color="#FFFFFF" offset="0%"></stop>
            <stop stop-color="#FFFFFF" stop-opacity="0.23529412" offset="6.316455%"></stop>
            <stop stop-color="#FFFFFF" stop-opacity="0.15686275" offset="95.056331%"></stop>
            <stop stop-color="#FFFFFF" stop-opacity="0.39215687" offset="100%"></stop>
        </linearGradient>
        <linearGradient x1="6.37499968e-06%" y1="49.999979%" x2="100.000002%" y2="49.999979%" id="linearGradient-19">
            <stop stop-color="#F44336" offset="0%"></stop>
            <stop stop-color="#C6180B" offset="100%"></stop>
        </linearGradient>
        <linearGradient x1="74.630289%" y1="1.74963098%" x2="74.630289%" y2="98.2502786%" id="linearGradient-20">
            <stop stop-color="#E7C591" offset="0%"></stop>
            <stop stop-color="#CFA25E" offset="100%"></stop>
        </linearGradient>
        <linearGradient x1="50%" y1="0%" x2="50%" y2="100%" id="linearGradient-21">
            <stop stop-color="#FFFFFF" stop-opacity="0.353802448" offset="0%"></stop>
            <stop stop-color="#FFFFFF" stop-opacity="0.15" offset="100%"></stop>
        </linearGradient>
        <path d="M40,16 L40,34.6123784 C40,35.7773053 39.3256205,36.8369107 38.2702774,37.3301708 L38.2702774,37.3301708 L28.2702774,42.0041018 C28.0692697,42.0980514 27.8590786,42.1691258 27.6436552,42.2164473 C25.6096274,43.643754 22.9264322,43.7405797 20.8039096,42.5075828 L9.7297226,37.3301708 C8.67437953,36.8369107 8,35.7773053 8,34.6123784 L8,16 L24,24.2086842 L40,16 Z" id="path-22"></path>
        <linearGradient x1="63.6491847%" y1="99.3009382%" x2="63.6491847%" y2="0.660209415%" id="linearGradient-23">
            <stop stop-color="#FFFFFF" offset="0%"></stop>
            <stop stop-color="#FFFFFF" offset="33.12453%"></stop>
            <stop stop-color="#FFFFFF" stop-opacity="0.643" offset="36.582196%"></stop>
            <stop stop-color="#FFFFFF" stop-opacity="0.391" offset="100%"></stop>
        </linearGradient>
        <linearGradient x1="74.630289%" y1="1.74963098%" x2="74.630289%" y2="98.2502786%" id="linearGradient-24">
            <stop stop-color="#000000" stop-opacity="0.05" offset="0%"></stop>
            <stop stop-color="#000000" stop-opacity="0.102928322" offset="100%"></stop>
        </linearGradient>
        <linearGradient x1="26.319141%" y1="11.8311201%" x2="24.7371016%" y2="72.8081444%" id="linearGradient-25">
            <stop stop-color="#E7C591" offset="0%"></stop>
            <stop stop-color="#CFA25E" offset="100%"></stop>
        </linearGradient>
        <linearGradient x1="53.4203919%" y1="34.9023703%" x2="34.9015566%" y2="61.9073724%" id="linearGradient-26">
            <stop stop-color="#FFFFFF" stop-opacity="0.462194056" offset="0%"></stop>
            <stop stop-color="#FFFFFF" stop-opacity="0" offset="28.6030376%"></stop>
            <stop stop-color="#FFFFFF" stop-opacity="0" offset="100%"></stop>
        </linearGradient>
        <path d="M41.6719797,15.9039466 L24.490113,24.1626739 L29.5374046,30.7502019 C30.111971,31.5001034 31.132902,31.7456971 31.9856616,31.3391511 L45.837062,24.7356117 C46.8341208,24.2602722 47.2570579,23.0666576 46.7817185,22.0695989 C46.7083906,21.9157883 46.6157071,21.7719792 46.5059203,21.6416661 L41.6719797,15.9039466 L41.6719797,15.9039466 Z" id="path-27"></path>
        <linearGradient x1="73.680859%" y1="11.8311201%" x2="75.2628984%" y2="72.8081444%" id="linearGradient-28">
            <stop stop-color="#E7C591" offset="0%"></stop>
            <stop stop-color="#CFA25E" offset="100%"></stop>
        </linearGradient>
        <path d="M6.50219552,15.9039466 L23.6840622,24.1626739 L18.6367705,30.7502019 C18.0622042,31.5001034 17.0412732,31.7456971 16.1885136,31.3391511 L2.33711316,24.7356117 C1.34005439,24.2602722 0.917117302,23.0666576 1.39245674,22.0695989 C1.46578463,21.9157883 1.55846808,21.7719792 1.6682549,21.6416661 L6.50219552,15.9039466 L6.50219552,15.9039466 Z" id="path-29"></path>
    </defs>
    <g id="48x48/com.github.avojak.replay" stroke="none" stroke-width="1" fill="none" fill-rule="evenodd">
        <rect id="Base-Shadow-Middle" fill="url(#radialGradient-1)" fill-rule="nonzero" opacity="0.35" x="0" y="34.3617189" width="48" height="12"></rect>
        <g id="Rectangle" fill-rule="nonzero">
            <use fill="url(#linearGradient-2)" xlink:href="#path-4"></use>
            <path stroke="#9F702A" stroke-width="1" d="M30.1334091,2.54537197 C30.611531,2.48139834 31.1081335,2.55554394 31.5606367,2.77618208 L31.5606367,2.77618208 L44.8776057,9.26946444 C45.4981272,9.5720274 45.9372662,10.0974628 46.145634,10.7023878 C46.3540018,11.3073129 46.3315985,11.9917276 46.0290356,12.6122491 C45.8628709,12.9530335 45.621373,13.251561 45.3228147,13.4852436 L45.3228147,13.4852436 L41.423226,16.5374653 L23.5711034,7.74153991 L28.8170653,3.14327729 C29.195646,2.81143848 29.6552873,2.60934561 30.1334091,2.54537197 Z"></path>
            <path stroke="url(#linearGradient-3)" stroke-width="1" d="M30.2660292,3.53653892 C30.5529023,3.49815474 30.8508638,3.5426421 31.1223658,3.67502498 L31.1223658,3.67502498 L44.4393347,10.1683073 C44.8116477,10.3498451 45.075131,10.6651064 45.2001517,11.0280614 C45.3251724,11.3910164 45.3117304,11.8016652 45.1301926,12.1739781 C45.0304939,12.3784488 44.8855951,12.5575653 44.7064601,12.6977749 L44.7064601,12.6977749 L41.3016195,15.3627555 L25.3564475,7.50640434 L29.4762229,3.89528211 C29.7033714,3.69617883 29.9791561,3.5749231 30.2660292,3.53653892 Z" stroke-linejoin="square"></path>
        </g>
        <g id="Rectangle" fill-rule="nonzero">
            <use fill="url(#linearGradient-5)" xlink:href="#path-7"></use>
            <path stroke="#9F702A" stroke-width="1" d="M16.052707,2.8545412 C16.508992,2.64183393 17.0068129,2.57636653 17.4837454,2.6486748 C17.960678,2.72098307 18.4167222,2.93106701 18.7894539,3.26946242 L18.7894539,3.26946242 L23.954366,7.95857936 L5.95145234,16.4416026 L2.10572622,13.3217886 C1.81129167,13.0829309 1.57504059,12.7802342 1.41484877,12.4366018 C1.12316149,11.8108943 1.11270628,11.1261928 1.33159976,10.5249965 C1.55049325,9.92380007 1.99873542,9.40610873 2.6244429,9.11442145 L2.6244429,9.11442145 Z"></path>
            <path stroke="url(#linearGradient-6)" stroke-width="1" d="M17.1609473,3.62131055 L17.3338473,3.63737625 C17.6200068,3.68076121 17.8936334,3.80681157 18.1172724,4.00984882 L18.1172724,4.00984882 L22.1733976,7.69232105 L6.09354183,15.269194 L2.73573013,12.5451966 C2.5590694,12.401882 2.41731875,12.220264 2.32120366,12.0140845 C2.14619129,11.63866 2.13991817,11.2278392 2.27125426,10.8671213 C2.40259035,10.5064035 2.67153565,10.1957887 3.04696014,10.0207763 L3.04696014,10.0207763 L16.4752243,3.76089609 C16.7489953,3.63327172 17.0476878,3.59399128 17.3338473,3.63737625 Z" stroke-linejoin="square"></path>
        </g>
        <path d="M18.8904356,9.40450091 C22.1265997,7.88160015 25.8734003,7.88160015 29.1095644,9.40450091 L41,15 L24,23 L7,15 L18.8904356,9.40450091 Z" id="Combined-Shape" stroke-opacity="0.8" stroke="#804B00" fill="url(#linearGradient-8)"></path>
        <g id="com.github.avojak.vee-2" transform="translate(30.154977, 13.201572) rotate(-165.000000) translate(-30.154977, -13.201572) translate(23.545602, 4.904697)">
            <path d="M2.20578089e-13,2.25 C2.20578089e-13,1.0073625 1.0073625,1.48167098e-13 2.25,1.48167098e-13 L10.96875,1.48167098e-13 C12.211425,1.48167098e-13 13.21875,1.0073625 13.21875,2.25 L13.21875,12.09375 C13.21875,14.579025 11.204025,16.59375 8.71875,16.59375 L2.25,16.59375 C1.0073625,16.59375 2.20578089e-13,15.586425 2.20578089e-13,14.34375 L2.20578089e-13,2.25 Z" id="Path" fill="url(#linearGradient-9)" fill-rule="nonzero"></path>
            <path d="M0.09375,1.96875 C0.09375,0.9332175 0.9332175,0.09375 1.96875,0.09375 L11.25,0.09375 C12.285525,0.09375 13.125,0.9332175 13.125,1.96875 L13.125,11.625 C13.125,14.317425 10.942425,16.5 8.25,16.5 L1.96875,16.5 C0.9332175,16.5 0.09375,15.660525 0.09375,14.625 L0.09375,1.96875 Z" id="Path" stroke="#AD5F00"></path>
            <path d="M0.84375,2.4375 C0.84375,1.4019675 1.6832175,0.5625 2.71875,0.5625 L10.21875,0.5625 C11.254275,0.5625 12.09375,1.4019675 12.09375,2.4375 L12.09375,11.4375 C12.09375,14.129925 9.911175,16.3125 7.21875,16.3125 L2.71875,16.3125 C1.6832175,16.3125 0.84375,15.473025 0.84375,14.4375 L0.84375,2.4375 Z" id="Path" stroke="url(#linearGradient-10)"></path>
            <path d="M10.96875,7.6875 C10.141125,7.6875 9.46875,8.359875 9.46875,9.1875 C9.46875,10.015125 10.141125,10.6875 10.96875,10.6875 C11.796375,10.6875 12.46875,10.015125 12.46875,9.1875 C12.46875,8.359875 11.796375,7.6875 10.96875,7.6875 L10.96875,7.6875 Z" id="Path" stroke-opacity="0.16" stroke="#000000"></path>
            <path d="M10.96875,7.3125 C9.933975,7.3125 9.09375,8.152725 9.09375,9.1875 C9.09375,10.222275 9.933975,11.0625 10.96875,11.0625 C12.003525,11.0625 12.84375,10.222275 12.84375,9.1875 C12.84375,8.152725 12.003525,7.3125 10.96875,7.3125 Z" id="Path" stroke-opacity="0.07" stroke="#000000"></path>
            <path d="M12.46875,9.1875 C12.46875,8.359875 11.796375,7.6875 10.96875,7.6875 C10.141125,7.6875 9.46875,8.359875 9.46875,9.1875 C9.46875,10.015125 10.141125,10.6875 10.96875,10.6875 C11.796375,10.6875 12.46875,10.015125 12.46875,9.1875 Z" id="Path" fill="url(#linearGradient-11)" fill-rule="nonzero"></path>
            <path d="M12.46875,8.812425 C12.46875,9.4338 11.797125,9.9375 10.96875,9.9375 C10.1403,9.9375 9.46875,9.4338 9.46875,8.812425 C9.46875,8.191125 10.1403,7.6875 10.96875,7.6875 C11.797125,7.6875 12.46875,8.191125 12.46875,8.812425 Z" id="Path" stroke="url(#linearGradient-12)" opacity="0.5" stroke-linecap="round" stroke-linejoin="round"></path>
            <path d="M10.96875,7.6875 C10.141125,7.6875 9.46875,8.359875 9.46875,9.1875 C9.46875,10.015125 10.141125,10.6875 10.96875,10.6875 C11.796375,10.6875 12.46875,10.015125 12.46875,9.1875 C12.46875,8.359875 11.796375,7.6875 10.96875,7.6875 L10.96875,7.6875 Z" id="Path" stroke="#7A0000" opacity="0.5"></path>
            <polygon id="Path" stroke="#E7E7E7" stroke-width="2" stroke-linecap="round" stroke-linejoin="round" points="2.6511975 7.6875 2.6511975 9.119325 1.21875 9.119325 1.21875 10.755675 2.6511975 10.755675 2.6511975 12.1875 4.2863025 12.1875 4.2863025 10.755675 5.71875 10.755675 5.71875 9.119325 4.2863025 9.119325 4.2863025 7.6875"></polygon>
            <polygon id="Path" fill="url(#linearGradient-13)" fill-rule="nonzero" points="5.71875 10.755075 4.2869325 10.755075 4.2869325 12.1875 2.6505675 12.1875 2.6505675 10.755075 1.21875 10.755075 1.21875 9.119925 2.6505675 9.119925 2.6505675 7.6875 4.2869325 7.6875 4.2869325 9.119925 5.71875 9.119925"></polygon>
            <polygon id="Path" stroke="url(#linearGradient-14)" stroke-width="2" opacity="0.2" stroke-linecap="round" points="5.71875 10.755075 4.2869325 10.755075 4.2869325 12.1875 2.6505675 12.1875 2.6505675 10.755075 1.21875 10.755075 1.21875 9.119925 2.6505675 9.119925 2.6505675 7.6875 4.2869325 7.6875 4.2869325 9.119925 5.71875 9.119925"></polygon>
            <path d="M7.96875,9.1875 C7.141125,9.1875 6.46875,9.859875 6.46875,10.6875 C6.46875,11.515125 7.141125,12.1875 7.96875,12.1875 C8.796375,12.1875 9.46875,11.515125 9.46875,10.6875 C9.46875,9.859875 8.796375,9.1875 7.96875,9.1875 L7.96875,9.1875 Z" id="Path" stroke-opacity="0.15" stroke="#000000"></path>
            <path d="M7.96875,8.8125 C6.933975,8.8125 6.09375,9.652725 6.09375,10.6875 C6.09375,11.722275 6.933975,12.5625 7.96875,12.5625 C9.003525,12.5625 9.84375,11.722275 9.84375,10.6875 C9.84375,9.652725 9.003525,8.8125 7.96875,8.8125 Z" id="Path" stroke-opacity="0.07" stroke="#000000"></path>
            <path d="M9.46875,10.6875 C9.46875,9.859875 8.796375,9.1875 7.96875,9.1875 C7.141125,9.1875 6.46875,9.859875 6.46875,10.6875 C6.46875,11.515125 7.141125,12.1875 7.96875,12.1875 C8.796375,12.1875 9.46875,11.515125 9.46875,10.6875 Z" id="Path" fill="url(#linearGradient-11)" fill-rule="nonzero"></path>
            <path d="M9.46875,10.687425 C9.46875,11.515875 8.96505,12.1875 8.34375,12.1875 C7.72245,12.1875 7.21875,11.515875 7.21875,10.687425 C7.21875,9.85905 7.72245,9.1875 8.34375,9.1875 C8.96505,9.1875 9.46875,9.85905 9.46875,10.687425 Z" id="Path" stroke="url(#linearGradient-15)" opacity="0.5" stroke-linecap="round" stroke-linejoin="round"></path>
            <path d="M7.96875,9.1875 C7.141125,9.1875 6.46875,9.859875 6.46875,10.6875 C6.46875,11.515125 7.141125,12.1875 7.96875,12.1875 C8.796375,12.1875 9.46875,11.515125 9.46875,10.6875 C9.46875,9.859875 8.796375,9.1875 7.96875,9.1875 L7.96875,9.1875 Z" id="Path" stroke="#7A0000" opacity="0.5"></path>
            <path d="M3.65625,9.84375 C3.65625,9.688425 3.5303325,9.5625 3.375,9.5625 C3.2196675,9.5625 3.09375,9.688425 3.09375,9.84375 C3.09375,9.999075 3.2196675,10.125 3.375,10.125 C3.5303325,10.125 3.65625,9.999075 3.65625,9.84375 Z" id="Path" fill="url(#linearGradient-16)" fill-rule="nonzero" opacity="0.1"></path>
            <rect id="Rectangle" fill="#8CC449" fill-rule="nonzero" x="1.96875" y="1.6875" width="9" height="4.5"></rect>
        </g>
        <g id="Group-3" transform="translate(17.525000, 15.611719) rotate(-112.000000) translate(-17.525000, -15.611719) translate(6.650000, 8.861719)">
            <rect id="rect5505" fill="url(#radialGradient-17)" fill-rule="nonzero" transform="translate(10.875000, 6.750000) scale(-1, 1) rotate(-180.000000) translate(-10.875000, -6.750000) " x="0.375" y="0.375" width="21" height="12.75" rx="1.5"></rect>
            <rect id="rect5505-21" stroke="#000000" stroke-width="0.99999994" opacity="0.4" stroke-linecap="round" stroke-linejoin="round" x="0" y="0" width="21.75" height="13.5" rx="2"></rect>
            <rect id="rect4439" fill="#FFFFFF" fill-rule="nonzero" opacity="0.3" x="1.875" y="2.6494215" width="18" height="9.75" rx="1"></rect>
            <rect id="rect6741-2" stroke="url(#linearGradient-18)" stroke-linecap="round" stroke-linejoin="round" x="0.75" y="0.7500015" width="20.2499985" height="12" rx="1"></rect>
            <rect id="rect4263" fill="#575757" fill-rule="nonzero" x="1.875" y="1.8994215" width="18" height="9.75" rx="0.99999994"></rect>
            <rect id="rect4265" stroke="#000000" opacity="0.1" stroke-linecap="round" x="2.25" y="2.2744215" width="17.25" height="9" rx="0.5"></rect>
            <polygon id="path4320" stroke="#C3C3C3" stroke-width="2" fill="#E7E7E7" fill-rule="nonzero" stroke-linecap="round" stroke-linejoin="round" points="4.875 4.8994215 4.875 6.3994215 3.375 6.3994215 3.375 7.8994215 4.875 7.8994215 4.875 9.3994215 6.375 9.3994215 6.375 7.8994215 7.875 7.8994215 7.875 6.3994215 6.375 6.3994215 6.375 4.8994215"></polygon>
            <polygon id="rect4280" fill="#333333" fill-rule="nonzero" points="4.875 4.8994215 4.875 6.3994215 3.375 6.3994215 3.375 7.8994215 4.875 7.8994215 4.875 9.3994215 6.375 9.3994215 6.375 7.8994215 7.875 7.8994215 7.875 6.3994215 6.375 6.3994215 6.375 4.8994215"></polygon>
            <rect id="rect4350" fill="#FF1200" fill-rule="nonzero" opacity="0.5" x="13.875" y="4.8994215" width="3.75" height="1"></rect>
            <line x1="1.875" y1="2.2744215" x2="19.875" y2="2.2744215" id="path4441" stroke="#000000" opacity="0.2"></line>
            <rect id="rect6597" fill="#E7E7E7" fill-rule="nonzero" x="9.375" y="7.1494215" width="3.75" height="2.25"></rect>
            <rect id="rect6599" fill="#83847C" fill-rule="nonzero" x="9.375" y="4.8994215" width="3.75" height="1.5"></rect>
            <rect id="rect6601" fill="#83847C" fill-rule="nonzero" x="9.375" y="2.6494215" width="3.75" height="1.5"></rect>
            <rect id="rect6605" fill="#83847C" fill-rule="nonzero" x="9.375" y="10.1494215" width="3.75" height="1.5"></rect>
            <rect id="rect6615" fill="#E7E7E7" fill-rule="nonzero" x="16.125" y="6.3994215" width="3" height="3" rx="0.33333334"></rect>
            <rect id="rect6623" fill="#E7E7E7" fill-rule="nonzero" x="13.875" y="6.3994215" width="3" height="3" rx="0.33333334"></rect>
            <ellipse id="circle6617" fill="url(#linearGradient-19)" fill-rule="nonzero" transform="translate(17.625000, 7.899421) scale(-1, 1) rotate(-90.000000) translate(-17.625000, -7.899421) " cx="17.625" cy="7.8994215" rx="1.00000005" ry="1"></ellipse>
            <ellipse id="circle6625" fill="url(#linearGradient-19)" fill-rule="nonzero" transform="translate(15.375000, 7.899422) scale(-1, 1) rotate(-90.000000) translate(-15.375000, -7.899422) " cx="15.375" cy="7.8994215" rx="1.00000005" ry="1"></ellipse>
        </g>
        <g id="Combined-Shape" fill-rule="nonzero" transform="translate(24.000000, 29.682477) scale(-1, 1) translate(-24.000000, -29.682477) ">
            <use fill="url(#linearGradient-20)" xlink:href="#path-22"></use>
            <path stroke-opacity="0.65" stroke="#804B00" stroke-width="1" d="M40.5,15.1815149 L40.5,34.6123784 C40.5,35.2527553 40.32532,35.8658499 40.0117838,36.3954029 C39.6941229,36.9319225 39.2338981,37.3826554 38.6684104,37.6891582 L38.6684104,37.6891582 L28.4819903,42.4570672 C28.2784696,42.5521914 28.0668794,42.6272149 27.8500492,42.6815752 C26.775079,43.4130685 25.5384165,43.8055471 24.2898827,43.8586913 C23.0090991,43.9132081 21.7159954,43.6105431 20.572379,42.951283 L20.572379,42.951283 L9.5180097,37.7831362 C8.90239291,37.4954011 8.39789048,37.042482 8.04729226,36.4916115 C7.69669403,35.940741 7.5,35.2919191 7.5,34.6123784 L7.5,34.6123784 L7.5,15.1815149 L24,23.6467204 L40.5,15.1815149 Z"></path>
            <path stroke="url(#linearGradient-21)" stroke-width="1" d="M39.5,16.8184851 L39.5,34.6123784 C39.5,35.0697743 39.3752454,35.5076882 39.1512978,35.8859288 C38.9288716,36.2615999 38.6086245,36.5784369 38.2155587,36.7970005 L38.2155587,36.7970005 L28.0585645,41.5511364 C27.8910581,41.6294278 27.7158988,41.6886565 27.5363793,41.728091 C26.4226354,42.4624348 25.3402378,42.8130771 24.247356,42.8595959 C23.1400732,42.9067277 22.0218517,42.6417612 21.0362415,42.0642572 L21.0362415,42.0642572 L9.9414355,36.8772054 C9.50170922,36.6716804 9.14135034,36.3481667 8.89092304,35.9546878 C8.64049573,35.5612088 8.5,35.0977646 8.5,34.6123784 L8.5,34.6123784 L8.5,16.8184851 L24,24.7706479 L39.5,16.8184851 Z" stroke-linejoin="square"></path>
        </g>
        <polygon id="Rectangle" fill-opacity="0.500737544" fill="#000000" fill-rule="nonzero" opacity="0.496000744" points="16.5481638 31.3222645 22.261796 34.0665147 22.261796 41.1170625 16.5481638 38.4147108"></polygon>
        <path d="M29.9920054,19.5108905 L35.7536513,16.6300675 L36.2874395,27.5771947 L36.3298147,33.9150052 C35.654109,33.9150052 34.9772562,32.8185801 34.300404,32.8185801 C33.6086625,32.8185801 32.9157762,35.0673344 32.2228899,35.0673344 C31.6662907,35.0673344 31.1085455,34.6833408 30.5508003,34.6833408 C30.1866061,34.6833408 29.8224108,36.2196635 29.4582166,36.2196635 L29.4158396,30.4580176 L29.9920054,19.5108905 Z" id="path87-0-9-7-6-4" fill="url(#linearGradient-23)" fill-rule="nonzero" opacity="0.3"></path>
        <path d="M12.0348757,19.5108905 L17.7965216,16.6300675 L18.3303099,27.5771947 L18.372685,33.9150052 C17.6969794,33.9150052 17.0201266,32.8185801 16.3432743,32.8185801 C15.6515329,32.8185801 14.9586465,35.0673344 14.2657602,35.0673344 C13.709161,35.0673344 13.1514159,34.6833408 12.5936707,34.6833408 C12.2294765,34.6833408 11.8652811,36.2196635 11.5010869,36.2196635 L11.45871,30.4580176 L12.0348757,19.5108905 Z" id="path87-0-9-7-6-4" fill="url(#linearGradient-23)" fill-rule="nonzero" opacity="0.3" transform="translate(14.915698, 26.424866) scale(-1, 1) translate(-14.915698, -26.424866) "></path>
        <path d="M6.75336585,15.8138344 L23.0780292,23.9497918 L23.0780292,43.565762 L11.446,38.284367 C8.58839345,36.9869021 6.75336585,34.1384103 6.75336585,31.0000461 L6.75336585,15.8138344 L6.75336585,15.8138344 Z" id="Rectangle" fill="url(#linearGradient-24)" fill-rule="nonzero"></path>
        <g id="Rectangle" fill-rule="nonzero">
            <use fill="url(#linearGradient-25)" xlink:href="#path-27"></use>
            <path stroke="#9F702A" stroke-width="1" d="M41.804664,15.2854088 L46.8883044,21.3195133 C47.0255379,21.4824048 47.1413922,21.6621661 47.2330521,21.8544293 C47.5301393,22.477591 47.546515,23.1621765 47.3328285,23.7652433 C47.119142,24.36831 46.6753933,24.8898582 46.0522316,25.1869453 L46.0522316,25.1869453 L32.2008312,31.7904847 C31.6678564,32.044576 31.0823281,32.0948736 30.5402674,31.9644763 C29.9982068,31.834079 29.4996139,31.5229867 29.1405099,31.0542983 L29.1405099,31.0542983 L23.7191148,23.978505 L41.804664,15.2854088 Z"></path>
            <path stroke="url(#linearGradient-26)" stroke-width="1" d="M41.5392954,16.5224843 L46.1235362,21.9638188 C46.5086371,22.6586654 46.5184625,23.0694167 46.3902506,23.4312568 C46.2620388,23.7930968 45.9957895,24.1060257 45.6218925,24.284278 L45.6218925,24.284278 L31.7704921,30.8878174 C31.4507072,31.0402722 31.0993902,31.0704508 30.7741538,30.9922124 C30.4489175,30.913974 30.1497617,30.7273186 29.9342993,30.4461056 L29.9342993,30.4461056 L25.2611112,24.3468428 L41.5392954,16.5224843 Z" stroke-linejoin="square"></path>
        </g>
        <line x1="23.4861458" y1="25.2005158" x2="23.4861458" y2="43.1576454" id="Line-5" stroke-opacity="0.15" stroke="#FFFFFF" opacity="0.564011347"></line>
        <line x1="24.3023789" y1="25.2005158" x2="24.3023789" y2="43.1576454" id="Line-5" stroke-opacity="0.15" stroke="#FFFFFF" opacity="0.564011347"></line>
        <g id="Rectangle" fill-rule="nonzero">
            <use fill="url(#linearGradient-28)" xlink:href="#path-29"></use>
            <path stroke="#9F702A" stroke-width="1" d="M6.36951123,15.2854088 L24.4550604,23.978505 L19.0336652,31.0542983 C18.6745613,31.5229867 18.1759684,31.834079 17.6339078,31.9644763 C17.0918471,32.0948736 16.5063188,32.044576 15.973344,31.7904847 L15.973344,31.7904847 L2.12194361,25.1869453 C1.49878188,24.8898582 1.05503317,24.36831 0.841346687,23.7652433 C0.627660203,23.1621765 0.64403594,22.477591 0.94112309,21.8544293 C1.03278296,21.6621661 1.14863726,21.4824048 1.28587079,21.3195133 L1.28587079,21.3195133 L6.36951123,15.2854088 Z"></path>
            <path stroke="url(#linearGradient-26)" stroke-width="1" d="M6.63487981,16.5224843 L22.913064,24.3468428 L18.2398758,30.4461056 C18.0244135,30.7273186 17.7252577,30.913974 17.4000214,30.9922124 C17.074785,31.0704508 16.723468,31.0402722 16.4036831,30.8878174 L16.4036831,30.8878174 L2.55228271,24.284278 C2.17838567,24.1060257 1.91213644,23.7930968 1.78392455,23.4312568 C1.65571266,23.0694167 1.6655381,22.6586654 1.84379039,22.2847684 L1.84379039,22.2847684 L6.63487981,16.5224843 Z" stroke-linejoin="square"></path>
        </g>
        <g id="Group-2" opacity="0.504975818" transform="translate(16.025000, 25.611719) rotate(-26.000000) translate(-16.025000, -25.611719) translate(12.650000, 23.361719)" fill="#000000">
            <rect id="Rectangle" x="6" y="2.25" width="1" height="1.875"></rect>
            <rect id="Rectangle" x="4.875" y="1.125" width="1" height="2.625"></rect>
            <rect id="Rectangle" x="3.75" y="3.75" width="1.125" height="1"></rect>
            <rect id="Rectangle" x="1.875" y="3.75" width="1.125" height="1"></rect>
            <rect id="Rectangle" x="1.5" y="1.125" width="1" height="2.625"></rect>
            <rect id="Rectangle" x="1.875" y="2.25" width="1" height="1.125"></rect>
            <rect id="Rectangle-Copy-7" x="0.75" y="1.5" width="1" height="1.125"></rect>
            <rect id="Rectangle-Copy-9" x="5.25" y="1.5" width="1" height="1.125"></rect>
            <rect id="Rectangle-Copy-8" x="0" y="2.25" width="1" height="1.875"></rect>
            <rect id="Rectangle-Copy-6" x="3.75" y="2.25" width="1.125" height="1.125"></rect>
            <rect id="Rectangle" x="1.875" y="0.75" width="1" height="1"></rect>
            <rect id="Rectangle-Copy-4" x="4.125" y="0.75" width="1" height="1"></rect>
            <rect id="Rectangle-Copy-5" x="4.875" y="0" width="1" height="1"></rect>
            <rect id="Rectangle" x="1.125" y="0" width="1" height="1"></rect>
            <rect id="Rectangle" x="2.625" y="1.125" width="1.5" height="2.25"></rect>
        </g>
    </g>
</svg>