<svg width="48" height="48" viewBox="0 0 48 48" fill="none" xmlns="http://www.w3.org/2000/svg">
<path opacity="0.6" d="M43 43H38V47.5H43V43Z" fill="url(#paint0_radial)"/>
<path opacity="0.6" d="M5 47.5H10V43H5V47.5Z" fill="url(#paint1_radial)"/>
<path opacity="0.6" d="M38 43H10V47.5H38V43Z" fill="url(#paint2_linear)"/>
<path d="M6.75 5.5C6.75 3.29086 8.54086 1.5 10.75 1.5H38C40.2091 1.5 42 3.29086 42 5.5V37.75C42 42.1683 38.4183 45.75 34 45.75H10.75C8.54086 45.75 6.75 43.9591 6.75 41.75V5.5Z" fill="url(#paint3_linear)"/>
<path d="M6.5 4.75C6.5 2.817 8.067 1.25 10 1.25H38.75C40.683 1.25 42.25 2.817 42.25 4.75V38.5C42.25 42.6421 38.8921 46 34.75 46H10C8.067 46 6.5 44.433 6.5 42.5V4.75Z" stroke="#AD5F00"/>
<path d="M7.25 5.5C7.25 3.567 8.817 2 10.75 2H38C39.933 2 41.5 3.567 41.5 5.5V37.75C41.5 41.8921 38.1421 45.25 34 45.25H10.75C8.817 45.25 7.25 43.683 7.25 41.75V5.5Z" stroke="url(#paint4_linear)"/>
<rect x="37.7589" y="23" width="7.14446" height="13.31" rx="3.57223" transform="rotate(64.8818 37.7589 23)" fill="url(#paint5_linear)"/>
<path opacity="0.5" d="M38.3418 32.9759V3.00802C39.8608 2.86003 40.7468 4.79623 41 5.78282V37.9705C41 42.8542 36.1899 44.6917 33.7848 45H26C36.0253 40.5603 38.4051 35.134 38.3418 32.9759Z" fill="#D48E15"/>
<path d="M30.375 28.2656C29.2111 28.2656 28.2656 29.2111 28.2656 30.375C28.2656 31.5389 29.2111 32.4844 30.375 32.4844C31.5389 32.4844 32.4844 31.5389 32.4844 30.375C32.4844 29.2111 31.5389 28.2656 30.375 28.2656V28.2656Z" stroke="black" stroke-opacity="0.15"/>
<path d="M30.375 27.7656C28.935 27.7656 27.7656 28.935 27.7656 30.375C27.7656 31.815 28.935 32.9844 30.375 32.9844C31.815 32.9844 32.9844 31.815 32.9844 30.375C32.9844 28.935 31.815 27.7656 30.375 27.7656Z" stroke="black" stroke-opacity="0.07"/>
<path d="M36 25.6406C34.8361 25.6406 33.8906 26.5861 33.8906 27.75C33.8906 28.9139 34.8361 29.8594 36 29.8594C37.1639 29.8594 38.1094 28.9139 38.1094 27.75C38.1094 26.5861 37.1639 25.6406 36 25.6406V25.6406Z" stroke="black" stroke-opacity="0.16"/>
<path d="M36 25.1406C34.56 25.1406 33.3906 26.31 33.3906 27.75C33.3906 29.19 34.56 30.3594 36 30.3594C37.44 30.3594 38.6094 29.19 38.6094 27.75C38.6094 26.31 37.44 25.1406 36 25.1406Z" stroke="black" stroke-opacity="0.07"/>
<path d="M32.4844 30C32.4844 28.8361 31.5389 27.8906 30.375 27.8906C29.2111 27.8906 28.2656 28.8361 28.2656 30C28.2656 31.1639 29.2111 32.1094 30.375 32.1094C31.5389 32.1094 32.4844 31.1639 32.4844 30Z" fill="url(#paint6_linear)"/>
<path opacity="0.5" d="M32.2031 29.9999C32.2031 31.0096 31.3846 31.8281 30.375 31.8281C29.3654 31.8281 28.5469 31.0096 28.5469 29.9999C28.5469 28.9903 29.3654 28.1719 30.375 28.1719C31.3846 28.1719 32.2031 28.9903 32.2031 29.9999Z" stroke="url(#paint7_linear)" stroke-linecap="round" stroke-linejoin="round"/>
<path opacity="0.5" d="M30.375 27.8906C29.2111 27.8906 28.2656 28.8361 28.2656 30C28.2656 31.1639 29.2111 32.1094 30.375 32.1094C31.5389 32.1094 32.4844 31.1639 32.4844 30C32.4844 28.8361 31.5389 27.8906 30.375 27.8906V27.8906Z" stroke="#7A0000"/>
<path d="M38.1094 27.375C38.1094 26.2111 37.1639 25.2656 36 25.2656C34.8361 25.2656 33.8906 26.2111 33.8906 27.375C33.8906 28.5389 34.8361 29.4844 36 29.4844C37.1639 29.4844 38.1094 28.5389 38.1094 27.375Z" fill="url(#paint8_linear)"/>
<path opacity="0.5" d="M37.8281 27.3749C37.8281 28.3846 37.0096 29.2031 36 29.2031C34.9904 29.2031 34.1719 28.3846 34.1719 27.3749C34.1719 26.3653 34.9904 25.5469 36 25.5469C37.0096 25.5469 37.8281 26.3653 37.8281 27.3749Z" stroke="url(#paint9_linear)" stroke-linecap="round" stroke-linejoin="round"/>
<path opacity="0.5" d="M36 25.2656C34.8361 25.2656 33.8906 26.2111 33.8906 27.375C33.8906 28.5389 34.8361 29.4844 36 29.4844C37.1639 29.4844 38.1094 28.5389 38.1094 27.375C38.1094 26.2111 37.1639 25.2656 36 25.2656V25.2656Z" stroke="#7A0000"/>
<path fill-rule="evenodd" clip-rule="evenodd" d="M10.5 2.25C8.84315 2.25 7.5 3.59314 7.5 5.25V42C7.5 43.6569 8.84315 45 10.5 45V44.9768C9.02013 44.7923 7.875 43.5299 7.875 42V5.25C7.875 3.72014 9.02013 2.45775 10.5 2.27321V2.25Z" fill="#C4C4C4"/>
<path d="M22.3319 35.1841L19.2521 37.0805C18.9748 37.2512 18.9232 37.6601 19.1368 37.9937L19.1542 38.021C19.3678 38.3546 19.7658 38.4866 20.0431 38.3159L23.1229 36.4195C23.4002 36.2488 23.4518 35.8399 23.2382 35.5063L23.2208 35.479C23.0072 35.1454 22.6092 35.0134 22.3319 35.1841Z" fill="#4D4D4D"/>
<path opacity="0.5" d="M19.5104 37.5409C19.5136 37.5156 19.52 37.5045 19.523 37.5008L22.6002 35.606C22.6049 35.605 22.6179 35.6042 22.6425 35.6124C22.6862 35.6269 22.747 35.6662 22.795 35.7412L22.8125 35.7685C22.8605 35.8434 22.8702 35.9142 22.8646 35.9591C22.8614 35.9844 22.855 35.9955 22.852 35.9992L19.7748 37.894C19.7701 37.895 19.7571 37.8958 19.7325 37.8876C19.6888 37.8731 19.628 37.8338 19.58 37.7588L19.5625 37.7315C19.5145 37.6566 19.5048 37.5858 19.5104 37.5409ZM22.5981 35.6068C22.5981 35.6067 22.5987 35.6064 22.6 35.6061L22.5981 35.6068ZM22.8504 36.0008C22.8503 36.0007 22.8508 36.0002 22.8519 35.9994L22.8504 36.0008ZM19.7769 37.8932C19.7769 37.8933 19.7763 37.8936 19.775 37.8939L19.7769 37.8932ZM19.5231 37.5006C19.524 37.4996 19.5245 37.4992 19.5246 37.4992L19.5231 37.5006Z" stroke="url(#paint10_linear)" stroke-linecap="round" stroke-linejoin="round"/>
<path d="M22.7298 36.9664L20.5976 38.2939C20.4056 38.4134 20.3699 38.6996 20.5178 38.9331L20.5299 38.9522C20.6777 39.1857 20.9532 39.2781 21.1452 39.1586L23.2774 37.8311C23.4694 37.7116 23.5051 37.4254 23.3572 37.1919L23.3451 37.1728C23.1973 36.9393 22.9218 36.8469 22.7298 36.9664Z" fill="#1A1A1A"/>
<path opacity="0.5" d="M20.9422 38.6688C20.9421 38.6687 20.9421 38.6686 20.942 38.6684L22.9204 37.4367C22.9205 37.4368 22.9206 37.4369 22.9207 37.4371L22.9328 37.4562C22.9329 37.4563 22.933 37.4565 22.933 37.4566L20.9546 38.6883C20.9545 38.6882 20.9544 38.6881 20.9543 38.6879L20.9422 38.6688Z" stroke="url(#paint11_linear)" stroke-linecap="round" stroke-linejoin="round"/>
<path d="M29.0312 35.1841L25.9514 37.0805C25.6741 37.2512 25.6224 37.6601 25.836 37.9937L25.8535 38.021C26.0671 38.3546 26.4651 38.4866 26.7423 38.3159L29.8222 36.4195C30.0995 36.2488 30.1511 35.8399 29.9375 35.5063L29.92 35.479C29.7064 35.1454 29.3085 35.0134 29.0312 35.1841Z" fill="#4D4D4D"/>
<path opacity="0.5" d="M26.2097 37.5409C26.2129 37.5156 26.2193 37.5045 26.2223 37.5008L29.2995 35.606C29.3042 35.605 29.3172 35.6042 29.3418 35.6124C29.3855 35.6269 29.4463 35.6663 29.4943 35.7412L29.5118 35.7685C29.5597 35.8434 29.5695 35.9142 29.5638 35.9591C29.5606 35.9844 29.5543 35.9955 29.5513 35.9992L26.4741 37.894C26.4693 37.895 26.4564 37.8958 26.4317 37.8876C26.388 37.8731 26.3273 37.8338 26.2793 37.7588L26.2618 37.7315C26.2138 37.6566 26.2041 37.5858 26.2097 37.5409ZM29.2974 35.6068C29.2974 35.6067 29.298 35.6064 29.2993 35.6061L29.2974 35.6068ZM29.5497 36.0008C29.5496 36.0007 29.5501 36.0002 29.5511 35.9994L29.5497 36.0008ZM26.4762 37.8932C26.4762 37.8933 26.4756 37.8936 26.4742 37.8939L26.4762 37.8932ZM26.2224 37.5006C26.2233 37.4996 26.2238 37.4992 26.2239 37.4992L26.2224 37.5006Z" stroke="url(#paint12_linear)" stroke-linecap="round" stroke-linejoin="round"/>
<path d="M29.4291 36.9664L27.2969 38.2939C27.1049 38.4134 27.0692 38.6996 27.217 38.9331L27.2291 38.9522C27.377 39.1857 27.6525 39.2781 27.8445 39.1586L29.9767 37.8311C30.1687 37.7116 30.2044 37.4254 30.0565 37.1919L30.0444 37.1728C29.8965 36.9393 29.621 36.8469 29.4291 36.9664Z" fill="#1A1A1A"/>
<path opacity="0.5" d="M27.6415 38.6688C27.6414 38.6687 27.6413 38.6686 27.6412 38.6684L29.6197 37.4367C29.6198 37.4368 29.6199 37.4369 29.62 37.4371L29.6321 37.4562C29.6321 37.4563 29.6322 37.4565 29.6323 37.4566L27.6539 38.6883C27.6538 38.6882 27.6537 38.6881 27.6536 38.6879L27.6415 38.6688Z" stroke="url(#paint13_linear)" stroke-linecap="round" stroke-linejoin="round"/>
<path opacity="0.379121" d="M7.87522 3.50133C7.85858 2.94163 8.77148 2.27405 9.63041 2.25624C10.6155 2.23447 38.6159 2.27667 38.6159 2.27667C38.6159 2.27667 40.3346 2.48262 40.1036 3.92244C32.858 7.15161 19.5102 18.5193 21.9611 22.3031C29.7323 34.3007 7.89082 43.125 7.89082 43.125C7.89082 43.125 7.91105 5.39738 7.87522 3.50133Z" fill="white"/>
<path d="M21 27.75C21 24.8505 18.6495 22.5 15.75 22.5C12.8505 22.5 10.5 24.8505 10.5 27.75C10.5 30.6495 12.8505 33 15.75 33C18.6495 33 21 30.6495 21 27.75Z" fill="url(#paint14_linear)"/>
<path d="M14.3874 24V26.3864H12V29.1136H14.3874V31.5H17.1126V29.1136H19.5V26.3864H17.1126V24H14.3874Z" stroke="#E7E7E7" stroke-width="2" stroke-linecap="round" stroke-linejoin="round"/>
<path d="M19.5 29.1126H17.1136V31.5H14.3864V29.1126H12V26.3874H14.3864V24H17.1136V26.3874H19.5V29.1126Z" fill="url(#paint15_linear)"/>
<path opacity="0.2" d="M19.5 29.1126H17.1136V31.5H14.3864V29.1126H12V26.3874H14.3864V24H17.1136V26.3874H19.5V29.1126Z" stroke="url(#paint16_linear)" stroke-width="2" stroke-linecap="round"/>
<path opacity="0.1" d="M16.5 27.75C16.5 27.3358 16.1642 27 15.75 27C15.3358 27 15 27.3358 15 27.75C15 28.1642 15.3358 28.5 15.75 28.5C16.1642 28.5 16.5 28.1642 16.5 27.75Z" fill="url(#paint17_linear)"/>
<path d="M26.3546 43.125H22.3954C22.039 43.125 21.75 43.4534 21.75 43.8584V43.8916C21.75 44.2966 22.039 44.625 22.3954 44.625H26.3546C26.711 44.625 27 44.2966 27 43.8916V43.8584C27 43.4534 26.711 43.125 26.3546 43.125Z" fill="white" fill-opacity="0.7"/>
<path d="M26.3546 42.75H22.3954C22.039 42.75 21.75 43.0784 21.75 43.4834V43.5166C21.75 43.9216 22.039 44.25 22.3954 44.25H26.3546C26.711 44.25 27 43.9216 27 43.5166V43.4834C27 43.0784 26.711 42.75 26.3546 42.75Z" fill="url(#paint18_linear)"/>
<path fill-rule="evenodd" clip-rule="evenodd" d="M22.3954 42.75H26.3546C26.711 42.75 27 43.0784 27 43.4834V43.5166C27 43.6468 26.9702 43.769 26.9178 43.875C26.8073 43.6512 26.5965 43.5 26.3546 43.5H22.3954C22.1535 43.5 21.9427 43.6512 21.8322 43.875C21.7798 43.769 21.75 43.6468 21.75 43.5166V43.4834C21.75 43.0784 22.039 42.75 22.3954 42.75Z" fill="black" fill-opacity="0.07"/>
<path fill-rule="evenodd" clip-rule="evenodd" d="M22.3954 42.75H26.3546C26.711 42.75 27 43.0784 27 43.4834V43.5166C27 43.5754 26.9939 43.6327 26.9824 43.6875C26.9146 43.3649 26.6592 43.125 26.3546 43.125H22.3954C22.0908 43.125 21.8354 43.3649 21.7676 43.6875C21.7561 43.6327 21.75 43.5754 21.75 43.5166V43.4834C21.75 43.0784 22.039 42.75 22.3954 42.75Z" fill="black" fill-opacity="0.15"/>
<path d="M39.7291 40.5877L38.1007 37.6104C37.9541 37.3423 37.6912 37.2038 37.5135 37.301L37.4989 37.3089C37.3212 37.4061 37.296 37.7022 37.4427 37.9703L39.0711 40.9476C39.2177 41.2156 39.4806 41.3542 39.6583 41.257L39.6728 41.249C39.8505 41.1518 39.8757 40.8558 39.7291 40.5877Z" fill="white" fill-opacity="0.7"/>
<path d="M39.7291 39.8377L38.1007 36.8604C37.9541 36.5923 37.6912 36.4538 37.5135 36.551L37.4989 36.5589C37.3212 36.6561 37.296 36.9522 37.4427 37.2203L39.0711 40.1976C39.2177 40.4656 39.4806 40.6042 39.6583 40.507L39.6728 40.499C39.8505 40.4018 39.8757 40.1058 39.7291 39.8377Z" fill="url(#paint19_linear)"/>
<path fill-rule="evenodd" clip-rule="evenodd" d="M38.1007 36.8604L39.7291 39.8377C39.8741 40.1027 39.8511 40.3952 39.6788 40.4957L38.1007 37.6104C37.9541 37.3423 37.6912 37.2038 37.5135 37.301L37.499 37.3089C37.497 37.31 37.495 37.3111 37.493 37.3123L37.4427 37.2203C37.2961 36.9522 37.3213 36.6561 37.499 36.5589L37.5135 36.551C37.6912 36.4538 37.9541 36.5923 38.1007 36.8604Z" fill="black" fill-opacity="0.07"/>
<path fill-rule="evenodd" clip-rule="evenodd" d="M38.1007 36.8604L39.7291 39.8377C39.831 40.024 39.8499 40.2238 39.7924 40.361C39.7769 40.3115 39.7559 40.2616 39.7291 40.2127L38.1007 37.2354C37.9541 36.9673 37.6912 36.8288 37.5135 36.926L37.499 36.9339C37.4447 36.9636 37.4047 37.0118 37.3794 37.072C37.3104 36.8507 37.3537 36.6384 37.499 36.5589L37.5135 36.551C37.6912 36.4538 37.9541 36.5923 38.1007 36.8604Z" fill="black" fill-opacity="0.15"/>
<path d="M38.3687 41.4126L36.7403 38.4352C36.5936 38.1672 36.3307 38.0287 36.1531 38.1259L36.1385 38.1338C35.9608 38.231 35.9356 38.5271 36.0822 38.7951L37.7107 41.7725C37.8573 42.0405 38.1202 42.1791 38.2979 42.0819L38.3124 42.0739C38.4901 41.9767 38.5153 41.6806 38.3687 41.4126Z" fill="white" fill-opacity="0.7"/>
<path d="M38.3687 40.6626L36.7403 37.6852C36.5936 37.4172 36.3307 37.2787 36.1531 37.3759L36.1385 37.3838C35.9608 37.481 35.9356 37.7771 36.0822 38.0451L37.7107 41.0225C37.8573 41.2905 38.1202 41.4291 38.2979 41.3319L38.3124 41.3239C38.4901 41.2267 38.5153 40.9306 38.3687 40.6626Z" fill="url(#paint20_linear)"/>
<path fill-rule="evenodd" clip-rule="evenodd" d="M36.7402 37.6853L38.3687 40.6626C38.5136 40.9276 38.4906 41.2201 38.3183 41.3206L36.7402 38.4353C36.5936 38.1672 36.3307 38.0287 36.153 38.1259L36.1385 38.1338C36.1365 38.1349 36.1345 38.136 36.1325 38.1372L36.0822 38.0452C35.9356 37.7771 35.9608 37.481 36.1385 37.3838L36.153 37.3759C36.3307 37.2787 36.5936 37.4172 36.7402 37.6853Z" fill="black" fill-opacity="0.07"/>
<path fill-rule="evenodd" clip-rule="evenodd" d="M36.7402 37.6853L38.3687 40.6626C38.4705 40.8489 38.4895 41.0487 38.4319 41.1858C38.4165 41.1364 38.3954 41.0865 38.3687 41.0376L36.7402 38.0603C36.5936 37.7922 36.3307 37.6537 36.153 37.7509L36.1385 37.7588C36.0843 37.7885 36.0442 37.8367 36.019 37.8969C35.9499 37.6756 35.9932 37.4633 36.1385 37.3838L36.153 37.3759C36.3307 37.2787 36.5936 37.4172 36.7402 37.6853Z" fill="black" fill-opacity="0.15"/>
<path d="M37.0082 42.2375L35.3798 39.2602C35.2332 38.9921 34.9703 38.8536 34.7926 38.9508L34.778 38.9587C34.6004 39.0559 34.5752 39.352 34.7218 39.6201L36.3502 42.5974C36.4968 42.8655 36.7597 43.004 36.9374 42.9068L36.952 42.8988C37.1296 42.8017 37.1548 42.5056 37.0082 42.2375Z" fill="white" fill-opacity="0.7"/>
<path d="M37.0082 41.4875L35.3798 38.5102C35.2332 38.2421 34.9703 38.1036 34.7926 38.2008L34.778 38.2087C34.6004 38.3059 34.5752 38.602 34.7218 38.8701L36.3502 41.8474C36.4968 42.1155 36.7597 42.254 36.9374 42.1568L36.952 42.1488C37.1296 42.0517 37.1548 41.7556 37.0082 41.4875Z" fill="url(#paint21_linear)"/>
<path fill-rule="evenodd" clip-rule="evenodd" d="M35.3798 38.5102L37.0082 41.4875C37.1532 41.7525 37.1302 42.045 36.9579 42.1455L35.3798 39.2602C35.2332 38.9921 34.9703 38.8536 34.7926 38.9508L34.7781 38.9587C34.7761 38.9598 34.7741 38.9609 34.7721 38.9621L34.7218 38.87C34.5752 38.602 34.6004 38.3059 34.7781 38.2087L34.7926 38.2008C34.9703 38.1036 35.2332 38.2421 35.3798 38.5102Z" fill="black" fill-opacity="0.07"/>
<path fill-rule="evenodd" clip-rule="evenodd" d="M35.3798 38.5102L37.0082 41.4875C37.1101 41.6737 37.129 41.8735 37.0715 42.0107C37.0561 41.9613 37.035 41.9114 37.0082 41.8625L35.3798 38.8852C35.2332 38.6171 34.9703 38.4786 34.7926 38.5758L34.7781 38.5837C34.7238 38.6134 34.6838 38.6615 34.6586 38.7218C34.5895 38.5005 34.6328 38.2882 34.7781 38.2087L34.7926 38.2008C34.9703 38.1036 35.2332 38.2421 35.3798 38.5102Z" fill="black" fill-opacity="0.15"/>
<path d="M35.6478 43.0624L34.0194 40.0851C33.8728 39.817 33.6099 39.6785 33.4322 39.7757L33.4176 39.7836C33.2399 39.8808 33.2148 40.1769 33.3614 40.445L34.9898 43.4223C35.1364 43.6903 35.3993 43.8289 35.577 43.7317L35.5915 43.7237C35.7692 43.6265 35.7944 43.3305 35.6478 43.0624Z" fill="white" fill-opacity="0.7"/>
<path d="M35.6478 42.3124L34.0194 39.3351C33.8728 39.067 33.6099 38.9285 33.4322 39.0257L33.4176 39.0336C33.2399 39.1308 33.2148 39.4269 33.3614 39.695L34.9898 42.6723C35.1364 42.9403 35.3993 43.0789 35.577 42.9817L35.5915 42.9737C35.7692 42.8765 35.7944 42.5805 35.6478 42.3124Z" fill="url(#paint22_linear)"/>
<path fill-rule="evenodd" clip-rule="evenodd" d="M34.0194 39.3351L35.6478 42.3124C35.7928 42.5774 35.7698 42.8699 35.5975 42.9704L34.0194 40.0851C33.8728 39.817 33.6099 39.6785 33.4322 39.7757L33.4177 39.7836C33.4157 39.7847 33.4137 39.7858 33.4117 39.787L33.3614 39.695C33.2148 39.4269 33.24 39.1308 33.4177 39.0336L33.4322 39.0257C33.6099 38.9285 33.8728 39.067 34.0194 39.3351Z" fill="black" fill-opacity="0.07"/>
<path fill-rule="evenodd" clip-rule="evenodd" d="M34.0194 39.3351L35.6478 42.3124C35.7497 42.4987 35.7686 42.6985 35.7111 42.8357C35.6956 42.7862 35.6746 42.7363 35.6478 42.6874L34.0194 39.7101C33.8728 39.442 33.6099 39.3035 33.4322 39.4007L33.4177 39.4086C33.3634 39.4383 33.3234 39.4865 33.2981 39.5467C33.2291 39.3254 33.2724 39.1131 33.4177 39.0336L33.4322 39.0257C33.6099 38.9285 33.8728 39.067 34.0194 39.3351Z" fill="black" fill-opacity="0.15"/>
<path d="M34.2873 43.8873L32.6589 40.91C32.5123 40.6419 32.2494 40.5034 32.0717 40.6006L32.0572 40.6085C31.8795 40.7057 31.8543 41.0018 32.0009 41.2699L33.6293 44.2472C33.7759 44.5153 34.0388 44.6538 34.2165 44.5566L34.2311 44.5486C34.4088 44.4515 34.4339 44.1554 34.2873 43.8873Z" fill="white" fill-opacity="0.7"/>
<path d="M34.2873 43.1373L32.6589 40.16C32.5123 39.8919 32.2494 39.7534 32.0717 39.8506L32.0572 39.8585C31.8795 39.9557 31.8543 40.2518 32.0009 40.5199L33.6293 43.4972C33.7759 43.7653 34.0388 43.9038 34.2165 43.8066L34.2311 43.7986C34.4088 43.7015 34.4339 43.4054 34.2873 43.1373Z" fill="url(#paint23_linear)"/>
<path fill-rule="evenodd" clip-rule="evenodd" d="M32.6589 40.16L34.2874 43.1373C34.4323 43.4023 34.4093 43.6948 34.237 43.7953L32.6589 40.91C32.5123 40.6419 32.2494 40.5034 32.0717 40.6006L32.0572 40.6085C32.0552 40.6096 32.0532 40.6107 32.0512 40.6119L32.0009 40.5199C31.8543 40.2518 31.8795 39.9557 32.0572 39.8585L32.0717 39.8506C32.2494 39.7534 32.5123 39.8919 32.6589 40.16Z" fill="black" fill-opacity="0.07"/>
<path fill-rule="evenodd" clip-rule="evenodd" d="M32.6589 40.16L34.2874 43.1373C34.3892 43.3236 34.4082 43.5234 34.3506 43.6605C34.3352 43.6111 34.3141 43.5612 34.2874 43.5123L32.6589 40.535C32.5123 40.2669 32.2494 40.1284 32.0717 40.2256L32.0572 40.2335C32.003 40.2632 31.9629 40.3114 31.9377 40.3716C31.8686 40.1503 31.9119 39.938 32.0572 39.8585L32.0717 39.8506C32.2494 39.7534 32.5123 39.8919 32.6589 40.16Z" fill="black" fill-opacity="0.15"/>
<path d="M32.9269 44.7122L31.2985 41.7349C31.1519 41.4668 30.889 41.3283 30.7113 41.4255L30.6967 41.4334C30.5191 41.5306 30.4939 41.8267 30.6405 42.0948L32.2689 45.0721C32.4155 45.3402 32.6784 45.4787 32.8561 45.3815L32.8707 45.3735C33.0483 45.2764 33.0735 44.9803 32.9269 44.7122Z" fill="white" fill-opacity="0.7"/>
<path d="M32.9269 43.9622L31.2985 40.9849C31.1519 40.7168 30.889 40.5783 30.7113 40.6755L30.6967 40.6834C30.5191 40.7806 30.4939 41.0767 30.6405 41.3448L32.2689 44.3221C32.4155 44.5902 32.6784 44.7287 32.8561 44.6315L32.8707 44.6235C33.0483 44.5264 33.0735 44.2303 32.9269 43.9622Z" fill="url(#paint24_linear)"/>
<path fill-rule="evenodd" clip-rule="evenodd" d="M31.2985 40.9849L32.9269 43.9622C33.0719 44.2272 33.0489 44.5197 32.8766 44.6202L31.2985 41.7349C31.1519 41.4668 30.889 41.3283 30.7113 41.4255L30.6968 41.4334C30.6948 41.4345 30.6928 41.4356 30.6908 41.4368L30.6405 41.3447C30.4939 41.0767 30.5191 40.7806 30.6968 40.6834L30.7113 40.6755C30.889 40.5783 31.1519 40.7168 31.2985 40.9849Z" fill="black" fill-opacity="0.07"/>
<path fill-rule="evenodd" clip-rule="evenodd" d="M31.2985 40.9849L32.9269 43.9622C33.0288 44.1484 33.0477 44.3482 32.9902 44.4854C32.9748 44.436 32.9537 44.3861 32.9269 44.3372L31.2985 41.3599C31.1519 41.0918 30.889 40.9533 30.7113 41.0505L30.6968 41.0584C30.6425 41.0881 30.6025 41.1362 30.5773 41.1965C30.5082 40.9752 30.5515 40.7629 30.6968 40.6834L30.7113 40.6755C30.889 40.5783 31.1519 40.7168 31.2985 40.9849Z" fill="black" fill-opacity="0.15"/>
<path d="M9.25 8C9.25 5.37665 11.3766 3.25 14 3.25H33C35.6234 3.25 37.75 5.37665 37.75 8V11C37.75 16.3848 33.3848 20.75 28 20.75H14C11.3766 20.75 9.25 18.6234 9.25 16V8Z" fill="#95A3AB" stroke="#273445" stroke-width="0.5"/>
<path d="M10.25 8C10.25 5.92893 11.9289 4.25 14 4.25H33C35.0711 4.25 36.75 5.92893 36.75 8V11C36.75 15.8325 32.8325 19.75 28 19.75H14C11.9289 19.75 10.25 18.0711 10.25 16V8Z" stroke="url(#paint25_linear)" stroke-width="0.5"/>
<rect x="18" y="6" width="14" height="13" fill="white" fill-opacity="0.7"/>
<rect x="18" y="6" width="14" height="13" fill="white" fill-opacity="0.7"/>
<rect x="16" y="6" width="15" height="13" fill="#8CC449"/>
<path fill-rule="evenodd" clip-rule="evenodd" d="M16.3947 5.09302H15.6316V18.907H16.3947V5.09302Z" fill="black" fill-opacity="0.07"/>
<path fill-rule="evenodd" clip-rule="evenodd" d="M16.0132 5.09302H15.6316V18.907H16.0132V5.09302Z" fill="black" fill-opacity="0.15"/>
<path fill-rule="evenodd" clip-rule="evenodd" d="M31 5.09302H16.6316V5.93024H31V5.09302Z" fill="black" fill-opacity="0.07"/>
<path fill-rule="evenodd" clip-rule="evenodd" d="M31 5.09302H16V5.51163H31V5.09302Z" fill="black" fill-opacity="0.15"/>
<path fill-rule="evenodd" clip-rule="evenodd" d="M22.0195 14.0401C22.9338 14.5589 24.0663 14.5589 24.9805 14.0401C24.5371 13.4055 23.931 13 23.5 13C23.0691 13 22.463 13.4055 22.0195 14.0401Z" fill="#D93C40"/>
<path fill-rule="evenodd" clip-rule="evenodd" d="M26.9337 13.2229C26.565 13.3595 26.1586 13.3595 25.7898 13.2229C25.7896 13.2184 25.7894 13.2138 25.7894 13.2093C25.7894 12.9781 26.1511 12.7907 26.3618 12.7907C26.5725 12.7907 26.9342 12.9781 26.9342 13.2093C26.9342 13.2138 26.934 13.2184 26.9337 13.2229Z" fill="#D93C40"/>
<path fill-rule="evenodd" clip-rule="evenodd" d="M21.2101 13.2229C20.8414 13.3595 20.435 13.3595 20.0662 13.2229C20.0659 13.2184 20.0658 13.2138 20.0658 13.2093C20.0658 12.9781 20.4274 12.7907 20.6382 12.7907C20.8489 12.7907 21.2105 12.9781 21.2105 13.2093C21.2105 13.2138 21.2104 13.2184 21.2101 13.2229Z" fill="#D93C40"/>
<path d="M20.5714 6H24L18.2857 19H16V16.2424L20.5714 6Z" fill="url(#paint26_linear)"/>
<circle cx="21" cy="10" r="2" fill="#164B00"/>
<circle cx="27" cy="10" r="2" fill="#164B00"/>
<path fill-rule="evenodd" clip-rule="evenodd" d="M30.3684 13.8L28.079 19.3256H25.7895L24.2632 18.907L30.3684 5.51163L30.3684 13.8Z" fill="url(#paint27_linear)"/>
<circle cx="21.5" cy="9.5" r="0.5" fill="#C4C4C4"/>
<circle cx="26.5" cy="9.5" r="0.5" fill="#C4C4C4"/>
<defs>
<radialGradient id="paint0_radial" cx="0" cy="0" r="1" gradientUnits="userSpaceOnUse" gradientTransform="translate(37.993 45.25) scale(5.00946 2.25)">
<stop stop-color="#181818"/>
<stop offset="1" stop-color="#181818" stop-opacity="0"/>
</radialGradient>
<radialGradient id="paint1_radial" cx="0" cy="0" r="1" gradientUnits="userSpaceOnUse" gradientTransform="translate(10.007 45.25) rotate(180) scale(5.00946 2.25)">
<stop stop-color="#181818"/>
<stop offset="1" stop-color="#181818" stop-opacity="0"/>
</radialGradient>
<linearGradient id="paint2_linear" x1="25.0581" y1="47.5178" x2="25.0581" y2="42.9996" gradientUnits="userSpaceOnUse">
<stop stop-color="#181818" stop-opacity="0"/>
<stop offset="0.5" stop-color="#181818"/>
<stop offset="1" stop-color="#181818" stop-opacity="0"/>
</linearGradient>
<linearGradient id="paint3_linear" x1="24.375" y1="1.5" x2="24.375" y2="45.75" gradientUnits="userSpaceOnUse">
<stop stop-color="#C4C4C4"/>
<stop offset="0.0001" stop-color="#FFF394"/>
<stop offset="1" stop-color="#F9C440"/>
</linearGradient>
<linearGradient id="paint4_linear" x1="24.375" y1="1.5" x2="24.375" y2="45.75" gradientUnits="userSpaceOnUse">
<stop stop-color="white"/>
<stop offset="0.9999" stop-color="white" stop-opacity="0.302083"/>
<stop offset="1" stop-color="white" stop-opacity="0"/>
</linearGradient>
<linearGradient id="paint5_linear" x1="37.7384" y1="29.1845" x2="50.257" y2="29.9509" gradientUnits="userSpaceOnUse">
<stop stop-color="#FF8C82"/>
<stop offset="1" stop-color="#C4C4C4" stop-opacity="0.65"/>
</linearGradient>
<linearGradient id="paint6_linear" x1="30.375" y1="27.8906" x2="30.375" y2="32.1094" gradientUnits="userSpaceOnUse">
<stop stop-color="#ED5353"/>
<stop offset="1" stop-color="#C6262E"/>
</linearGradient>
<linearGradient id="paint7_linear" x1="30.3227" y1="28.1106" x2="30.3227" y2="31.8759" gradientUnits="userSpaceOnUse">
<stop stop-color="white"/>
<stop offset="0.507761" stop-color="white" stop-opacity="0.235294"/>
<stop offset="0.834566" stop-color="white" stop-opacity="0.156863"/>
<stop offset="1" stop-color="white" stop-opacity="0.392157"/>
</linearGradient>
<linearGradient id="paint8_linear" x1="36" y1="25.2656" x2="36" y2="29.4844" gradientUnits="userSpaceOnUse">
<stop stop-color="#ED5353"/>
<stop offset="1" stop-color="#C6262E"/>
</linearGradient>
<linearGradient id="paint9_linear" x1="35.9477" y1="25.4856" x2="35.9477" y2="29.2509" gradientUnits="userSpaceOnUse">
<stop stop-color="white"/>
<stop offset="0.507761" stop-color="white" stop-opacity="0.235294"/>
<stop offset="0.834566" stop-color="white" stop-opacity="0.156863"/>
<stop offset="1" stop-color="white" stop-opacity="0.392157"/>
</linearGradient>
<linearGradient id="paint10_linear" x1="20.7204" y1="36.1476" x2="21.5123" y2="37.4337" gradientUnits="userSpaceOnUse">
<stop stop-color="white"/>
<stop offset="0.507761" stop-color="white" stop-opacity="0.235294"/>
<stop offset="0.834566" stop-color="white" stop-opacity="0.156863"/>
<stop offset="1" stop-color="white" stop-opacity="0.392157"/>
</linearGradient>
<linearGradient id="paint11_linear" x1="21.6141" y1="37.6408" x2="22.1712" y2="38.5356" gradientUnits="userSpaceOnUse">
<stop stop-color="white"/>
<stop offset="0.507761" stop-color="white" stop-opacity="0.235294"/>
<stop offset="0.834566" stop-color="white" stop-opacity="0.156863"/>
<stop offset="1" stop-color="white" stop-opacity="0.392157"/>
</linearGradient>
<linearGradient id="paint12_linear" x1="27.4196" y1="36.1476" x2="28.2115" y2="37.4337" gradientUnits="userSpaceOnUse">
<stop stop-color="white"/>
<stop offset="0.507761" stop-color="white" stop-opacity="0.235294"/>
<stop offset="0.834566" stop-color="white" stop-opacity="0.156863"/>
<stop offset="1" stop-color="white" stop-opacity="0.392157"/>
</linearGradient>
<linearGradient id="paint13_linear" x1="28.3134" y1="37.6408" x2="28.8704" y2="38.5356" gradientUnits="userSpaceOnUse">
<stop stop-color="white"/>
<stop offset="0.507761" stop-color="white" stop-opacity="0.235294"/>
<stop offset="0.834566" stop-color="white" stop-opacity="0.156863"/>
<stop offset="1" stop-color="white" stop-opacity="0.392157"/>
</linearGradient>
<linearGradient id="paint14_linear" x1="15.75" y1="22.5" x2="15.75" y2="33" gradientUnits="userSpaceOnUse">
<stop stop-color="#FF8C82"/>
<stop offset="1" stop-color="#FF8C82" stop-opacity="0.65"/>
</linearGradient>
<linearGradient id="paint15_linear" x1="15.75" y1="30.8245" x2="15.75" y2="24.6755" gradientUnits="userSpaceOnUse">
<stop stop-color="#4D4D4D"/>
<stop offset="1" stop-color="#252525"/>
</linearGradient>
<linearGradient id="paint16_linear" x1="15.75" y1="24" x2="15.75" y2="31.5" gradientUnits="userSpaceOnUse">
<stop stop-color="white"/>
<stop offset="1" stop-color="white" stop-opacity="0"/>
</linearGradient>
<linearGradient id="paint17_linear" x1="15.75" y1="28.5" x2="15.75" y2="27" gradientUnits="userSpaceOnUse">
<stop stop-color="white"/>
<stop offset="1" stop-color="white" stop-opacity="0"/>
</linearGradient>
<linearGradient id="paint18_linear" x1="24.375" y1="42.75" x2="24.375" y2="44.25" gradientUnits="userSpaceOnUse">
<stop stop-color="#D48E15"/>
<stop offset="1" stop-color="#D48E15" stop-opacity="0.5"/>
</linearGradient>
<linearGradient id="paint19_linear" x1="37.5" y1="36.5625" x2="39.75" y2="40.5" gradientUnits="userSpaceOnUse">
<stop stop-color="#AD5F00"/>
<stop offset="1" stop-color="#AD5F00" stop-opacity="0.5"/>
</linearGradient>
<linearGradient id="paint20_linear" x1="36.1396" y1="37.3874" x2="38.3896" y2="41.3249" gradientUnits="userSpaceOnUse">
<stop stop-color="#AD5F00"/>
<stop offset="1" stop-color="#AD5F00" stop-opacity="0.5"/>
</linearGradient>
<linearGradient id="paint21_linear" x1="34.7791" y1="38.2123" x2="37.0291" y2="42.1498" gradientUnits="userSpaceOnUse">
<stop stop-color="#AD5F00"/>
<stop offset="1" stop-color="#AD5F00" stop-opacity="0.5"/>
</linearGradient>
<linearGradient id="paint22_linear" x1="33.4187" y1="39.0372" x2="35.6687" y2="42.9747" gradientUnits="userSpaceOnUse">
<stop stop-color="#AD5F00"/>
<stop offset="1" stop-color="#AD5F00" stop-opacity="0.5"/>
</linearGradient>
<linearGradient id="paint23_linear" x1="32.0582" y1="39.8621" x2="34.3082" y2="43.7996" gradientUnits="userSpaceOnUse">
<stop stop-color="#AD5F00"/>
<stop offset="1" stop-color="#AD5F00" stop-opacity="0.5"/>
</linearGradient>
<linearGradient id="paint24_linear" x1="30.6978" y1="40.687" x2="32.9478" y2="44.6245" gradientUnits="userSpaceOnUse">
<stop stop-color="#AD5F00"/>
<stop offset="1" stop-color="#AD5F00" stop-opacity="0.5"/>
</linearGradient>
<linearGradient id="paint25_linear" x1="23.5" y1="4" x2="23.5" y2="28.5854" gradientUnits="userSpaceOnUse">
<stop stop-color="white"/>
<stop offset="0.911059" stop-color="white" stop-opacity="0.430081"/>
<stop offset="1" stop-color="white" stop-opacity="0"/>
</linearGradient>
<linearGradient id="paint26_linear" x1="20" y1="6" x2="20" y2="19" gradientUnits="userSpaceOnUse">
<stop stop-color="white" stop-opacity="0.6"/>
<stop offset="1" stop-color="white" stop-opacity="0"/>
</linearGradient>
<linearGradient id="paint27_linear" x1="29.7961" y1="5.51163" x2="29.7961" y2="19.3256" gradientUnits="userSpaceOnUse">
<stop stop-color="white" stop-opacity="0.6"/>
<stop offset="1" stop-color="white" stop-opacity="0"/>
</linearGradient>
</defs>
</svg>
