<svg width="24" height="24" viewBox="0 0 24 24" fill="none" xmlns="http://www.w3.org/2000/svg">
<g clip-path="url(#clip0)">
<g opacity="0.4">
<path opacity="0.4" d="M22 21H19V24H22V21Z" fill="url(#paint0_radial)"/>
<path opacity="0.4" d="M2 24H5V21H2V24Z" fill="url(#paint1_radial)"/>
<path opacity="0.4" d="M19 21H5V24H19V21Z" fill="url(#paint2_linear)"/>
</g>
<path d="M3.375 3.75C3.375 2.09315 4.71815 0.75 6.375 0.75H18C19.6569 0.75 21 2.09315 21 3.75V16.875C21 20.1887 18.3137 22.875 15 22.875H6.375C4.71815 22.875 3.375 21.5319 3.375 19.875V3.75Z" fill="url(#paint3_linear)"/>
<path d="M3.5 3.375C3.5 1.99429 4.61929 0.875 6 0.875H18.375C19.7557 0.875 20.875 1.99429 20.875 3.375V16.25C20.875 19.8399 17.9649 22.75 14.375 22.75H6C4.61929 22.75 3.5 21.6307 3.5 20.25V3.375Z" stroke="#AD5F00"/>
<path d="M4.5 4C4.5 2.61929 5.61929 1.5 7 1.5H17C18.3807 1.5 19.5 2.61929 19.5 4V16C19.5 19.5899 16.5899 22.5 13 22.5H7C5.61929 22.5 4.5 21.3807 4.5 20V4Z" stroke="url(#paint4_linear)"/>
<path d="M18 11C16.8965 11 16 11.8965 16 13C16 14.1035 16.8965 15 18 15C19.1035 15 20 14.1035 20 13C20 11.8965 19.1035 11 18 11V11Z" stroke="black" stroke-opacity="0.16"/>
<path d="M18 10.5C16.6203 10.5 15.5 11.6203 15.5 13C15.5 14.3797 16.6203 15.5 18 15.5C19.3797 15.5 20.5 14.3797 20.5 13C20.5 11.6203 19.3797 10.5 18 10.5Z" stroke="black" stroke-opacity="0.07"/>
<path d="M20 13C20 11.8965 19.1035 11 18 11C16.8965 11 16 11.8965 16 13C16 14.1035 16.8965 15 18 15C19.1035 15 20 14.1035 20 13Z" fill="url(#paint5_linear)"/>
<path opacity="0.5" d="M20 12.4999C20 13.3284 19.1045 14 18 14C16.8954 14 16 13.3284 16 12.4999C16 11.6715 16.8954 11 18 11C19.1045 11 20 11.6715 20 12.4999Z" stroke="url(#paint6_linear)" stroke-linecap="round" stroke-linejoin="round"/>
<path opacity="0.5" d="M18 11C16.8965 11 16 11.8965 16 13C16 14.1035 16.8965 15 18 15C19.1035 15 20 14.1035 20 13C20 11.8965 19.1035 11 18 11V11Z" stroke="#7A0000"/>
<path d="M6.90993 11V12.9091H5V15.0909H6.90993V17H9.09007V15.0909H11V12.9091H9.09007V11H6.90993Z" stroke="#E7E7E7" stroke-width="2" stroke-linecap="round" stroke-linejoin="round"/>
<path d="M11 15.0901H9.09091V17H6.90909V15.0901H5V12.9099H6.90909V11H9.09091V12.9099H11V15.0901Z" fill="url(#paint7_linear)"/>
<path opacity="0.2" d="M11 15.0901H9.09091V17H6.90909V15.0901H5V12.9099H6.90909V11H9.09091V12.9099H11V15.0901Z" stroke="url(#paint8_linear)" stroke-width="2" stroke-linecap="round"/>
<path d="M14 13C12.8965 13 12 13.8965 12 15C12 16.1035 12.8965 17 14 17C15.1035 17 16 16.1035 16 15C16 13.8965 15.1035 13 14 13V13Z" stroke="black" stroke-opacity="0.15"/>
<path d="M14 12.5C12.6203 12.5 11.5 13.6203 11.5 15C11.5 16.3797 12.6203 17.5 14 17.5C15.3797 17.5 16.5 16.3797 16.5 15C16.5 13.6203 15.3797 12.5 14 12.5Z" stroke="black" stroke-opacity="0.07"/>
<path d="M16 15C16 13.8965 15.1035 13 14 13C12.8965 13 12 13.8965 12 15C12 16.1035 12.8965 17 14 17C15.1035 17 16 16.1035 16 15Z" fill="url(#paint9_linear)"/>
<path opacity="0.5" d="M16 14.9999C16 16.1045 15.3284 17 14.5 17C13.6716 17 13 16.1045 13 14.9999C13 13.8954 13.6716 13 14.5 13C15.3284 13 16 13.8954 16 14.9999Z" stroke="url(#paint10_linear)" stroke-linecap="round" stroke-linejoin="round"/>
<path opacity="0.5" d="M14 13C12.8965 13 12 13.8965 12 15C12 16.1035 12.8965 17 14 17C15.1035 17 16 16.1035 16 15C16 13.8965 15.1035 13 14 13V13Z" stroke="#7A0000"/>
<path opacity="0.1" d="M8.25 13.875C8.25 13.6679 8.08211 13.5 7.875 13.5C7.66789 13.5 7.5 13.6679 7.5 13.875C7.5 14.0821 7.66789 14.25 7.875 14.25C8.08211 14.25 8.25 14.0821 8.25 13.875Z" fill="url(#paint11_linear)"/>
<rect x="6" y="3" width="12" height="6" fill="#8CC449"/>
</g>
<defs>
<radialGradient id="paint0_radial" cx="0" cy="0" r="1" gradientUnits="userSpaceOnUse" gradientTransform="translate(18.9958 22.5) scale(3.00568 1.5)">
<stop stop-color="#181818"/>
<stop offset="1" stop-color="#181818" stop-opacity="0"/>
</radialGradient>
<radialGradient id="paint1_radial" cx="0" cy="0" r="1" gradientUnits="userSpaceOnUse" gradientTransform="translate(5.00421 22.5) rotate(180) scale(3.00568 1.5)">
<stop stop-color="#181818"/>
<stop offset="1" stop-color="#181818" stop-opacity="0"/>
</radialGradient>
<linearGradient id="paint2_linear" x1="12.529" y1="24.0119" x2="12.529" y2="20.9998" gradientUnits="userSpaceOnUse">
<stop stop-color="#181818" stop-opacity="0"/>
<stop offset="0.5" stop-color="#181818"/>
<stop offset="1" stop-color="#181818" stop-opacity="0"/>
</linearGradient>
<linearGradient id="paint3_linear" x1="12.1875" y1="0.75" x2="12.1875" y2="22.875" gradientUnits="userSpaceOnUse">
<stop stop-color="#C4C4C4"/>
<stop offset="0.0001" stop-color="#FFF394"/>
<stop offset="1" stop-color="#F9C440"/>
</linearGradient>
<linearGradient id="paint4_linear" x1="12" y1="1" x2="12" y2="23" gradientUnits="userSpaceOnUse">
<stop stop-color="white"/>
<stop offset="0.9999" stop-color="white" stop-opacity="0.302083"/>
<stop offset="1" stop-color="white" stop-opacity="0"/>
</linearGradient>
<linearGradient id="paint5_linear" x1="18" y1="11" x2="18" y2="15" gradientUnits="userSpaceOnUse">
<stop stop-color="#ED5353"/>
<stop offset="1" stop-color="#C6262E"/>
</linearGradient>
<linearGradient id="paint6_linear" x1="17.9428" y1="10.9498" x2="17.9428" y2="14.0392" gradientUnits="userSpaceOnUse">
<stop stop-color="white"/>
<stop offset="0.507761" stop-color="white" stop-opacity="0.235294"/>
<stop offset="0.834566" stop-color="white" stop-opacity="0.156863"/>
<stop offset="1" stop-color="white" stop-opacity="0.392157"/>
</linearGradient>
<linearGradient id="paint7_linear" x1="8" y1="16.4596" x2="8" y2="11.5404" gradientUnits="userSpaceOnUse">
<stop stop-color="#4D4D4D"/>
<stop offset="1" stop-color="#252525"/>
</linearGradient>
<linearGradient id="paint8_linear" x1="8" y1="11" x2="8" y2="17" gradientUnits="userSpaceOnUse">
<stop stop-color="white"/>
<stop offset="1" stop-color="white" stop-opacity="0"/>
</linearGradient>
<linearGradient id="paint9_linear" x1="14" y1="13" x2="14" y2="17" gradientUnits="userSpaceOnUse">
<stop stop-color="#ED5353"/>
<stop offset="1" stop-color="#C6262E"/>
</linearGradient>
<linearGradient id="paint10_linear" x1="14.4571" y1="12.933" x2="14.4571" y2="17.0523" gradientUnits="userSpaceOnUse">
<stop stop-color="white"/>
<stop offset="0.507761" stop-color="white" stop-opacity="0.235294"/>
<stop offset="0.834566" stop-color="white" stop-opacity="0.156863"/>
<stop offset="1" stop-color="white" stop-opacity="0.392157"/>
</linearGradient>
<linearGradient id="paint11_linear" x1="7.875" y1="14.25" x2="7.875" y2="13.5" gradientUnits="userSpaceOnUse">
<stop stop-color="white"/>
<stop offset="1" stop-color="white" stop-opacity="0"/>
</linearGradient>
<clipPath id="clip0">
<rect width="24" height="24" fill="white"/>
</clipPath>
</defs>
</svg>
