<svg width="32" height="32" viewBox="0 0 32 32" fill="none" xmlns="http://www.w3.org/2000/svg">
<g clip-path="url(#clip0)">
<g opacity="0.4">
<path opacity="0.4" d="M29 29H25V32H29V29Z" fill="url(#paint0_radial)"/>
<path opacity="0.4" d="M3 32H7V29H3V32Z" fill="url(#paint1_radial)"/>
<path opacity="0.4" d="M25 29H7V32H25V29Z" fill="url(#paint2_linear)"/>
</g>
<path d="M4.5 4C4.5 2.34315 5.84315 1 7.5 1H25C26.6569 1 28 2.34315 28 4V24.5C28 27.8137 25.3137 30.5 22 30.5H7.5C5.84315 30.5 4.5 29.1569 4.5 27.5V4Z" fill="url(#paint3_linear)"/>
<path d="M4.5 3.5C4.5 2.11929 5.61929 1 7 1H25.5C26.8807 1 28 2.11929 28 3.5V25C28 28.0376 25.5376 30.5 22.5 30.5H7C5.61929 30.5 4.5 29.3807 4.5 28V3.5Z" stroke="#AD5F00"/>
<path d="M5 4C5 2.61929 6.11929 1.5 7.5 1.5H25C26.3807 1.5 27.5 2.61929 27.5 4V24.5C27.5 27.5376 25.0376 30 22 30H7.5C6.11929 30 5 28.8807 5 27.5V4Z" stroke="url(#paint4_linear)"/>
<path opacity="0.5" d="M25.5823 21.9839V2.00535C26.3924 1.90669 26.865 3.19748 27 3.85522V25.3137C27 28.5694 24.4346 29.7945 23.1519 30H19C24.3468 27.0402 25.616 23.4227 25.5823 21.9839Z" fill="#D48E15"/>
<path d="M19 18C17.8965 18 17 18.8965 17 20C17 21.1035 17.8965 22 19 22C20.1035 22 21 21.1035 21 20C21 18.8965 20.1035 18 19 18V18Z" stroke="black" stroke-opacity="0.15"/>
<path d="M19 17.5C17.6203 17.5 16.5 18.6203 16.5 20C16.5 21.3797 17.6203 22.5 19 22.5C20.3797 22.5 21.5 21.3797 21.5 20C21.5 18.6203 20.3797 17.5 19 17.5Z" stroke="black" stroke-opacity="0.07"/>
<path d="M24 16C22.8965 16 22 17.1206 22 18.5C22 19.8794 22.8965 21 24 21C25.1035 21 26 19.8794 26 18.5C26 17.1206 25.1035 16 24 16V16Z" stroke="black" stroke-opacity="0.16"/>
<path d="M24 15.5C22.522 15.5 21.5 16.9543 21.5 18.5C21.5 20.0457 22.522 21.5 24 21.5C25.478 21.5 26.5 20.0457 26.5 18.5C26.5 16.9543 25.478 15.5 24 15.5Z" stroke="black" stroke-opacity="0.07"/>
<path d="M21 20C21 18.8965 20.1035 18 19 18C17.8965 18 17 18.8965 17 20C17 21.1035 17.8965 22 19 22C20.1035 22 21 21.1035 21 20Z" fill="url(#paint5_linear)"/>
<path opacity="0.5" d="M21 19.9999C21 21.1045 20.3284 22 19.5 22C18.6716 22 18 21.1045 18 19.9999C18 18.8954 18.6716 18 19.5 18C20.3284 18 21 18.8954 21 19.9999Z" stroke="url(#paint6_linear)" stroke-linecap="round" stroke-linejoin="round"/>
<path opacity="0.5" d="M19 18C17.8965 18 17 18.8965 17 20C17 21.1035 17.8965 22 19 22C20.1035 22 21 21.1035 21 20C21 18.8965 20.1035 18 19 18V18Z" stroke="#7A0000"/>
<path d="M26 18C26 16.8965 25.1035 16 24 16C22.8965 16 22 16.8965 22 18C22 19.1035 22.8965 20 24 20C25.1035 20 26 19.1035 26 18Z" fill="url(#paint7_linear)"/>
<path opacity="0.5" d="M26 17.9999C26 19.1045 25.1045 20 24 20C22.8954 20 22 19.1045 22 17.9999C22 16.8954 22.8954 16 24 16C25.1045 16 26 16.8954 26 17.9999Z" stroke="url(#paint8_linear)" stroke-linecap="round" stroke-linejoin="round"/>
<path opacity="0.5" d="M24 16C22.8965 16 22 16.8965 22 18C22 19.1035 22.8965 20 24 20C25.1035 20 26 19.1035 26 18C26 16.8965 25.1035 16 24 16V16Z" stroke="#7A0000"/>
<path fill-rule="evenodd" clip-rule="evenodd" d="M7 1.5C5.89543 1.5 5 2.39543 5 3.5V28C5 29.1046 5.89543 30 7 30V29.9845C6.01342 29.8615 5.25 29.0199 5.25 28V3.5C5.25 2.48009 6.01342 1.6385 7 1.51547V1.5Z" fill="#C4C4C4"/>
<path d="M14.888 23.4561L12.8347 24.7203C12.6499 24.8342 12.6154 25.1067 12.7578 25.3291L12.7695 25.3473C12.9119 25.5697 13.1772 25.6577 13.362 25.5439L15.4153 24.2797C15.6001 24.1658 15.6346 23.8933 15.4922 23.6709L15.4805 23.6527C15.3381 23.4303 15.0728 23.3423 14.888 23.4561Z" fill="#4D4D4D"/>
<g opacity="0.5">
<mask id="path-20-inside-1" fill="white">
<path d="M14.888 23.4561L12.8347 24.7203C12.6499 24.8342 12.6154 25.1067 12.7578 25.3291L12.7695 25.3473C12.9119 25.5697 13.1772 25.6577 13.362 25.5439L15.4153 24.2797C15.6001 24.1658 15.6346 23.8933 15.4922 23.6709L15.4805 23.6527C15.3381 23.4303 15.0728 23.3423 14.888 23.4561Z"/>
</mask>
<path d="M13.3739 25.5625L15.4272 24.2982L14.3487 22.6139L12.2955 23.8782L13.3739 25.5625ZM15.4272 24.2982C15.224 24.4234 15.0145 24.4111 14.8848 24.3681C14.7577 24.326 14.6754 24.2495 14.629 24.177L16.332 23.1284C15.9955 22.6027 15.1523 22.1191 14.3487 22.6139L15.4272 24.2982ZM14.629 24.177L14.6406 24.1952L16.3437 23.1466L16.332 23.1284L14.629 24.177ZM14.6406 24.1952C14.5942 24.1227 14.5597 24.0168 14.5762 23.8862C14.593 23.753 14.6728 23.5626 14.8761 23.4375L15.9545 25.1218C16.7581 24.627 16.6803 23.6722 16.3437 23.1466L14.6406 24.1952ZM14.8761 23.4375L12.8228 24.7017L13.9013 26.3861L15.9545 25.1218L14.8761 23.4375ZM12.8228 24.7017C13.026 24.5766 13.2355 24.5888 13.3652 24.6319C13.4923 24.674 13.5746 24.7505 13.621 24.823L11.918 25.8716C12.2545 26.3973 13.0977 26.8809 13.9013 26.3861L12.8228 24.7017ZM13.621 24.823L13.6094 24.8048L11.9063 25.8534L11.918 25.8716L13.621 24.823ZM13.6094 24.8048C13.6558 24.8773 13.6903 24.9832 13.6738 25.1138C13.657 25.247 13.5772 25.4374 13.3739 25.5625L12.2955 23.8782C11.4919 24.373 11.5697 25.3278 11.9063 25.8534L13.6094 24.8048Z" fill="url(#paint9_linear)" mask="url(#path-20-inside-1)"/>
</g>
<path d="M15.1532 24.6443L13.7317 25.5292C13.6037 25.6089 13.5799 25.7997 13.6785 25.9554L13.6866 25.9681C13.7852 26.1238 13.9688 26.1854 14.0968 26.1057L15.5183 25.2208C15.6463 25.1411 15.6701 24.9503 15.5715 24.7946L15.5634 24.7819C15.4648 24.6262 15.2812 24.5646 15.1532 24.6443Z" fill="#1A1A1A"/>
<g opacity="0.5">
<mask id="path-23-inside-2" fill="white">
<path d="M15.1532 24.6443L13.7317 25.5292C13.6037 25.6089 13.5799 25.7997 13.6785 25.9554L13.6866 25.9681C13.7852 26.1238 13.9688 26.1854 14.0968 26.1057L15.5183 25.2208C15.6463 25.1411 15.6701 24.9503 15.5715 24.7946L15.5634 24.7819C15.4648 24.6262 15.2812 24.5646 15.1532 24.6443Z"/>
</mask>
<path d="M14.2667 26.3741L15.6882 25.4891L14.6182 23.7994L13.1967 24.6844L14.2667 26.3741ZM15.6882 25.4891C15.4558 25.6338 15.2119 25.6228 15.0511 25.5688C14.8927 25.5157 14.7813 25.4158 14.7145 25.3104L16.4124 24.2534C16.1237 23.7976 15.3664 23.3336 14.6182 23.7994L15.6882 25.4891ZM14.7145 25.3104L14.7226 25.3231L16.4204 24.2661L16.4124 24.2534L14.7145 25.3104ZM14.7226 25.3231C14.6558 25.2177 14.6135 25.0748 14.634 24.9103C14.6549 24.7432 14.7509 24.5206 14.9833 24.3759L16.0533 26.0656C16.8015 25.5998 16.7091 24.7219 16.4204 24.2661L14.7226 25.3231ZM14.9833 24.3759L13.5618 25.2609L14.6318 26.9506L16.0533 26.0656L14.9833 24.3759ZM13.5618 25.2609C13.7942 25.1162 14.0381 25.1272 14.1989 25.1812C14.3573 25.2343 14.4687 25.3342 14.5355 25.4396L12.8376 26.4966C13.1263 26.9524 13.8836 27.4164 14.6318 26.9506L13.5618 25.2609ZM14.5355 25.4396L14.5274 25.4269L12.8296 26.4839L12.8376 26.4966L14.5355 25.4396ZM14.5274 25.4269C14.5942 25.5323 14.6365 25.6752 14.616 25.8397C14.5951 26.0068 14.4991 26.2294 14.2667 26.3741L13.1967 24.6844C12.4485 25.1502 12.5409 26.0281 12.8296 26.4839L14.5274 25.4269Z" fill="url(#paint10_linear)" mask="url(#path-23-inside-2)"/>
</g>
<path d="M19.3541 23.4561L17.3009 24.7203C17.116 24.8342 17.0816 25.1067 17.224 25.3291L17.2357 25.3473C17.3781 25.5697 17.6434 25.6577 17.8282 25.5439L19.8815 24.2797C20.0663 24.1658 20.1007 23.8933 19.9583 23.6709L19.9467 23.6527C19.8043 23.4303 19.539 23.3423 19.3541 23.4561Z" fill="#4D4D4D"/>
<g opacity="0.5">
<mask id="path-26-inside-3" fill="white">
<path d="M19.3541 23.4561L17.3009 24.7203C17.116 24.8342 17.0816 25.1067 17.224 25.3291L17.2357 25.3473C17.3781 25.5697 17.6434 25.6577 17.8282 25.5439L19.8815 24.2797C20.0663 24.1658 20.1007 23.8933 19.9583 23.6709L19.9467 23.6527C19.8043 23.4303 19.539 23.3423 19.3541 23.4561Z"/>
</mask>
<path d="M17.8401 25.5625L19.8934 24.2982L18.8149 22.6139L16.7617 23.8782L17.8401 25.5625ZM19.8934 24.2982C19.6902 24.4234 19.4806 24.4111 19.351 24.3681C19.2239 24.326 19.1416 24.2495 19.0952 24.177L20.7982 23.1284C20.4617 22.6027 19.6185 22.1191 18.8149 22.6139L19.8934 24.2982ZM19.0952 24.177L19.1068 24.1952L20.8099 23.1466L20.7982 23.1284L19.0952 24.177ZM19.1068 24.1952C19.0604 24.1227 19.0259 24.0168 19.0424 23.8862C19.0592 23.753 19.139 23.5626 19.3422 23.4375L20.4207 25.1218C21.2243 24.627 21.1464 23.6722 20.8099 23.1466L19.1068 24.1952ZM19.3422 23.4375L17.289 24.7017L18.3675 26.3861L20.4207 25.1218L19.3422 23.4375ZM17.289 24.7017C17.4922 24.5766 17.7017 24.5888 17.8314 24.6319C17.9585 24.674 18.0408 24.7505 18.0872 24.823L16.3842 25.8716C16.7207 26.3973 17.5639 26.8809 18.3675 26.3861L17.289 24.7017ZM18.0872 24.823L18.0756 24.8048L16.3725 25.8534L16.3842 25.8716L18.0872 24.823ZM18.0756 24.8048C18.122 24.8773 18.1565 24.9832 18.14 25.1138C18.1231 25.247 18.0434 25.4374 17.8401 25.5625L16.7617 23.8782C15.9581 24.373 16.0359 25.3278 16.3725 25.8534L18.0756 24.8048Z" fill="url(#paint11_linear)" mask="url(#path-26-inside-3)"/>
</g>
<path d="M19.6194 24.6443L18.1979 25.5292C18.0699 25.6089 18.0461 25.7997 18.1447 25.9554L18.1528 25.9681C18.2513 26.1238 18.435 26.1854 18.563 26.1057L19.9845 25.2208C20.1124 25.1411 20.1363 24.9503 20.0377 24.7946L20.0296 24.7819C19.931 24.6262 19.7474 24.5646 19.6194 24.6443Z" fill="#1A1A1A"/>
<g opacity="0.5">
<mask id="path-29-inside-4" fill="white">
<path d="M19.6194 24.6443L18.1979 25.5292C18.0699 25.6089 18.0461 25.7997 18.1447 25.9554L18.1528 25.9681C18.2513 26.1238 18.435 26.1854 18.563 26.1057L19.9845 25.2208C20.1124 25.1411 20.1363 24.9503 20.0377 24.7946L20.0296 24.7819C19.931 24.6262 19.7474 24.5646 19.6194 24.6443Z"/>
</mask>
<path d="M18.7329 26.3741L20.1544 25.4891L19.0844 23.7994L17.6629 24.6844L18.7329 26.3741ZM20.1544 25.4891C19.922 25.6338 19.6781 25.6228 19.5172 25.5688C19.3589 25.5157 19.2474 25.4158 19.1807 25.3104L20.8785 24.2534C20.5899 23.7976 19.8326 23.3336 19.0844 23.7994L20.1544 25.4891ZM19.1807 25.3104L19.1888 25.3231L20.8866 24.2661L20.8785 24.2534L19.1807 25.3104ZM19.1888 25.3231C19.122 25.2177 19.0797 25.0748 19.1002 24.9103C19.1211 24.7432 19.2171 24.5206 19.4495 24.3759L20.5195 26.0656C21.2677 25.5998 21.1752 24.7219 20.8866 24.2661L19.1888 25.3231ZM19.4495 24.3759L18.028 25.2609L19.098 26.9506L20.5195 26.0656L19.4495 24.3759ZM18.028 25.2609C18.2604 25.1162 18.5043 25.1272 18.6651 25.1812C18.8235 25.2343 18.9349 25.3342 19.0017 25.4396L17.3038 26.4966C17.5925 26.9524 18.3498 27.4164 19.098 26.9506L18.028 25.2609ZM19.0017 25.4396L18.9936 25.4269L17.2958 26.4839L17.3038 26.4966L19.0017 25.4396ZM18.9936 25.4269C19.0604 25.5323 19.1027 25.6752 19.0822 25.8397C19.0613 26.0068 18.9653 26.2294 18.7329 26.3741L17.6629 24.6844C16.9147 25.1502 17.0071 26.0281 17.2958 26.4839L18.9936 25.4269Z" fill="url(#paint12_linear)" mask="url(#path-29-inside-4)"/>
</g>
<path opacity="0.379121" d="M5.25015 2.33422C5.23905 1.96109 5.84766 1.51603 6.42027 1.50416C7.07699 1.48965 25.7439 1.51778 25.7439 1.51778C25.7439 1.51778 26.8898 1.65508 26.7358 2.61496C21.9053 4.76774 13.0068 12.3462 14.6407 14.8687C19.8215 22.8671 5.26055 28.75 5.26055 28.75C5.26055 28.75 5.27403 3.59826 5.25015 2.33422Z" fill="white"/>
<path d="M9.22825 15V17.2273H7V19.7727H9.22825V22H11.7717V19.7727H14V17.2273H11.7717V15H9.22825Z" stroke="#E7E7E7" stroke-width="2" stroke-linecap="round" stroke-linejoin="round"/>
<path d="M14 19.7717H11.7727V22H9.22727V19.7717H7V17.2282H9.22727V15H11.7727V17.2282H14V19.7717Z" fill="url(#paint13_linear)"/>
<path opacity="0.2" d="M15 20.1351H12.1364V23H8.86364V20.1351H6V16.8649H8.86364V14H12.1364V16.8649H15V20.1351Z" stroke="url(#paint14_linear)" stroke-width="3" stroke-linecap="round"/>
<path opacity="0.1" d="M12 18.5C12 17.6716 11.3284 17 10.5 17C9.67157 17 9 17.6716 9 18.5C9 19.3284 9.67157 20 10.5 20C11.3284 20 12 19.3284 12 18.5Z" fill="url(#paint15_linear)"/>
<path d="M17.5697 28.75H14.9303C14.6926 28.75 14.5 28.9689 14.5 29.239V29.261C14.5 29.5311 14.6926 29.75 14.9303 29.75H17.5697C17.8074 29.75 18 29.5311 18 29.261V29.239C18 28.9689 17.8074 28.75 17.5697 28.75Z" fill="white" fill-opacity="0.7"/>
<path d="M17.5697 28.5H14.9303C14.6926 28.5 14.5 28.7189 14.5 28.989V29.011C14.5 29.2811 14.6926 29.5 14.9303 29.5H17.5697C17.8074 29.5 18 29.2811 18 29.011V28.989C18 28.7189 17.8074 28.5 17.5697 28.5Z" fill="url(#paint16_linear)"/>
<path fill-rule="evenodd" clip-rule="evenodd" d="M14.9303 28.5H17.5697C17.8074 28.5 18 28.7189 18 28.989V29.011C18 29.0978 17.9801 29.1793 17.9452 29.25C17.8715 29.1008 17.731 29 17.5697 29H14.9303C14.769 29 14.6285 29.1008 14.5548 29.25C14.5199 29.1793 14.5 29.0978 14.5 29.011V28.989C14.5 28.7189 14.6926 28.5 14.9303 28.5Z" fill="black" fill-opacity="0.07"/>
<path fill-rule="evenodd" clip-rule="evenodd" d="M14.9303 28.5H17.5697C17.8074 28.5 18 28.7189 18 28.989V29.011C18 29.0503 17.9959 29.0884 17.9883 29.125C17.9431 28.9099 17.7728 28.75 17.5697 28.75H14.9303C14.7272 28.75 14.5569 28.9099 14.5117 29.125C14.5041 29.0884 14.5 29.0503 14.5 29.011V28.989C14.5 28.7189 14.6926 28.5 14.9303 28.5Z" fill="black" fill-opacity="0.15"/>
<path d="M26.4861 27.0585L25.4004 25.0736C25.3027 24.8949 25.1274 24.8025 25.009 24.8673L24.9993 24.8726C24.8808 24.9374 24.864 25.1348 24.9618 25.3135L26.0474 27.2984C26.1451 27.4771 26.3204 27.5694 26.4388 27.5047L26.4485 27.4993C26.567 27.4346 26.5838 27.2372 26.4861 27.0585Z" fill="white" fill-opacity="0.7"/>
<path d="M26.4861 26.5585L25.4004 24.5736C25.3027 24.3949 25.1274 24.3025 25.009 24.3673L24.9993 24.3726C24.8808 24.4374 24.864 24.6348 24.9618 24.8135L26.0474 26.7984C26.1451 26.9771 26.3204 27.0694 26.4388 27.0047L26.4485 26.9993C26.567 26.9346 26.5838 26.7372 26.4861 26.5585Z" fill="url(#paint17_linear)"/>
<path fill-rule="evenodd" clip-rule="evenodd" d="M25.4005 24.5736L26.4861 26.5585C26.5827 26.7352 26.5674 26.9301 26.4525 26.9971L25.4005 25.0736C25.3027 24.8949 25.1275 24.8025 25.009 24.8673L24.9993 24.8726C24.998 24.8734 24.9966 24.8741 24.9953 24.8749L24.9618 24.8135C24.864 24.6348 24.8808 24.4374 24.9993 24.3726L25.009 24.3673C25.1275 24.3025 25.3027 24.3949 25.4005 24.5736Z" fill="black" fill-opacity="0.07"/>
<path fill-rule="evenodd" clip-rule="evenodd" d="M25.4005 24.5736L26.4861 26.5585C26.554 26.6826 26.5666 26.8158 26.5282 26.9073C26.518 26.8744 26.5039 26.8411 26.4861 26.8085L25.4005 24.8236C25.3027 24.6449 25.1275 24.5525 25.009 24.6173L24.9993 24.6226C24.9632 24.6424 24.9365 24.6745 24.9196 24.7147C24.8736 24.5671 24.9025 24.4256 24.9993 24.3726L25.009 24.3673C25.1275 24.3025 25.3027 24.3949 25.4005 24.5736Z" fill="black" fill-opacity="0.15"/>
<path d="M25.5791 27.6084L24.4935 25.6235C24.3958 25.4448 24.2205 25.3525 24.102 25.4172L24.0923 25.4225C23.9739 25.4873 23.9571 25.6847 24.0548 25.8634L25.1405 27.8483C25.2382 28.027 25.4135 28.1194 25.5319 28.0546L25.5416 28.0493C25.6601 27.9845 25.6769 27.7871 25.5791 27.6084Z" fill="white" fill-opacity="0.7"/>
<path d="M25.5791 27.1084L24.4935 25.1235C24.3958 24.9448 24.2205 24.8525 24.102 24.9172L24.0923 24.9225C23.9739 24.9873 23.9571 25.1847 24.0548 25.3634L25.1405 27.3483C25.2382 27.527 25.4135 27.6194 25.5319 27.5546L25.5416 27.5493C25.6601 27.4845 25.6769 27.2871 25.5791 27.1084Z" fill="url(#paint18_linear)"/>
<path fill-rule="evenodd" clip-rule="evenodd" d="M24.4935 25.1235L25.5791 27.1084C25.6757 27.2851 25.6604 27.4801 25.5456 27.547L24.4935 25.6235C24.3957 25.4448 24.2205 25.3525 24.102 25.4172L24.0923 25.4226C24.091 25.4233 24.0897 25.424 24.0884 25.4248L24.0548 25.3634C23.9571 25.1847 23.9739 24.9873 24.0923 24.9226L24.102 24.9172C24.2205 24.8525 24.3957 24.9448 24.4935 25.1235Z" fill="black" fill-opacity="0.07"/>
<path fill-rule="evenodd" clip-rule="evenodd" d="M24.4935 25.1235L25.5791 27.1084C25.647 27.2326 25.6596 27.3658 25.6213 27.4572C25.611 27.4243 25.597 27.391 25.5791 27.3584L24.4935 25.3735C24.3957 25.1948 24.2205 25.1025 24.102 25.1672L24.0923 25.1726C24.0562 25.1923 24.0295 25.2244 24.0126 25.2646C23.9666 25.1171 23.9955 24.9755 24.0923 24.9226L24.102 24.9172C24.2205 24.8525 24.3957 24.9448 24.4935 25.1235Z" fill="black" fill-opacity="0.15"/>
<path d="M24.6722 28.1583L23.5865 26.1734C23.4888 25.9947 23.3135 25.9024 23.1951 25.9672L23.1854 25.9725C23.0669 26.0373 23.0501 26.2347 23.1478 26.4134L24.2335 28.3982C24.3312 28.577 24.5065 28.6693 24.6249 28.6045L24.6346 28.5992C24.7531 28.5344 24.7699 28.337 24.6722 28.1583Z" fill="white" fill-opacity="0.7"/>
<path d="M24.6722 27.6583L23.5865 25.6734C23.4888 25.4947 23.3135 25.4024 23.1951 25.4672L23.1854 25.4725C23.0669 25.5373 23.0501 25.7347 23.1478 25.9134L24.2335 27.8982C24.3312 28.077 24.5065 28.1693 24.6249 28.1045L24.6346 28.0992C24.7531 28.0344 24.7699 27.837 24.6722 27.6583Z" fill="url(#paint19_linear)"/>
<path fill-rule="evenodd" clip-rule="evenodd" d="M23.5865 25.6734L24.6721 27.6583C24.7688 27.835 24.7534 28.03 24.6386 28.097L23.5865 26.1734C23.4888 25.9947 23.3135 25.9024 23.195 25.9672L23.1853 25.9725C23.184 25.9732 23.1827 25.974 23.1814 25.9747L23.1478 25.9134C23.0501 25.7347 23.0669 25.5373 23.1853 25.4725L23.195 25.4672C23.3135 25.4024 23.4888 25.4947 23.5865 25.6734Z" fill="black" fill-opacity="0.07"/>
<path fill-rule="evenodd" clip-rule="evenodd" d="M23.5865 25.6734L24.6721 27.6583C24.74 27.7825 24.7527 27.9157 24.7143 28.0072C24.704 27.9742 24.69 27.941 24.6721 27.9083L23.5865 25.9234C23.4888 25.7447 23.3135 25.6524 23.195 25.7172L23.1853 25.7225C23.1492 25.7422 23.1225 25.7744 23.1057 25.8145C23.0596 25.667 23.0885 25.5254 23.1853 25.4725L23.195 25.4672C23.3135 25.4024 23.4888 25.4947 23.5865 25.6734Z" fill="black" fill-opacity="0.15"/>
<path d="M23.7652 28.7082L22.6795 26.7234C22.5818 26.5446 22.4065 26.4523 22.2881 26.5171L22.2784 26.5224C22.1599 26.5872 22.1431 26.7846 22.2409 26.9633L23.3265 28.9482C23.4242 29.1269 23.5995 29.2192 23.718 29.1544L23.7277 29.1491C23.8461 29.0843 23.8629 28.8869 23.7652 28.7082Z" fill="white" fill-opacity="0.7"/>
<path d="M23.7652 28.2082L22.6795 26.2234C22.5818 26.0446 22.4065 25.9523 22.2881 26.0171L22.2784 26.0224C22.1599 26.0872 22.1431 26.2846 22.2409 26.4633L23.3265 28.4482C23.4242 28.6269 23.5995 28.7192 23.718 28.6544L23.7277 28.6491C23.8461 28.5843 23.8629 28.3869 23.7652 28.2082Z" fill="url(#paint20_linear)"/>
<path fill-rule="evenodd" clip-rule="evenodd" d="M22.6796 26.2234L23.7652 28.2082C23.8618 28.3849 23.8465 28.5799 23.7316 28.6469L22.6796 26.7234C22.5818 26.5447 22.4066 26.4523 22.2881 26.5171L22.2784 26.5224C22.2771 26.5231 22.2758 26.5239 22.2745 26.5246L22.2409 26.4633C22.1432 26.2846 22.16 26.0872 22.2784 26.0224L22.2881 26.0171C22.4066 25.9523 22.5818 26.0447 22.6796 26.2234Z" fill="black" fill-opacity="0.07"/>
<path fill-rule="evenodd" clip-rule="evenodd" d="M22.6796 26.2234L23.7652 28.2082C23.8331 28.3324 23.8457 28.4656 23.8074 28.5571C23.7971 28.5241 23.783 28.4909 23.7652 28.4582L22.6796 26.4734C22.5818 26.2947 22.4066 26.2023 22.2881 26.2671L22.2784 26.2724C22.2423 26.2922 22.2156 26.3243 22.1987 26.3645C22.1527 26.2169 22.1816 26.0754 22.2784 26.0224L22.2881 26.0171C22.4066 25.9523 22.5818 26.0447 22.6796 26.2234Z" fill="black" fill-opacity="0.15"/>
<path d="M22.8582 29.2582L21.7726 27.2733C21.6749 27.0946 21.4996 27.0023 21.3812 27.0671L21.3715 27.0724C21.253 27.1371 21.2362 27.3345 21.3339 27.5132L22.4196 29.4981C22.5173 29.6768 22.6926 29.7692 22.811 29.7044L22.8207 29.6991C22.9392 29.6343 22.956 29.4369 22.8582 29.2582Z" fill="white" fill-opacity="0.7"/>
<path d="M22.8582 28.7582L21.7726 26.7733C21.6749 26.5946 21.4996 26.5023 21.3812 26.5671L21.3715 26.5724C21.253 26.6371 21.2362 26.8345 21.3339 27.0132L22.4196 28.9981C22.5173 29.1768 22.6926 29.2692 22.811 29.2044L22.8207 29.1991C22.9392 29.1343 22.956 28.9369 22.8582 28.7582Z" fill="url(#paint21_linear)"/>
<path fill-rule="evenodd" clip-rule="evenodd" d="M21.7726 26.7733L22.8582 28.7582C22.9549 28.9349 22.9395 29.1298 22.8247 29.1968L21.7726 27.2733C21.6749 27.0946 21.4996 27.0022 21.3811 27.067L21.3714 27.0723C21.3701 27.0731 21.3688 27.0738 21.3675 27.0746L21.3339 27.0132C21.2362 26.8345 21.253 26.6371 21.3714 26.5723L21.3811 26.567C21.4996 26.5022 21.6749 26.5946 21.7726 26.7733Z" fill="black" fill-opacity="0.07"/>
<path fill-rule="evenodd" clip-rule="evenodd" d="M21.7726 26.7733L22.8582 28.7582C22.9261 28.8824 22.9388 29.0155 22.9004 29.107C22.8901 29.0741 22.8761 29.0408 22.8582 29.0082L21.7726 27.0233C21.6749 26.8446 21.4996 26.7522 21.3811 26.817L21.3714 26.8223C21.3353 26.8421 21.3086 26.8742 21.2918 26.9144C21.2457 26.7669 21.2746 26.6253 21.3714 26.5723L21.3811 26.567C21.4996 26.5022 21.6749 26.5946 21.7726 26.7733Z" fill="black" fill-opacity="0.15"/>
<path d="M21.9513 29.8081L20.8656 27.8232C20.7679 27.6445 20.5926 27.5522 20.4742 27.617L20.4645 27.6223C20.346 27.6871 20.3292 27.8845 20.427 28.0632L21.5126 30.0481C21.6103 30.2268 21.7856 30.3191 21.9041 30.2543L21.9137 30.249C22.0322 30.1842 22.049 29.9868 21.9513 29.8081Z" fill="white" fill-opacity="0.7"/>
<path d="M21.9513 29.3081L20.8656 27.3232C20.7679 27.1445 20.5926 27.0522 20.4742 27.117L20.4645 27.1223C20.346 27.1871 20.3292 27.3845 20.427 27.5632L21.5126 29.5481C21.6103 29.7268 21.7856 29.8191 21.9041 29.7543L21.9137 29.749C22.0322 29.6842 22.049 29.4868 21.9513 29.3081Z" fill="url(#paint22_linear)"/>
<path fill-rule="evenodd" clip-rule="evenodd" d="M20.8657 27.3232L21.9513 29.3081C22.0479 29.4848 22.0326 29.6798 21.9177 29.7468L20.8657 27.8232C20.7679 27.6445 20.5927 27.5522 20.4742 27.617L20.4645 27.6223C20.4632 27.623 20.4619 27.6238 20.4606 27.6245L20.427 27.5632C20.3293 27.3845 20.3461 27.1871 20.4645 27.1223L20.4742 27.117C20.5927 27.0522 20.7679 27.1445 20.8657 27.3232Z" fill="black" fill-opacity="0.07"/>
<path fill-rule="evenodd" clip-rule="evenodd" d="M20.8657 27.3232L21.9513 29.3081C22.0192 29.4323 22.0318 29.5655 21.9935 29.657C21.9832 29.624 21.9691 29.5908 21.9513 29.5581L20.8657 27.5732C20.7679 27.3945 20.5927 27.3022 20.4742 27.367L20.4645 27.3723C20.4284 27.3921 20.4017 27.4242 20.3848 27.4643C20.3388 27.3168 20.3677 27.1752 20.4645 27.1223L20.4742 27.117C20.5927 27.0522 20.7679 27.1445 20.8657 27.3232Z" fill="black" fill-opacity="0.15"/>
<rect x="6" y="3" width="19" height="10" fill="#8CC449"/>
</g>
<defs>
<radialGradient id="paint0_radial" cx="0" cy="0" r="1" gradientUnits="userSpaceOnUse" gradientTransform="translate(24.9944 30.5) scale(4.00757 1.5)">
<stop stop-color="#181818"/>
<stop offset="1" stop-color="#181818" stop-opacity="0"/>
</radialGradient>
<radialGradient id="paint1_radial" cx="0" cy="0" r="1" gradientUnits="userSpaceOnUse" gradientTransform="translate(7.00562 30.5) rotate(180) scale(4.00757 1.5)">
<stop stop-color="#181818"/>
<stop offset="1" stop-color="#181818" stop-opacity="0"/>
</radialGradient>
<linearGradient id="paint2_linear" x1="16.6802" y1="32.0119" x2="16.6802" y2="28.9998" gradientUnits="userSpaceOnUse">
<stop stop-color="#181818" stop-opacity="0"/>
<stop offset="0.5" stop-color="#181818"/>
<stop offset="1" stop-color="#181818" stop-opacity="0"/>
</linearGradient>
<linearGradient id="paint3_linear" x1="16.25" y1="1" x2="16.25" y2="30.5" gradientUnits="userSpaceOnUse">
<stop stop-color="#C4C4C4"/>
<stop offset="0.0001" stop-color="#FFF394"/>
<stop offset="1" stop-color="#F9C440"/>
</linearGradient>
<linearGradient id="paint4_linear" x1="16.25" y1="1" x2="16.25" y2="30.5" gradientUnits="userSpaceOnUse">
<stop stop-color="white"/>
<stop offset="0.9999" stop-color="white" stop-opacity="0.302083"/>
<stop offset="1" stop-color="white" stop-opacity="0"/>
</linearGradient>
<linearGradient id="paint5_linear" x1="19" y1="18" x2="19" y2="22" gradientUnits="userSpaceOnUse">
<stop stop-color="#ED5353"/>
<stop offset="1" stop-color="#C6262E"/>
</linearGradient>
<linearGradient id="paint6_linear" x1="19.4571" y1="17.933" x2="19.4571" y2="22.0523" gradientUnits="userSpaceOnUse">
<stop stop-color="white"/>
<stop offset="0.507761" stop-color="white" stop-opacity="0.235294"/>
<stop offset="0.834566" stop-color="white" stop-opacity="0.156863"/>
<stop offset="1" stop-color="white" stop-opacity="0.392157"/>
</linearGradient>
<linearGradient id="paint7_linear" x1="24" y1="16" x2="24" y2="20" gradientUnits="userSpaceOnUse">
<stop stop-color="#ED5353"/>
<stop offset="1" stop-color="#C6262E"/>
</linearGradient>
<linearGradient id="paint8_linear" x1="23.9428" y1="15.933" x2="23.9428" y2="20.0523" gradientUnits="userSpaceOnUse">
<stop stop-color="white"/>
<stop offset="0.507761" stop-color="white" stop-opacity="0.235294"/>
<stop offset="0.834566" stop-color="white" stop-opacity="0.156863"/>
<stop offset="1" stop-color="white" stop-opacity="0.392157"/>
</linearGradient>
<linearGradient id="paint9_linear" x1="13.8136" y1="24.0984" x2="14.3415" y2="24.9558" gradientUnits="userSpaceOnUse">
<stop stop-color="white"/>
<stop offset="0.507761" stop-color="white" stop-opacity="0.235294"/>
<stop offset="0.834566" stop-color="white" stop-opacity="0.156863"/>
<stop offset="1" stop-color="white" stop-opacity="0.392157"/>
</linearGradient>
<linearGradient id="paint10_linear" x1="14.4094" y1="25.0939" x2="14.7808" y2="25.6904" gradientUnits="userSpaceOnUse">
<stop stop-color="white"/>
<stop offset="0.507761" stop-color="white" stop-opacity="0.235294"/>
<stop offset="0.834566" stop-color="white" stop-opacity="0.156863"/>
<stop offset="1" stop-color="white" stop-opacity="0.392157"/>
</linearGradient>
<linearGradient id="paint11_linear" x1="18.2798" y1="24.0984" x2="18.8077" y2="24.9558" gradientUnits="userSpaceOnUse">
<stop stop-color="white"/>
<stop offset="0.507761" stop-color="white" stop-opacity="0.235294"/>
<stop offset="0.834566" stop-color="white" stop-opacity="0.156863"/>
<stop offset="1" stop-color="white" stop-opacity="0.392157"/>
</linearGradient>
<linearGradient id="paint12_linear" x1="18.8756" y1="25.0939" x2="19.247" y2="25.6904" gradientUnits="userSpaceOnUse">
<stop stop-color="white"/>
<stop offset="0.507761" stop-color="white" stop-opacity="0.235294"/>
<stop offset="0.834566" stop-color="white" stop-opacity="0.156863"/>
<stop offset="1" stop-color="white" stop-opacity="0.392157"/>
</linearGradient>
<linearGradient id="paint13_linear" x1="10.5" y1="21.3695" x2="10.5" y2="15.6305" gradientUnits="userSpaceOnUse">
<stop stop-color="#4D4D4D"/>
<stop offset="1" stop-color="#252525"/>
</linearGradient>
<linearGradient id="paint14_linear" x1="10.5" y1="14" x2="10.5" y2="23" gradientUnits="userSpaceOnUse">
<stop stop-color="white"/>
<stop offset="1" stop-color="white" stop-opacity="0"/>
</linearGradient>
<linearGradient id="paint15_linear" x1="10.5" y1="20" x2="10.5" y2="17" gradientUnits="userSpaceOnUse">
<stop stop-color="white"/>
<stop offset="1" stop-color="white" stop-opacity="0"/>
</linearGradient>
<linearGradient id="paint16_linear" x1="16.25" y1="28.5" x2="16.25" y2="29.5" gradientUnits="userSpaceOnUse">
<stop stop-color="#D48E15"/>
<stop offset="1" stop-color="#D48E15" stop-opacity="0.5"/>
</linearGradient>
<linearGradient id="paint17_linear" x1="25" y1="24.375" x2="26.5" y2="27" gradientUnits="userSpaceOnUse">
<stop stop-color="#AD5F00"/>
<stop offset="1" stop-color="#AD5F00" stop-opacity="0.5"/>
</linearGradient>
<linearGradient id="paint18_linear" x1="24.0931" y1="24.9249" x2="25.5931" y2="27.5499" gradientUnits="userSpaceOnUse">
<stop stop-color="#AD5F00"/>
<stop offset="1" stop-color="#AD5F00" stop-opacity="0.5"/>
</linearGradient>
<linearGradient id="paint19_linear" x1="23.1861" y1="25.4749" x2="24.6861" y2="28.0999" gradientUnits="userSpaceOnUse">
<stop stop-color="#AD5F00"/>
<stop offset="1" stop-color="#AD5F00" stop-opacity="0.5"/>
</linearGradient>
<linearGradient id="paint20_linear" x1="22.2791" y1="26.0248" x2="23.7791" y2="28.6498" gradientUnits="userSpaceOnUse">
<stop stop-color="#AD5F00"/>
<stop offset="1" stop-color="#AD5F00" stop-opacity="0.5"/>
</linearGradient>
<linearGradient id="paint21_linear" x1="21.3722" y1="26.5747" x2="22.8722" y2="29.1997" gradientUnits="userSpaceOnUse">
<stop stop-color="#AD5F00"/>
<stop offset="1" stop-color="#AD5F00" stop-opacity="0.5"/>
</linearGradient>
<linearGradient id="paint22_linear" x1="20.4652" y1="27.1247" x2="21.9652" y2="29.7497" gradientUnits="userSpaceOnUse">
<stop stop-color="#AD5F00"/>
<stop offset="1" stop-color="#AD5F00" stop-opacity="0.5"/>
</linearGradient>
<clipPath id="clip0">
<rect width="32" height="32" fill="white"/>
</clipPath>
</defs>
</svg>
