<?xml version="1.0" encoding="UTF-8"?>
<svg width="32px" height="32px" viewBox="0 0 32 32" version="1.1" xmlns="http://www.w3.org/2000/svg" xmlns:xlink="http://www.w3.org/1999/xlink">
    <title>32x32/com.github.avojak.replay</title>
    <defs>
        <radialGradient cx="50%" cy="40.1050202%" fx="50%" fy="40.1050202%" r="51.3996832%" gradientTransform="translate(0.500000,0.401050),scale(0.250000,1.000000),rotate(-90.000000),scale(1.000000,3.190320),translate(-0.500000,-0.401050)" id="radialGradient-1">
            <stop stop-color="#181818" stop-opacity="0" offset="0%"></stop>
            <stop stop-color="#181818" stop-opacity="0.49685861" offset="50%"></stop>
            <stop stop-color="#181818" stop-opacity="0" offset="100%"></stop>
        </radialGradient>
        <linearGradient x1="74.6673871%" y1="-31.6516711%" x2="74.6673871%" y2="99.7890627%" id="linearGradient-2">
            <stop stop-color="#E7C591" offset="0%"></stop>
            <stop stop-color="#CFA25E" offset="100%"></stop>
        </linearGradient>
        <linearGradient x1="52.0106933%" y1="61.7538138%" x2="65.4116409%" y2="44.1312508%" id="linearGradient-3">
            <stop stop-color="#FFFFFF" stop-opacity="0.462194056" offset="0%"></stop>
            <stop stop-color="#FFFFFF" stop-opacity="0" offset="28.6030376%"></stop>
            <stop stop-color="#FFFFFF" stop-opacity="0" offset="100%"></stop>
        </linearGradient>
        <path d="M20.534978,3.32227048 L30.013084,8.62590751 L27.113158,10.9108481 C26.7968147,11.1601046 26.3618171,11.1952644 26.0095485,11.00005 L18.2351881,6.69178444 C17.7521191,6.42408532 17.5775273,5.81546754 17.8452265,5.33239857 C17.9187353,5.19975018 18.0214516,5.08555845 18.1456033,4.99846362 L20.534978,3.32227048 L20.534978,3.32227048 Z" id="path-4"></path>
        <path d="M5.50445494,3.32200411 L14.9825609,8.62564114 L12.0826348,10.9105818 C11.7662916,11.1598383 11.331294,11.194998 10.9790254,10.9997836 L3.20466497,6.69151806 C2.721596,6.42381895 2.54700424,5.81520116 2.81470335,5.3321322 C2.88821223,5.19948381 2.99092848,5.08529208 3.11508016,4.99819725 L5.50445494,3.32200411 L5.50445494,3.32200411 Z" id="path-5"></path>
        <linearGradient x1="50%" y1="0%" x2="50%" y2="100%" id="linearGradient-6">
            <stop stop-color="#B6802E" offset="0%"></stop>
            <stop stop-color="#804B00" offset="100%"></stop>
        </linearGradient>
        <linearGradient x1="50%" y1="0%" x2="50%" y2="100%" id="linearGradient-7">
            <stop stop-color="#C4C4C4" offset="0%"></stop>
            <stop stop-color="#FFF394" offset="0.01%"></stop>
            <stop stop-color="#F9C440" offset="100%"></stop>
        </linearGradient>
        <linearGradient x1="50%" y1="90.9949099%" x2="50%" y2="9.00734007%" id="linearGradient-8">
            <stop stop-color="#4D4D4D" offset="0%"></stop>
            <stop stop-color="#252525" offset="100%"></stop>
        </linearGradient>
        <linearGradient x1="50%" y1="75%" x2="50%" y2="25%" id="linearGradient-9">
            <stop stop-color="#FFFFFF" offset="0%"></stop>
            <stop stop-color="#FFFFFF" stop-opacity="0" offset="100%"></stop>
        </linearGradient>
        <radialGradient cx="50.0002688%" cy="82.0000154%" fx="50.0002688%" fy="82.0000154%" r="119.845587%" gradientTransform="translate(0.500003,0.820000),scale(0.785714,1.000000),rotate(90.000000),translate(-0.500003,-0.820000)" id="radialGradient-10">
            <stop stop-color="#F4F4F4" offset="0%"></stop>
            <stop stop-color="#D0D0D0" offset="100%"></stop>
        </radialGradient>
        <linearGradient x1="49.9999794%" y1="-1.35135823%" x2="49.9999794%" y2="101.351374%" id="linearGradient-11">
            <stop stop-color="#FFFFFF" offset="0%"></stop>
            <stop stop-color="#FFFFFF" stop-opacity="0.23529412" offset="6.316455%"></stop>
            <stop stop-color="#FFFFFF" stop-opacity="0.15686275" offset="95.056331%"></stop>
            <stop stop-color="#FFFFFF" stop-opacity="0.39215687" offset="100%"></stop>
        </linearGradient>
        <linearGradient x1="74.630289%" y1="1.74963098%" x2="74.630289%" y2="98.2502786%" id="linearGradient-12">
            <stop stop-color="#E7C591" offset="0%"></stop>
            <stop stop-color="#CFA25E" offset="100%"></stop>
        </linearGradient>
        <linearGradient x1="50%" y1="0%" x2="50%" y2="100%" id="linearGradient-13">
            <stop stop-color="#FFFFFF" stop-opacity="0.353802448" offset="0%"></stop>
            <stop stop-color="#FFFFFF" stop-opacity="0.15" offset="100%"></stop>
        </linearGradient>
        <path d="M25,12.0726131 L25,22.5349311 C25,23.30716 24.5554243,24.0103946 23.8578365,24.3416177 L23.8578365,24.3416177 L17.4289183,27.3941455 C17.2948866,27.4577854 17.1483729,27.4908022 17,27.4908022 C16.9726892,27.4908022 16.9456341,27.4897074 16.9188763,27.4875592 C16.3171447,27.649093 15.680537,27.6492104 15.078339,27.4875268 L15,27.4908022 L15,27.4908022 C14.8516271,27.4908022 14.7051134,27.4577854 14.5710817,27.3941455 L8.14216345,24.3416177 C7.44457567,24.0103946 7,23.30716 7,22.5349311 L7,12.0726131 L16,16.7632898 L25,12.0726131 Z" id="path-14"></path>
        <linearGradient x1="74.630289%" y1="1.74963098%" x2="74.630289%" y2="98.2502786%" id="linearGradient-15">
            <stop stop-color="#000000" stop-opacity="0.05" offset="0%"></stop>
            <stop stop-color="#000000" stop-opacity="0.102928322" offset="100%"></stop>
        </linearGradient>
        <linearGradient x1="74.6673871%" y1="-31.6516711%" x2="74.6673871%" y2="99.7890627%" id="linearGradient-16">
            <stop stop-color="#E7C591" offset="0%"></stop>
            <stop stop-color="#CFA25E" offset="100%"></stop>
        </linearGradient>
        <linearGradient x1="53.4203919%" y1="34.5235851%" x2="34.9015566%" y2="62.206117%" id="linearGradient-17">
            <stop stop-color="#FFFFFF" stop-opacity="0.462194056" offset="0%"></stop>
            <stop stop-color="#FFFFFF" stop-opacity="0" offset="28.6030376%"></stop>
            <stop stop-color="#FFFFFF" stop-opacity="0" offset="100%"></stop>
        </linearGradient>
        <path d="M20.7427114,12.071386 L30.1343928,16.7891562 L27.7409991,19.8024944 C27.1534328,20.5422542 26.128371,20.7699927 25.2828365,20.3486259 L18.2429252,16.8403305 C17.7486197,16.5939964 17.5475991,15.9935894 17.7939331,15.4992838 C17.8319337,15.4230301 17.8795232,15.3519453 17.9355454,15.2877567 L20.7427114,12.071386 L20.7427114,12.071386 Z" id="path-18"></path>
        <path d="M5.76016384,12.071386 L15.1518452,16.7891562 L12.7584516,19.8024944 C12.1708852,20.5422542 11.1458234,20.7699927 10.3002889,20.3486259 L3.26037764,16.8403305 C2.76607209,16.5939964 2.56505148,15.9935894 2.81138554,15.4992838 C2.84938608,15.4230301 2.89697565,15.3519453 2.95299784,15.2877567 L5.76016384,12.071386 L5.76016384,12.071386 Z" id="path-19"></path>
    </defs>
    <g id="32x32/com.github.avojak.replay" stroke="none" stroke-width="1" fill="none" fill-rule="evenodd">
        <rect id="Base-Shadow-Middle" fill="url(#radialGradient-1)" fill-rule="nonzero" opacity="0.35" x="0" y="22.0726131" width="32" height="8"></rect>
        <g id="Rectangle" fill-rule="nonzero" transform="translate(23.424849, 7.322270) scale(-1, -1) rotate(-3.000000) translate(-23.424849, -7.322270) ">
            <use fill="url(#linearGradient-2)" xlink:href="#path-4"></use>
            <path stroke="#9F702A" stroke-width="1" d="M20.4957682,2.72737367 L30.9106856,8.5552197 L27.4226066,11.3035841 C27.1853492,11.4905265 26.9035964,11.5971825 26.6151076,11.6205003 C26.3266187,11.6438181 26.0313939,11.5837977 25.7671924,11.4373869 L25.7671924,11.4373869 L17.992832,7.12912131 C17.6305303,6.92834697 17.3839075,6.59972813 17.2780538,6.23072745 C17.1622941,5.82719547 17.2148828,5.3753701 17.4686333,4.98963789 L17.4686333,4.98963789 L20.4957682,2.72737367 Z"></path>
            <path stroke="url(#linearGradient-3)" stroke-width="1" d="M20.5741879,3.91716729 L29.1154823,8.69659533 L26.8037093,10.5181122 L18.4775441,6.25444757 L20.5741879,3.91716729 Z" stroke-linejoin="square"></path>
        </g>
        <g id="Rectangle" fill-rule="nonzero" transform="translate(8.394326, 7.322004) scale(1, -1) rotate(-4.000000) translate(-8.394326, -7.322004) ">
            <use fill="url(#linearGradient-2)" xlink:href="#path-5"></use>
            <path stroke="#9F702A" stroke-width="1" d="M5.46524505,2.7271073 L15.8801625,8.55495332 L12.3920835,11.3033177 C12.1548261,11.4902601 11.8730733,11.5969162 11.5845845,11.620234 C11.2960956,11.6435518 11.0008708,11.5835313 10.7366693,11.4371205 L10.7366693,11.4371205 L2.9623089,7.12885494 C2.60000718,6.9280806 2.3533844,6.59946176 2.24753064,6.23046108 C2.13177103,5.8269291 2.18435968,5.37510373 2.43811021,4.98937152 L2.43811021,4.98937152 L5.46524505,2.7271073 Z"></path>
            <path stroke="url(#linearGradient-3)" stroke-width="1" d="M5.54366482,3.91690092 L14.0849592,8.69632896 L11.7731862,10.5178458 L3.44702103,6.25418119 L5.54366482,3.91690092 Z" stroke-linejoin="square"></path>
        </g>
        <path d="M14.2111456,6.96704029 C15.3372556,6.40398531 16.6627444,6.40398531 17.7888544,6.96704029 L26,11.0726131 L16,16.0726131 L6,11.0726131 L14.2111456,6.96704029 Z" id="Combined-Shape" stroke-opacity="0.8" stroke="#804B00" fill="url(#linearGradient-6)"></path>
        <g id="com.github.avojak.vee-4" transform="translate(21.000000, 8.572613) rotate(-165.000000) translate(-21.000000, -8.572613) translate(16.000000, 2.072613)">
            <path d="M2.55908811e-13,0.881355932 C2.55908811e-13,0.394596271 0.381038298,2.00355576e-13 0.85106383,2.00355576e-13 L9.14893617,2.00355576e-13 C9.61897872,2.00355576e-13 10,0.394596271 10,0.881355932 L10,10.3559322 C10,11.8162508 8.85693617,13 7.44680851,13 L0.85106383,13 C0.381038298,13 2.55908811e-13,12.6054169 2.55908811e-13,12.1186441 L2.55908811e-13,0.881355932 Z" id="Path" fill="url(#linearGradient-7)" fill-rule="nonzero"></path>
            <path d="M2.55908811e-13,1.36842105 C2.55908811e-13,0.612660351 0.596951111,2.00355576e-13 1.33333333,2.00355576e-13 L8.66666667,2.00355576e-13 C9.40302222,2.00355576e-13 10,0.612660351 10,1.36842105 L10,9.80701754 C10,11.5704561 8.60711111,13 6.88888889,13 L1.33333333,13 C0.596951111,13 2.55908811e-13,12.3873123 2.55908811e-13,11.6315789 L2.55908811e-13,1.36842105 Z" id="Path" stroke="#834800"></path>
            <polygon id="Path" fill="url(#linearGradient-8)" fill-rule="nonzero" points="4.23163204 8.48620732 2.95891204 8.48620732 2.95891204 9.75942005 1.50436204 9.75942005 1.50436204 8.48620732 0.231632044 8.48620732 0.231632044 7.03272278 1.50436204 7.03272278 1.50436204 5.75942005 2.95891204 5.75942005 2.95891204 7.03272278 4.23163204 7.03272278"></polygon>
            <path d="M2.12807865,8.37179248 C2.12807865,8.23372248 2.01614865,8.12179248 1.87807865,8.12179248 C1.74000865,8.12179248 1.62807865,8.23372248 1.62807865,8.37179248 C1.62807865,8.50986248 1.74000865,8.62179248 1.87807865,8.62179248 C2.01614865,8.62179248 2.12807865,8.50986248 2.12807865,8.37179248 Z" id="Path" fill="url(#linearGradient-9)" fill-rule="nonzero" opacity="0.1"></path>
            <circle id="Oval" fill="#D93C40" fill-rule="nonzero" cx="5.29349422" cy="9.527187" r="1.5"></circle>
            <circle id="Oval" fill="#D93C40" fill-rule="nonzero" cx="7.93245266" cy="7.78480404" r="1.5"></circle>
            <rect id="Rectangle" fill="#8CC449" fill-rule="nonzero" x="1.07709626" y="0.989850085" width="7" height="4"></rect>
        </g>
        <g id="input-gaming-3" transform="translate(11.857140, 10.590461) rotate(-109.000000) translate(-11.857140, -10.590461) translate(4.357140, 4.590461)">
            <rect id="rect5505" fill="url(#radialGradient-10)" fill-rule="nonzero" transform="translate(7.500000, 6.000000) scale(-1, 1) rotate(-180.000000) translate(-7.500000, -6.000000) " x="0.5" y="0.5000003" width="14" height="11" rx="0.5"></rect>
            <rect id="rect5505-21" stroke="#000000" stroke-width="0.99999988" opacity="0.4" stroke-linecap="round" stroke-linejoin="round" x="0" y="0" width="15" height="12" rx="1"></rect>
            <rect id="rect4439" fill="#FFFFFF" fill-rule="nonzero" opacity="0.3" x="1.5" y="3.5325623" width="12" height="8" rx="1"></rect>
            <rect id="rect6741-2" stroke="url(#linearGradient-11)" stroke-linecap="round" stroke-linejoin="round" x="1" y="1.000002" width="13" height="10" rx="0.5"></rect>
            <rect id="rect4263" fill="#575757" fill-rule="nonzero" x="1.5" y="2.5325623" width="12" height="8" rx="0.99999988"></rect>
            <rect id="rect4265" stroke="#000000" opacity="0.1" stroke-linecap="round" x="1.9999998" y="3.0325623" width="11" height="7" rx="0.5"></rect>
            <line x1="1.5" y1="3.0325623" x2="13.5" y2="3.0325623" id="path4441" stroke="#000000" opacity="0.2"></line>
            <g id="g6799" transform="translate(8.500000, 5.532562)" fill-rule="nonzero">
                <rect id="rect6623" fill="#C3C3C3" x="0" y="0" width="4" height="4" rx="0.33333334"></rect>
                <circle id="circle6625" stroke="#BC0000" stroke-width="0.5" fill="#FF0000" stroke-linecap="round" transform="translate(2.000000, 2.000000) scale(-1, 1) rotate(-90.000000) translate(-2.000000, -2.000000) " cx="2" cy="2" r="1"></circle>
            </g>
            <polygon id="rect6879" stroke="#A4A4A4" fill="#1A1A1A" fill-rule="nonzero" stroke-linecap="round" stroke-linejoin="round" points="4.5 5.5325623 4.5 6.5325623 3.5 6.5325623 3.5 7.5325623 4.5 7.5325623 4.5 8.5325623 5.5 8.5325623 5.5 7.5325623 6.5 7.5325623 6.5 6.5325623 5.5 6.5325623 5.5 5.5325623"></polygon>
            <polygon id="path6884" fill="#272727" fill-rule="nonzero" points="4.5 5.5325623 4.5 6.5325623 3.5 6.5325623 3.5 7.5325623 4.5 7.5325623 4.5 8.5325623 5.5 8.5325623 5.5 7.5325623 6.5 7.5325623 6.5 6.5325623 5.5 6.5325623 5.5 5.5325623"></polygon>
        </g>
        <g id="Combined-Shape" fill-rule="nonzero" transform="translate(16.000000, 19.840656) scale(-1, 1) translate(-16.000000, -19.840656) ">
            <use fill="url(#linearGradient-12)" xlink:href="#path-14"></use>
            <path stroke-opacity="0.65" stroke="#804B00" stroke-width="1" d="M25.5,11.2481859 L25.5,22.5349311 C25.5,23.4385333 25.0129995,24.266514 24.2355461,24.7083007 L24.2355461,24.7083007 L17.5946583,27.8690051 C16.3078643,28.1693774 15.5930393,28.1504636 14.9079484,27.9592702 L14.9079484,27.9592702 L7.92770432,24.7932894 C7.49171195,24.5862749 7.13478587,24.2630069 6.88685788,23.8708317 C6.6389299,23.4786565 6.5,23.0175742 6.5,22.5349311 L6.5,22.5349311 L6.5,11.2481859 L16,16.1994557 L25.5,11.2481859 Z"></path>
            <path stroke="url(#linearGradient-13)" stroke-width="1" d="M24.5,12.8970403 L24.5,22.5349311 C24.5,23.0663303 24.2193391,23.5542149 23.7688698,23.8229277 L23.7688698,23.8229277 L17.2640856,26.9188541 C16.3238494,27.1304573 15.7664607,27.1466516 15.2460476,27.0145679 L15.2460476,27.0145679 L8.35662259,23.8899461 C8.09502717,23.7657374 7.88087152,23.5717766 7.73211473,23.3364715 C7.58335794,23.1011663 7.5,22.8245169 7.5,22.5349311 L7.5,22.5349311 L7.5,12.8970403 L16,17.3271238 L24.5,12.8970403 Z" stroke-linejoin="square"></path>
        </g>
        <polygon id="Rectangle" fill-opacity="0.500737544" fill="#000000" fill-rule="nonzero" opacity="0.496000744" points="11.5 20.5726131 15 22.2536586 15 26.5726131 11.5 24.9172334"></polygon>
        <path d="M5.5,11.0726131 L15.5,16.056457 L15.5,28.0726131 L10.1926341,25.6628619 C7.3350276,24.3653971 5.5,21.5169053 5.5,18.378541 L5.5,11.0726131 L5.5,11.0726131 Z" id="Rectangle" fill="url(#linearGradient-15)" fill-rule="nonzero"></path>
        <g id="Rectangle" fill-rule="nonzero" transform="translate(23.609393, 16.571386) scale(-1, 1) rotate(-1.000000) translate(-23.609393, -16.571386) ">
            <use fill="url(#linearGradient-16)" xlink:href="#path-18"></use>
            <path stroke="#9F702A" stroke-width="1" d="M20.6182728,11.4493361 L30.9084877,16.6184711 L28.1325262,20.1134712 C27.7652972,20.5758211 27.2613509,20.8781643 26.7170971,20.9990815 C26.1728433,21.1199987 25.5882819,21.0594899 25.0598228,20.7961356 L25.0598228,20.7961356 L18.0199116,17.2878401 C17.6491824,17.1030896 17.3884351,16.7855617 17.2665577,16.4215391 C17.1380116,16.0375983 17.1639482,15.6019355 17.378262,15.215786 L17.378262,15.215786 L20.6182728,11.4493361 Z"></path>
            <path stroke="url(#linearGradient-17)" stroke-width="1" d="M20.8671501,12.693436 L29.3602978,16.9598413 L27.3494721,19.4915176 C27.1291347,19.7689275 26.8267669,19.9503334 26.5002146,20.0228838 C26.1736624,20.0954341 25.8229256,20.0591288 25.5058501,19.9011162 L25.5058501,19.9011162 L18.4659389,16.3928208 L20.8671501,12.693436 Z" stroke-linejoin="square"></path>
        </g>
        <line x1="15.75" y1="16.8226131" x2="15.75" y2="27.8226131" id="Line-5" stroke-opacity="0.15" stroke="#FFFFFF" opacity="0.564011347"></line>
        <line x1="16.25" y1="16.8226131" x2="16.25" y2="27.8226131" id="Line-5" stroke-opacity="0.15" stroke="#FFFFFF" opacity="0.564011347"></line>
        <g id="Rectangle" fill-rule="nonzero" transform="translate(8.626845, 16.571386) rotate(-1.000000) translate(-8.626845, -16.571386) ">
            <use fill="url(#linearGradient-16)" xlink:href="#path-19"></use>
            <path stroke="#9F702A" stroke-width="1" d="M5.63572521,11.4493361 L15.9259401,16.6184711 L13.1499786,20.1134712 C12.7827496,20.5758211 12.2788033,20.8781643 11.7345495,20.9990815 C11.1902957,21.1199987 10.6057343,21.0594899 10.0772752,20.7961356 L10.0772752,20.7961356 L3.037364,17.2878401 C2.66663484,17.1030896 2.40588753,16.7855617 2.28401015,16.4215391 C2.15546398,16.0375983 2.18140064,15.6019355 2.39571441,15.215786 L2.39571441,15.215786 L5.63572521,11.4493361 Z"></path>
            <path stroke="url(#linearGradient-17)" stroke-width="1" d="M5.88460246,12.693436 L14.3777502,16.9598413 L12.3669245,19.4915176 C12.1465871,19.7689275 11.8442193,19.9503334 11.5176671,20.0228838 C11.1911148,20.0954341 10.840378,20.0591288 10.5233025,19.9011162 L10.5233025,19.9011162 L3.48339127,16.3928208 L5.88460246,12.693436 Z" stroke-linejoin="square"></path>
        </g>
        <g id="Group-2" opacity="0.504975818" transform="translate(10.750000, 17.239280) rotate(-26.000000) translate(-10.750000, -17.239280) translate(8.500000, 15.739280)" fill="#000000">
            <rect id="Rectangle" x="4" y="1.5" width="1" height="1.25"></rect>
            <rect id="Rectangle" x="3.25" y="0.75" width="1" height="1.75"></rect>
            <rect id="Rectangle" x="2.5" y="2.5" width="1" height="1"></rect>
            <rect id="Rectangle" x="1.25" y="2.5" width="1" height="1"></rect>
            <rect id="Rectangle" x="1" y="0.75" width="1" height="1.75"></rect>
            <rect id="Rectangle" x="1.25" y="1.5" width="1" height="1"></rect>
            <rect id="Rectangle-Copy-7" x="0.5" y="1" width="1" height="1"></rect>
            <rect id="Rectangle-Copy-9" x="3.5" y="1" width="1" height="1"></rect>
            <rect id="Rectangle-Copy-8" x="0" y="1.5" width="1" height="1.25"></rect>
            <rect id="Rectangle-Copy-6" x="2.5" y="1.5" width="1" height="1"></rect>
            <rect id="Rectangle" x="1.25" y="0.5" width="1" height="1"></rect>
            <rect id="Rectangle-Copy-4" x="2.75" y="0.5" width="1" height="1"></rect>
            <rect id="Rectangle-Copy-5" x="3.25" y="0" width="1" height="1"></rect>
            <rect id="Rectangle" x="0.75" y="0" width="1" height="1"></rect>
            <rect id="Rectangle" x="1.75" y="0.75" width="1" height="1.5"></rect>
        </g>
    </g>
</svg>