<svg width="127" height="128" viewBox="0 0 127 128" fill="none" xmlns="http://www.w3.org/2000/svg">
<path opacity="0.2" d="M119 122.001C118.998 123.592 113.202 125.118 102.888 126.243C92.5733 127.368 78.5853 128 64 128C49.4147 128 35.4267 127.368 25.1124 126.243C14.7982 125.118 9.00249 123.592 9 122.001C8.99877 121.213 10.4205 120.433 13.1839 119.705C15.9474 118.977 19.9985 118.315 25.1058 117.758C30.2132 117.2 36.2767 116.758 42.9502 116.457C49.6238 116.155 56.7765 116 64 116C71.2235 116 78.3762 116.155 85.0498 116.457C91.7233 116.758 97.7868 117.2 102.894 117.758C108.002 118.315 112.053 118.977 114.816 119.705C117.58 120.433 119.001 121.213 119 122.001Z" fill="url(#paint0_radial)"/>
<g opacity="0.4">
<path opacity="0.6" d="M112 120.001H98V125.001H112V120.001Z" fill="url(#paint1_radial)"/>
<path opacity="0.6" d="M16 125.001H30V120.001H16V125.001Z" fill="url(#paint2_radial)"/>
<path opacity="0.4" d="M98 120.001H30V124.525H98V120.001Z" fill="url(#paint3_linear)"/>
</g>
<path d="M18 15C18 10.0294 22.0294 6 27 6H101C105.971 6 110 10.0294 110 15V102C110 113.046 101.046 122 90 122H27C22.0294 122 18 117.971 18 113V15Z" fill="url(#paint4_linear)"/>
<path opacity="0.5" d="M102 88.5V7.49999C106 7.09999 108.333 12.3333 109 15V102C109 115.2 96.3333 120.167 90 121H69.5C95.9 109 102.167 94.3333 102 88.5Z" fill="#D48E15"/>
<path d="M18.5 15C18.5 10.3056 22.3056 6.5 27 6.5H101C105.694 6.5 109.5 10.3056 109.5 15V102C109.5 112.77 100.77 121.5 90 121.5H27C22.3056 121.5 18.5 117.694 18.5 113V15Z" stroke="url(#paint5_linear)"/>
<path d="M17.5 15C17.5 9.7533 21.7533 5.5 27 5.5H101C106.247 5.5 110.5 9.75329 110.5 15V102C110.5 113.322 101.322 122.5 90 122.5H27C21.7533 122.5 17.5 118.247 17.5 113V15Z" stroke="#AD5F00"/>
<path fill-rule="evenodd" clip-rule="evenodd" d="M27 7C22.5817 7 19 10.5817 19 15V113C19 117.418 22.5817 121 27 121V120.938C23.0537 120.446 20 117.08 20 113V15C20 10.9204 23.0537 7.55399 27 7.06189V7Z" fill="#F9C440"/>
<rect x="99.1815" y="64" width="15.9666" height="33.3338" rx="7.98332" transform="rotate(64.8818 99.1815 64)" fill="url(#paint6_linear)"/>
<path d="M80 76.375C76.8963 76.375 74.375 78.8963 74.375 82C74.375 85.1037 76.8963 87.625 80 87.625C83.1037 87.625 85.625 85.1037 85.625 82C85.625 78.8963 83.1037 76.375 80 76.375V76.375Z" stroke="black" stroke-opacity="0.15"/>
<path d="M80 75.875C76.6202 75.875 73.875 78.6202 73.875 82C73.875 85.3798 76.6202 88.125 80 88.125C83.3798 88.125 86.125 85.3798 86.125 82C86.125 78.6202 83.3798 75.875 80 75.875Z" stroke="black" stroke-opacity="0.07"/>
<path d="M95 69.375C91.8963 69.375 89.375 71.8963 89.375 75C89.375 78.1037 91.8963 80.625 95 80.625C98.1037 80.625 100.625 78.1037 100.625 75C100.625 71.8963 98.1037 69.375 95 69.375V69.375Z" stroke="black" stroke-opacity="0.16"/>
<path d="M95 68.875C91.6202 68.875 88.875 71.6202 88.875 75C88.875 78.3798 91.6202 81.125 95 81.125C98.3798 81.125 101.125 78.3798 101.125 75C101.125 71.6202 98.3798 68.875 95 68.875Z" stroke="black" stroke-opacity="0.07"/>
<path d="M85.625 81C85.625 77.8963 83.1037 75.375 80 75.375C76.8963 75.375 74.375 77.8963 74.375 81C74.375 84.1037 76.8963 86.625 80 86.625C83.1037 86.625 85.625 84.1037 85.625 81Z" fill="url(#paint7_linear)"/>
<path opacity="0.5" d="M84.875 80.9998C84.875 83.6923 82.6922 85.875 80.0001 85.875C77.3076 85.875 75.125 83.6923 75.125 80.9998C75.125 78.3075 77.3076 76.125 80.0001 76.125C82.6922 76.125 84.875 78.3075 84.875 80.9998Z" stroke="url(#paint8_linear)" stroke-linecap="round" stroke-linejoin="round"/>
<path opacity="0.5" d="M80 75.375C76.8963 75.375 74.375 77.8963 74.375 81C74.375 84.1037 76.8963 86.625 80 86.625C83.1037 86.625 85.625 84.1037 85.625 81C85.625 77.8963 83.1037 75.375 80 75.375V75.375Z" stroke="#7A0000"/>
<path d="M100.625 74C100.625 70.8963 98.1037 68.375 95 68.375C91.8963 68.375 89.375 70.8963 89.375 74C89.375 77.1037 91.8963 79.625 95 79.625C98.1037 79.625 100.625 77.1037 100.625 74Z" fill="url(#paint9_linear)"/>
<path opacity="0.5" d="M99.875 73.9998C99.875 76.6923 97.6922 78.875 95.0001 78.875C92.3076 78.875 90.125 76.6923 90.125 73.9998C90.125 71.3075 92.3076 69.125 95.0001 69.125C97.6922 69.125 99.875 71.3075 99.875 73.9998Z" stroke="url(#paint10_linear)" stroke-linecap="round" stroke-linejoin="round"/>
<path opacity="0.5" d="M95 68.375C91.8963 68.375 89.375 70.8963 89.375 74C89.375 77.1037 91.8963 79.625 95 79.625C98.1037 79.625 100.625 77.1037 100.625 74C100.625 70.8963 98.1037 68.375 95 68.375V68.375Z" stroke="#7A0000"/>
<path d="M58.5518 94.8244L50.3389 99.8813C49.5994 100.337 49.4618 101.427 50.0314 102.316L50.078 102.389C50.6476 103.279 51.7088 103.631 52.4482 103.176L60.6611 98.1187C61.4006 97.6634 61.5382 96.5731 60.9686 95.6835L60.922 95.6107C60.3524 94.7212 59.2912 94.3691 58.5518 94.8244Z" fill="#4D4D4D"/>
<path opacity="0.5" d="M50.6085 100.302L58.8214 95.2455C59.2515 94.9807 60.0238 95.1349 60.4963 95.8729L60.5429 95.9457C61.0154 96.6837 60.8216 97.4328 60.3915 97.6976L52.1786 102.755C51.7485 103.019 50.9763 102.865 50.5037 102.127L50.4571 102.054C49.9846 101.316 50.1784 100.567 50.6085 100.302Z" stroke="url(#paint11_linear)" stroke-linecap="round" stroke-linejoin="round"/>
<path d="M59.6128 99.5771L53.9269 103.117C53.415 103.436 53.3197 104.199 53.714 104.822L53.7463 104.872C54.1406 105.495 54.8753 105.742 55.3872 105.423L61.0731 101.883C61.585 101.564 61.6803 100.801 61.286 100.178L61.2537 100.128C60.8594 99.5048 60.1247 99.2584 59.6128 99.5771Z" fill="#1A1A1A"/>
<path opacity="0.5" d="M54.1944 103.539L59.8803 99.9995C60.0821 99.8738 60.5299 99.9191 60.8293 100.392L60.8615 100.443C61.1608 100.915 61.0074 101.335 60.8056 101.461L55.1197 105.001C54.9179 105.126 54.4701 105.081 54.1707 104.608L54.1385 104.557C53.8392 104.085 53.9926 103.665 54.1944 103.539Z" stroke="url(#paint12_linear)" stroke-linecap="round" stroke-linejoin="round"/>
<path d="M76.4166 94.8244L68.2036 99.8813C67.4642 100.337 67.3265 101.427 67.8961 102.316L67.9427 102.389C68.5123 103.279 69.5735 103.631 70.3129 103.176L78.5259 98.1187C79.2653 97.6634 79.403 96.5731 78.8334 95.6835L78.7868 95.6107C78.2172 94.7212 77.156 94.3691 76.4166 94.8244Z" fill="#4D4D4D"/>
<path opacity="0.5" d="M68.4732 100.302L76.6862 95.2455C77.1162 94.9807 77.8885 95.1349 78.361 95.8729L78.4076 95.9457C78.8801 96.6837 78.6863 97.4328 78.2563 97.6976L70.0433 102.755C69.6133 103.019 68.841 102.865 68.3685 102.127L68.3219 102.054C67.8493 101.316 68.0432 100.567 68.4732 100.302Z" stroke="url(#paint13_linear)" stroke-linecap="round" stroke-linejoin="round"/>
<path d="M77.4775 99.5771L71.7916 103.117C71.2797 103.436 71.1844 104.199 71.5788 104.822L71.611 104.872C72.0054 105.495 72.74 105.742 73.252 105.423L78.9378 101.883C79.4498 101.564 79.5451 100.801 79.1507 100.178L79.1185 100.128C78.7241 99.5048 77.9895 99.2584 77.4775 99.5771Z" fill="#1A1A1A"/>
<path opacity="0.5" d="M72.0592 103.539L77.745 99.9995C77.9468 99.8738 78.3947 99.9191 78.694 100.392L78.7263 100.443C79.0256 100.915 78.8721 101.335 78.6703 101.461L72.9844 105.001C72.7826 105.126 72.3348 105.081 72.0355 104.608L72.0032 104.557C71.7039 104.085 71.8574 103.665 72.0592 103.539Z" stroke="url(#paint14_linear)" stroke-linecap="round" stroke-linejoin="round"/>
<path opacity="0.379121" d="M20.0006 10.3369C19.9562 8.84436 22.3906 7.06413 24.6811 7.01663C27.308 6.95859 101.976 7.07111 101.976 7.07111C101.976 7.07111 106.559 7.62031 105.943 11.4598C86.6213 20.071 51.0272 50.3849 57.5628 60.4748C78.2862 92.4685 20.0422 116 20.0422 116C20.0422 116 20.0961 15.393 20.0006 10.3369Z" fill="white"/>
<path d="M55 75C55 67.268 48.732 61 41 61C33.268 61 27 67.268 27 75C27 82.732 33.268 89 41 89C48.732 89 55 82.732 55 75Z" fill="url(#paint15_linear)"/>
<path d="M37.3664 65V71.3636H31V78.6364H37.3664V85H44.6336V78.6364H51V71.3636H44.6336V65H37.3664Z" stroke="#E7E7E7" stroke-width="2" stroke-linecap="round" stroke-linejoin="round"/>
<path d="M51 78.6336H44.6364V85H37.3636V78.6336H31V71.3664H37.3636V65H44.6364V71.3664H51V78.6336Z" fill="url(#paint16_linear)"/>
<path opacity="0.2" d="M51 78.6336H44.6364V85H37.3636V78.6336H31V71.3664H37.3636V65H44.6364V71.3664H51V78.6336Z" stroke="url(#paint17_linear)" stroke-width="2" stroke-linecap="round"/>
<path opacity="0.1" d="M43 75C43 73.8954 42.1046 73 41 73C39.8954 73 39 73.8954 39 75C39 76.1046 39.8954 77 41 77C42.1046 77 43 76.1046 43 75Z" fill="url(#paint18_linear)"/>
<path d="M69.2789 116H58.7211C57.7706 116 57 116.876 57 117.956V118.044C57 119.124 57.7706 120 58.7211 120H69.2789C70.2294 120 71 119.124 71 118.044V117.956C71 116.876 70.2294 116 69.2789 116Z" fill="white" fill-opacity="0.7"/>
<path d="M69.2789 115H58.7211C57.7706 115 57 115.876 57 116.956V117.044C57 118.124 57.7706 119 58.7211 119H69.2789C70.2294 119 71 118.124 71 117.044V116.956C71 115.876 70.2294 115 69.2789 115Z" fill="url(#paint19_linear)"/>
<path fill-rule="evenodd" clip-rule="evenodd" d="M58.7211 115H69.2789C70.2294 115 71 115.876 71 116.956V117.044C71 117.391 70.9204 117.717 70.7808 118C70.4861 117.403 69.9239 117 69.2789 117H58.7211C58.0761 117 57.5139 117.403 57.2192 118C57.0796 117.717 57 117.391 57 117.044V116.956C57 115.876 57.7706 115 58.7211 115Z" fill="black" fill-opacity="0.07"/>
<path fill-rule="evenodd" clip-rule="evenodd" d="M58.7211 115H69.2789C70.2294 115 71 115.876 71 116.956V117.044C71 117.201 70.9837 117.354 70.953 117.5C70.7723 116.64 70.0913 116 69.2789 116H58.7211C57.9087 116 57.2277 116.64 57.047 117.5C57.0163 117.354 57 117.201 57 117.044V116.956C57 115.876 57.7706 115 58.7211 115Z" fill="black" fill-opacity="0.15"/>
<path d="M104.944 109.234L100.602 101.294C100.211 100.579 99.5097 100.21 99.0358 100.469L98.9971 100.49C98.5232 100.75 98.456 101.539 98.847 102.254L103.19 110.194C103.58 110.908 104.282 111.278 104.755 111.019L104.794 110.997C105.268 110.738 105.335 109.949 104.944 109.234Z" fill="white" fill-opacity="0.7"/>
<path d="M104.944 107.234L100.602 99.2943C100.211 98.5795 99.5097 98.2101 99.0358 98.4693L98.9971 98.4905C98.5232 98.7496 98.456 99.5392 98.847 100.254L103.19 108.194C103.58 108.908 104.282 109.278 104.755 109.019L104.794 108.997C105.268 108.738 105.335 107.949 104.944 107.234Z" fill="url(#paint20_linear)"/>
<path fill-rule="evenodd" clip-rule="evenodd" d="M100.602 99.2943L104.944 107.234C105.331 107.941 105.269 108.72 104.81 108.988L100.602 101.294C100.211 100.579 99.5097 100.21 99.0359 100.469L98.9971 100.49C98.9918 100.493 98.9865 100.496 98.9812 100.499L98.847 100.254C98.4561 99.5392 98.5232 98.7496 98.9971 98.4905L99.0359 98.4693C99.5097 98.2101 100.211 98.5795 100.602 99.2943Z" fill="black" fill-opacity="0.07"/>
<path fill-rule="evenodd" clip-rule="evenodd" d="M100.602 99.2943L104.944 107.234C105.216 107.731 105.266 108.263 105.113 108.629C105.072 108.497 105.016 108.364 104.944 108.234L100.602 100.294C100.211 99.5795 99.5097 99.2101 99.0359 99.4693L98.9971 99.4905C98.8525 99.5695 98.7458 99.698 98.6784 99.8587C98.4942 99.2685 98.6098 98.7023 98.9971 98.4905L99.0359 98.4693C99.5097 98.2101 100.211 98.5795 100.602 99.2943Z" fill="black" fill-opacity="0.15"/>
<path d="M101.316 111.434L96.9739 103.494C96.5829 102.779 95.8819 102.41 95.408 102.669L95.3693 102.69C94.8954 102.949 94.8282 103.739 95.2192 104.454L99.5617 112.393C99.9527 113.108 100.654 113.478 101.128 113.218L101.166 113.197C101.64 112.938 101.707 112.148 101.316 111.434Z" fill="white" fill-opacity="0.7"/>
<path d="M101.316 109.434L96.9739 101.494C96.5829 100.779 95.8819 100.41 95.408 100.669L95.3693 100.69C94.8954 100.949 94.8282 101.739 95.2192 102.454L99.5617 110.393C99.9527 111.108 100.654 111.478 101.128 111.218L101.166 111.197C101.64 110.938 101.707 110.148 101.316 109.434Z" fill="url(#paint21_linear)"/>
<path fill-rule="evenodd" clip-rule="evenodd" d="M96.9739 101.494L101.316 109.434C101.703 110.14 101.642 110.92 101.182 111.188L96.9739 103.494C96.5829 102.779 95.8819 102.41 95.408 102.669L95.3693 102.69C95.3639 102.693 95.3587 102.696 95.3534 102.699L95.2192 102.454C94.8283 101.739 94.8954 100.949 95.3693 100.69L95.408 100.669C95.8819 100.41 96.5829 100.779 96.9739 101.494Z" fill="black" fill-opacity="0.07"/>
<path fill-rule="evenodd" clip-rule="evenodd" d="M96.9739 101.494L101.316 109.434C101.588 109.93 101.639 110.463 101.485 110.829C101.444 110.697 101.388 110.564 101.316 110.434L96.9739 102.494C96.5829 101.779 95.8819 101.41 95.408 101.669L95.3693 101.69C95.2247 101.769 95.118 101.898 95.0506 102.058C94.8663 101.468 94.982 100.902 95.3693 100.69L95.408 100.669C95.8819 100.41 96.5829 100.779 96.9739 101.494Z" fill="black" fill-opacity="0.15"/>
<path d="M97.6886 113.633L93.3461 105.694C92.9551 104.979 92.2541 104.61 91.7802 104.869L91.7415 104.89C91.2676 105.149 91.2004 105.939 91.5914 106.653L95.9339 114.593C96.3249 115.308 97.0259 115.677 97.4998 115.418L97.5385 115.397C98.0124 115.138 98.0796 114.348 97.6886 113.633Z" fill="white" fill-opacity="0.7"/>
<path d="M97.6886 111.633L93.3461 103.694C92.9551 102.979 92.2541 102.61 91.7802 102.869L91.7415 102.89C91.2676 103.149 91.2004 103.939 91.5914 104.653L95.9339 112.593C96.3249 113.308 97.0259 113.677 97.4998 113.418L97.5385 113.397C98.0124 113.138 98.0796 112.348 97.6886 111.633Z" fill="url(#paint22_linear)"/>
<path fill-rule="evenodd" clip-rule="evenodd" d="M93.3461 103.694L97.6886 111.633C98.0752 112.34 98.0139 113.12 97.5544 113.388L93.3461 105.694C92.9551 104.979 92.2541 104.61 91.7802 104.869L91.7415 104.89C91.7361 104.893 91.7309 104.896 91.7256 104.899L91.5914 104.653C91.2004 103.939 91.2676 103.149 91.7415 102.89L91.7802 102.869C92.2541 102.61 92.9551 102.979 93.3461 103.694Z" fill="black" fill-opacity="0.07"/>
<path fill-rule="evenodd" clip-rule="evenodd" d="M93.3461 103.694L97.6886 111.633C97.9603 112.13 98.0107 112.663 97.8573 113.029C97.8161 112.897 97.76 112.764 97.6886 112.633L93.3461 104.694C92.9551 103.979 92.2541 103.61 91.7802 103.869L91.7415 103.89C91.5969 103.969 91.4902 104.097 91.4228 104.258C91.2385 103.668 91.3541 103.102 91.7415 102.89L91.7802 102.869C92.2541 102.61 92.9551 102.979 93.3461 103.694Z" fill="black" fill-opacity="0.15"/>
<path d="M94.0608 115.833L89.7183 107.893C89.3273 107.179 88.6263 106.809 88.1524 107.068L88.1136 107.09C87.6398 107.349 87.5726 108.138 87.9636 108.853L92.3061 116.793C92.6971 117.508 93.3981 117.877 93.872 117.618L93.9107 117.597C94.3846 117.337 94.4518 116.548 94.0608 115.833Z" fill="white" fill-opacity="0.7"/>
<path d="M94.0608 113.833L89.7183 105.893C89.3273 105.179 88.6263 104.809 88.1524 105.068L88.1136 105.09C87.6398 105.349 87.5726 106.138 87.9636 106.853L92.3061 114.793C92.6971 115.508 93.3981 115.877 93.872 115.618L93.9107 115.597C94.3846 115.337 94.4518 114.548 94.0608 113.833Z" fill="url(#paint23_linear)"/>
<path fill-rule="evenodd" clip-rule="evenodd" d="M89.7183 105.893L94.0608 113.833C94.4474 114.54 94.386 115.32 93.9266 115.588L89.7183 107.893C89.3273 107.179 88.6263 106.809 88.1524 107.068L88.1137 107.09C88.1083 107.093 88.1031 107.096 88.0978 107.099L87.9636 106.853C87.5726 106.138 87.6398 105.349 88.1137 105.09L88.1524 105.068C88.6263 104.809 89.3273 105.179 89.7183 105.893Z" fill="black" fill-opacity="0.07"/>
<path fill-rule="evenodd" clip-rule="evenodd" d="M89.7183 105.893L94.0608 113.833C94.3325 114.33 94.3829 114.863 94.2295 115.228C94.1883 115.097 94.1322 114.964 94.0608 114.833L89.7183 106.893C89.3273 106.179 88.6263 105.809 88.1524 106.068L88.1137 106.09C87.9691 106.169 87.8624 106.297 87.795 106.458C87.6107 105.868 87.7263 105.301 88.1137 105.09L88.1524 105.068C88.6263 104.809 89.3273 105.179 89.7183 105.893Z" fill="black" fill-opacity="0.15"/>
<path d="M90.433 118.033L86.0905 110.093C85.6995 109.378 84.9984 109.009 84.5246 109.268L84.4858 109.289C84.012 109.549 83.9448 110.338 84.3358 111.053L88.6783 118.992C89.0693 119.707 89.7703 120.077 90.2442 119.818L90.2829 119.796C90.7568 119.537 90.824 118.748 90.433 118.033Z" fill="white" fill-opacity="0.7"/>
<path d="M90.433 116.033L86.0905 108.093C85.6995 107.378 84.9984 107.009 84.5246 107.268L84.4858 107.289C84.012 107.549 83.9448 108.338 84.3358 109.053L88.6783 116.992C89.0693 117.707 89.7703 118.077 90.2442 117.818L90.2829 117.796C90.7568 117.537 90.824 116.748 90.433 116.033Z" fill="url(#paint24_linear)"/>
<path fill-rule="evenodd" clip-rule="evenodd" d="M86.0904 108.093L90.4329 116.033C90.8194 116.74 90.7581 117.519 90.2987 117.787L86.0904 110.093C85.6994 109.378 84.9983 109.009 84.5245 109.268L84.4857 109.289C84.4804 109.292 84.4751 109.295 84.4699 109.298L84.3357 109.053C83.9447 108.338 84.0119 107.549 84.4857 107.289L84.5245 107.268C84.9983 107.009 85.6994 107.378 86.0904 108.093Z" fill="black" fill-opacity="0.07"/>
<path fill-rule="evenodd" clip-rule="evenodd" d="M86.0904 108.093L90.4329 116.033C90.7045 116.529 90.755 117.062 90.6015 117.428C90.5604 117.296 90.5043 117.163 90.4329 117.033L86.0904 109.093C85.6994 108.378 84.9983 108.009 84.5245 108.268L84.4857 108.289C84.3411 108.368 84.2344 108.497 84.167 108.658C83.9828 108.067 84.0984 107.501 84.4857 107.289L84.5245 107.268C84.9983 107.009 85.6994 107.378 86.0904 108.093Z" fill="black" fill-opacity="0.15"/>
<path d="M86.8051 120.233L82.4625 112.293C82.0716 111.578 81.3705 111.209 80.8967 111.468L80.8579 111.489C80.3841 111.748 80.3169 112.538 80.7079 113.253L85.0504 121.192C85.4413 121.907 86.1424 122.276 86.6162 122.017L86.655 121.996C87.1288 121.737 87.196 120.947 86.8051 120.233Z" fill="white" fill-opacity="0.7"/>
<path d="M86.8051 118.233L82.4625 110.293C82.0716 109.578 81.3705 109.209 80.8967 109.468L80.8579 109.489C80.3841 109.748 80.3169 110.538 80.7079 111.253L85.0504 119.192C85.4413 119.907 86.1424 120.276 86.6162 120.017L86.655 119.996C87.1288 119.737 87.196 118.947 86.8051 118.233Z" fill="url(#paint25_linear)"/>
<path fill-rule="evenodd" clip-rule="evenodd" d="M82.4626 110.293L86.8051 118.233C87.1916 118.939 87.1303 119.719 86.6709 119.987L82.4626 112.293C82.0716 111.578 81.3705 111.209 80.8967 111.468L80.8579 111.489C80.8526 111.492 80.8473 111.495 80.8421 111.498L80.7079 111.253C80.3169 110.538 80.3841 109.748 80.8579 109.489L80.8967 109.468C81.3705 109.209 82.0716 109.578 82.4626 110.293Z" fill="black" fill-opacity="0.07"/>
<path fill-rule="evenodd" clip-rule="evenodd" d="M82.4626 110.293L86.8051 118.233C87.0767 118.729 87.1272 119.262 86.9737 119.628C86.9326 119.496 86.8765 119.363 86.8051 119.233L82.4626 111.293C82.0716 110.578 81.3705 110.209 80.8967 110.468L80.8579 110.489C80.7133 110.568 80.6066 110.697 80.5392 110.857C80.355 110.267 80.4706 109.701 80.8579 109.489L80.8967 109.468C81.3705 109.209 82.0716 109.578 82.4626 110.293Z" fill="black" fill-opacity="0.15"/>
<path d="M26.5 19C26.5 16.5147 28.5147 14.5 31 14.5H97C99.4853 14.5 101.5 16.5147 101.5 19V47C101.5 52.2467 97.2467 56.5 92 56.5H31C28.5147 56.5 26.5 54.4853 26.5 52V19Z" fill="#95A3AB" stroke="#273445"/>
<rect x="81" y="52" width="1" height="1" fill="white" fill-opacity="0.7"/>
<path d="M27.5 19C27.5 17.067 29.067 15.5 31 15.5H97C98.933 15.5 100.5 17.067 100.5 19V47C100.5 51.6944 96.6944 55.5 92 55.5H31C29.067 55.5 27.5 53.933 27.5 52V19Z" stroke="url(#paint26_linear)"/>
<rect x="46" y="20" width="35" height="33" fill="white" fill-opacity="0.7"/>
<rect x="47" y="19" width="35" height="33" fill="white" fill-opacity="0.7"/>
<rect x="46" y="19" width="35" height="33" fill="#8CC449"/>
<path d="M40.1668 35.9699L33.2507 35.9651C32.6281 35.9647 32.1693 36.559 32.226 37.2926L32.2307 37.3526C32.2874 38.0862 32.8382 38.6813 33.4608 38.6817L40.3769 38.6865C40.9996 38.6869 41.4583 38.0926 41.4016 37.359L41.3969 37.299C41.3402 36.5654 40.7894 35.9703 40.1668 35.9699Z" fill="#4D4D4D"/>
<path opacity="0.5" d="M33.27 36.2144L40.186 36.2192C40.6332 36.2195 41.0977 36.6623 41.1469 37.2988L41.1516 37.3588C41.2008 37.9954 40.8047 38.4376 40.3576 38.4372L33.4416 38.4324C32.9945 38.4321 32.5299 37.9894 32.4807 37.3528L32.476 37.2928C32.4268 36.6562 32.8229 36.2141 33.27 36.2144Z" stroke="url(#paint27_linear)" stroke-width="0.5" stroke-linecap="round" stroke-linejoin="round"/>
<path d="M40 31.5C40 29.5688 38.4312 28 36.5 28C34.5688 28 33 29.5688 33 31.5C33 33.4312 34.5688 35 36.5 35C38.4312 35 40 33.4312 40 31.5Z" fill="url(#paint28_linear)"/>
<path opacity="0.5" d="M40 31.9999C40 33.6568 38.6568 35 37 35C35.3432 35 34 33.6568 34 31.9999C34 30.3431 35.3432 29 37 29C38.6568 29 40 30.3431 40 31.9999Z" stroke="url(#paint29_linear)" stroke-linecap="round" stroke-linejoin="round"/>
<path opacity="0.5" d="M36.5 28C34.5688 28 33 29.5688 33 31.5C33 33.4312 34.5688 35 36.5 35C38.4312 35 40 33.4312 40 31.5C40 29.5688 38.4312 28 36.5 28V28Z" stroke="#7A0000"/>
<path fill-rule="evenodd" clip-rule="evenodd" d="M48 19H46V52H48V19Z" fill="black" fill-opacity="0.07"/>
<path fill-rule="evenodd" clip-rule="evenodd" d="M47 19H46V52H47V19Z" fill="black" fill-opacity="0.15"/>
<path fill-rule="evenodd" clip-rule="evenodd" d="M81 19H46V21H81V19Z" fill="black" fill-opacity="0.07"/>
<path fill-rule="evenodd" clip-rule="evenodd" d="M81 19H46V20H81V19Z" fill="black" fill-opacity="0.15"/>
<path d="M65.5 39.134C64.5718 39.6699 63.4282 39.6699 62.5 39.134L61.6906 38.6667L60.599 36.9448C60.3675 36.5798 60.6771 36.1129 61.1035 36.1839L64 36.6667L66.8965 36.1839C67.3229 36.1129 67.6324 36.5798 67.401 36.9448L66.3094 38.6667L65.5 39.134Z" fill="#164B00"/>
<path fill-rule="evenodd" clip-rule="evenodd" d="M62.5221 39.1466C62.5077 39.0988 62.5 39.0498 62.5 39C62.5 38.4477 63.4477 38 64 38C64.5523 38 65.5 38.4477 65.5 39C65.5 39.0498 65.4923 39.0988 65.4779 39.1466C64.5611 39.6657 63.4389 39.6657 62.5221 39.1466Z" fill="#D93C40"/>
<path fill-rule="evenodd" clip-rule="evenodd" d="M70.0221 36.1466C70.0077 36.0988 70 36.0498 70 36C70 35.4477 70.9477 35 71.5 35C72.0523 35 73 35.4477 73 36C73 36.0498 72.9923 36.0988 72.9779 36.1466C72.0611 36.6657 70.9389 36.6657 70.0221 36.1466Z" fill="#D93C40"/>
<path fill-rule="evenodd" clip-rule="evenodd" d="M55.0221 36.1466C55.0077 36.0988 55 36.0498 55 36C55 35.4477 55.9477 35 56.5 35C57.0523 35 58 35.4477 58 36C58 36.0498 57.9923 36.0988 57.9779 36.1466C57.0611 36.6657 55.9389 36.6657 55.0221 36.1466Z" fill="#D93C40"/>
<path d="M58 19H67L52 52H46V45L58 19Z" fill="url(#paint30_linear)"/>
<circle cx="58" cy="30" r="3" fill="#164B00"/>
<circle cx="59" cy="29" r="1" fill="white"/>
<circle cx="71" cy="30" r="3" fill="#164B00"/>
<circle cx="70" cy="29" r="1" fill="white"/>
<path fill-rule="evenodd" clip-rule="evenodd" d="M82 39.8L76 53H70L66 52L82 20V39.8Z" fill="url(#paint31_linear)"/>
<defs>
<radialGradient id="paint0_radial" cx="0" cy="0" r="1" gradientUnits="userSpaceOnUse" gradientTransform="translate(64 122.001) scale(55 6)">
<stop/>
<stop offset="1" stop-opacity="0"/>
</radialGradient>
<radialGradient id="paint1_radial" cx="0" cy="0" r="1" gradientUnits="userSpaceOnUse" gradientTransform="translate(98 122.501) scale(14.0265 2.5)">
<stop stop-color="#181818"/>
<stop offset="1" stop-color="#181818" stop-opacity="0"/>
</radialGradient>
<radialGradient id="paint2_radial" cx="0" cy="0" r="1" gradientUnits="userSpaceOnUse" gradientTransform="translate(30.0158 122.5) rotate(180) scale(14.0265 2.5)">
<stop stop-color="#181818"/>
<stop offset="1" stop-color="#181818" stop-opacity="0"/>
</radialGradient>
<linearGradient id="paint3_linear" x1="66.5697" y1="124.543" x2="66.5697" y2="120.001" gradientUnits="userSpaceOnUse">
<stop stop-color="#181818" stop-opacity="0"/>
<stop offset="0.5" stop-color="#181818"/>
<stop offset="1" stop-color="#181818" stop-opacity="0"/>
</linearGradient>
<linearGradient id="paint4_linear" x1="64" y1="6" x2="64" y2="122" gradientUnits="userSpaceOnUse">
<stop stop-color="#C4C4C4"/>
<stop offset="0.0001" stop-color="#FFF394"/>
<stop offset="1" stop-color="#F9C440"/>
</linearGradient>
<linearGradient id="paint5_linear" x1="64" y1="6" x2="64" y2="122" gradientUnits="userSpaceOnUse">
<stop stop-color="white"/>
<stop offset="0.9999" stop-color="white" stop-opacity="0.302083"/>
<stop offset="1" stop-color="white" stop-opacity="0"/>
</linearGradient>
<linearGradient id="paint6_linear" x1="99.1356" y1="79.4884" x2="127.134" y2="81.018" gradientUnits="userSpaceOnUse">
<stop stop-color="#FF8C82"/>
<stop offset="1" stop-color="#C4C4C4" stop-opacity="0.65"/>
</linearGradient>
<linearGradient id="paint7_linear" x1="80" y1="75.375" x2="80" y2="86.625" gradientUnits="userSpaceOnUse">
<stop stop-color="#ED5353"/>
<stop offset="1" stop-color="#C6262E"/>
</linearGradient>
<linearGradient id="paint8_linear" x1="79.8606" y1="75.9617" x2="79.8606" y2="86.0024" gradientUnits="userSpaceOnUse">
<stop stop-color="white"/>
<stop offset="0.507761" stop-color="white" stop-opacity="0.235294"/>
<stop offset="0.834566" stop-color="white" stop-opacity="0.156863"/>
<stop offset="1" stop-color="white" stop-opacity="0.392157"/>
</linearGradient>
<linearGradient id="paint9_linear" x1="95" y1="68.375" x2="95" y2="79.625" gradientUnits="userSpaceOnUse">
<stop stop-color="#ED5353"/>
<stop offset="1" stop-color="#C6262E"/>
</linearGradient>
<linearGradient id="paint10_linear" x1="94.8606" y1="68.9617" x2="94.8606" y2="79.0024" gradientUnits="userSpaceOnUse">
<stop stop-color="white"/>
<stop offset="0.507761" stop-color="white" stop-opacity="0.235294"/>
<stop offset="0.834566" stop-color="white" stop-opacity="0.156863"/>
<stop offset="1" stop-color="white" stop-opacity="0.392157"/>
</linearGradient>
<linearGradient id="paint11_linear" x1="54.2543" y1="97.3936" x2="56.3661" y2="100.823" gradientUnits="userSpaceOnUse">
<stop stop-color="white"/>
<stop offset="0.507761" stop-color="white" stop-opacity="0.235294"/>
<stop offset="0.834566" stop-color="white" stop-opacity="0.156863"/>
<stop offset="1" stop-color="white" stop-opacity="0.392157"/>
</linearGradient>
<linearGradient id="paint12_linear" x1="56.6376" y1="101.376" x2="58.1231" y2="103.762" gradientUnits="userSpaceOnUse">
<stop stop-color="white"/>
<stop offset="0.507761" stop-color="white" stop-opacity="0.235294"/>
<stop offset="0.834566" stop-color="white" stop-opacity="0.156863"/>
<stop offset="1" stop-color="white" stop-opacity="0.392157"/>
</linearGradient>
<linearGradient id="paint13_linear" x1="72.119" y1="97.3936" x2="74.2308" y2="100.823" gradientUnits="userSpaceOnUse">
<stop stop-color="white"/>
<stop offset="0.507761" stop-color="white" stop-opacity="0.235294"/>
<stop offset="0.834566" stop-color="white" stop-opacity="0.156863"/>
<stop offset="1" stop-color="white" stop-opacity="0.392157"/>
</linearGradient>
<linearGradient id="paint14_linear" x1="74.5023" y1="101.376" x2="75.9879" y2="103.762" gradientUnits="userSpaceOnUse">
<stop stop-color="white"/>
<stop offset="0.507761" stop-color="white" stop-opacity="0.235294"/>
<stop offset="0.834566" stop-color="white" stop-opacity="0.156863"/>
<stop offset="1" stop-color="white" stop-opacity="0.392157"/>
</linearGradient>
<linearGradient id="paint15_linear" x1="41" y1="61" x2="41" y2="89" gradientUnits="userSpaceOnUse">
<stop stop-color="#FF8C82"/>
<stop offset="1" stop-color="#FF8C82" stop-opacity="0.65"/>
</linearGradient>
<linearGradient id="paint16_linear" x1="41" y1="83.1986" x2="41" y2="66.8014" gradientUnits="userSpaceOnUse">
<stop stop-color="#4D4D4D"/>
<stop offset="1" stop-color="#252525"/>
</linearGradient>
<linearGradient id="paint17_linear" x1="41" y1="65" x2="41" y2="85" gradientUnits="userSpaceOnUse">
<stop stop-color="white"/>
<stop offset="1" stop-color="white" stop-opacity="0"/>
</linearGradient>
<linearGradient id="paint18_linear" x1="41" y1="77" x2="41" y2="73" gradientUnits="userSpaceOnUse">
<stop stop-color="white"/>
<stop offset="1" stop-color="white" stop-opacity="0"/>
</linearGradient>
<linearGradient id="paint19_linear" x1="64" y1="115" x2="64" y2="119" gradientUnits="userSpaceOnUse">
<stop stop-color="#D48E15"/>
<stop offset="1" stop-color="#D48E15" stop-opacity="0.5"/>
</linearGradient>
<linearGradient id="paint20_linear" x1="98.9999" y1="98.5" x2="105" y2="109" gradientUnits="userSpaceOnUse">
<stop stop-color="#AD5F00"/>
<stop offset="1" stop-color="#AD5F00" stop-opacity="0.5"/>
</linearGradient>
<linearGradient id="paint21_linear" x1="95.3721" y1="100.7" x2="101.372" y2="111.2" gradientUnits="userSpaceOnUse">
<stop stop-color="#AD5F00"/>
<stop offset="1" stop-color="#AD5F00" stop-opacity="0.5"/>
</linearGradient>
<linearGradient id="paint22_linear" x1="91.7443" y1="102.899" x2="97.7443" y2="113.399" gradientUnits="userSpaceOnUse">
<stop stop-color="#AD5F00"/>
<stop offset="1" stop-color="#AD5F00" stop-opacity="0.5"/>
</linearGradient>
<linearGradient id="paint23_linear" x1="88.1165" y1="105.099" x2="94.1165" y2="115.599" gradientUnits="userSpaceOnUse">
<stop stop-color="#AD5F00"/>
<stop offset="1" stop-color="#AD5F00" stop-opacity="0.5"/>
</linearGradient>
<linearGradient id="paint24_linear" x1="84.4887" y1="107.299" x2="90.4887" y2="117.799" gradientUnits="userSpaceOnUse">
<stop stop-color="#AD5F00"/>
<stop offset="1" stop-color="#AD5F00" stop-opacity="0.5"/>
</linearGradient>
<linearGradient id="paint25_linear" x1="80.8608" y1="109.499" x2="86.8608" y2="119.999" gradientUnits="userSpaceOnUse">
<stop stop-color="#AD5F00"/>
<stop offset="1" stop-color="#AD5F00" stop-opacity="0.5"/>
</linearGradient>
<linearGradient id="paint26_linear" x1="64" y1="15" x2="64" y2="78" gradientUnits="userSpaceOnUse">
<stop stop-color="white"/>
<stop offset="0.911059" stop-color="white" stop-opacity="0.430081"/>
<stop offset="1" stop-color="white" stop-opacity="0"/>
</linearGradient>
<linearGradient id="paint27_linear" x1="36.5741" y1="35.9219" x2="36.5721" y2="38.7194" gradientUnits="userSpaceOnUse">
<stop stop-color="white"/>
<stop offset="0.507761" stop-color="white" stop-opacity="0.235294"/>
<stop offset="0.834566" stop-color="white" stop-opacity="0.156863"/>
<stop offset="1" stop-color="white" stop-opacity="0.392157"/>
</linearGradient>
<linearGradient id="paint28_linear" x1="36.5" y1="28" x2="36.5" y2="35" gradientUnits="userSpaceOnUse">
<stop stop-color="#ED5353"/>
<stop offset="1" stop-color="#C6262E"/>
</linearGradient>
<linearGradient id="paint29_linear" x1="36.9142" y1="28.8995" x2="36.9142" y2="35.0784" gradientUnits="userSpaceOnUse">
<stop stop-color="white"/>
<stop offset="0.507761" stop-color="white" stop-opacity="0.235294"/>
<stop offset="0.834566" stop-color="white" stop-opacity="0.156863"/>
<stop offset="1" stop-color="white" stop-opacity="0.392157"/>
</linearGradient>
<linearGradient id="paint30_linear" x1="56.5" y1="19" x2="56.5" y2="52" gradientUnits="userSpaceOnUse">
<stop stop-color="white" stop-opacity="0.6"/>
<stop offset="1" stop-color="white" stop-opacity="0"/>
</linearGradient>
<linearGradient id="paint31_linear" x1="80.5" y1="20" x2="80.5" y2="53" gradientUnits="userSpaceOnUse">
<stop stop-color="white" stop-opacity="0.6"/>
<stop offset="1" stop-color="white" stop-opacity="0"/>
</linearGradient>
</defs>
</svg>
