<svg width="64" height="64" viewBox="0 0 64 64" fill="none" xmlns="http://www.w3.org/2000/svg">
<path opacity="0.15" d="M52 58H12V63H52V58Z" fill="url(#paint0_linear)"/>
<path opacity="0.15" d="M12 58.0002V62.9999C10.3454 63.0099 8 61.8797 8 60.4997C8 59.1197 9.8464 58.0002 12 58.0002Z" fill="url(#paint1_radial)"/>
<path opacity="0.15" d="M52 58.0002V62.9999C53.6546 63.0099 56 61.8797 56 60.4997C56 59.1197 54.1536 58.0002 52 58.0002Z" fill="url(#paint2_radial)"/>
<path d="M9 8C9 4.68629 11.6863 2 15 2H50C53.3137 2 56 4.68629 56 8V49C56 55.6274 50.6274 61 44 61H15C11.6863 61 9 58.3137 9 55V8Z" fill="url(#paint3_linear)"/>
<path d="M8.5 8C8.5 4.41015 11.4101 1.5 15 1.5H50C53.5899 1.5 56.5 4.41015 56.5 8V49C56.5 55.9036 50.9036 61.5 44 61.5H15C11.4101 61.5 8.5 58.5899 8.5 55V8Z" stroke="#AD5F00"/>
<path d="M9.5 8C9.5 4.96244 11.9624 2.5 15 2.5H50C53.0376 2.5 55.5 4.96243 55.5 8V49C55.5 55.3513 50.3513 60.5 44 60.5H15C11.9624 60.5 9.5 58.0376 9.5 55V8Z" stroke="url(#paint4_linear)"/>
<rect x="50.1587" y="30.538" width="9.24043" height="16.8765" rx="4.62021" transform="rotate(64.8818 50.1587 30.538)" fill="url(#paint5_linear)"/>
<path opacity="0.5" d="M51.4557 43.6815V3.01089C53.481 2.81004 54.6624 5.43774 55 6.77669V50.46C55 57.0878 48.5865 59.5816 45.3797 60H35C48.3671 53.9747 51.5401 46.6105 51.4557 43.6815Z" fill="#D48E15"/>
<path d="M40.5 37.6875C38.9482 37.6875 37.6875 38.9482 37.6875 40.5C37.6875 42.0518 38.9482 43.3125 40.5 43.3125C42.0518 43.3125 43.3125 42.0518 43.3125 40.5C43.3125 38.9482 42.0518 37.6875 40.5 37.6875V37.6875Z" stroke="black" stroke-opacity="0.15"/>
<path d="M40.5 37.1875C38.672 37.1875 37.1875 38.672 37.1875 40.5C37.1875 42.328 38.672 43.8125 40.5 43.8125C42.328 43.8125 43.8125 42.328 43.8125 40.5C43.8125 38.672 42.328 37.1875 40.5 37.1875Z" stroke="black" stroke-opacity="0.07"/>
<path d="M48 34.1875C46.4482 34.1875 45.1875 35.4482 45.1875 37C45.1875 38.5518 46.4482 39.8125 48 39.8125C49.5518 39.8125 50.8125 38.5518 50.8125 37C50.8125 35.4482 49.5518 34.1875 48 34.1875V34.1875Z" stroke="black" stroke-opacity="0.16"/>
<path d="M48 33.6875C46.172 33.6875 44.6875 35.172 44.6875 37C44.6875 38.828 46.172 40.3125 48 40.3125C49.828 40.3125 51.3125 38.828 51.3125 37C51.3125 35.172 49.828 33.6875 48 33.6875Z" stroke="black" stroke-opacity="0.07"/>
<path d="M43.3125 40C43.3125 38.4482 42.0518 37.1875 40.5 37.1875C38.9482 37.1875 37.6875 38.4482 37.6875 40C37.6875 41.5518 38.9482 42.8125 40.5 42.8125C42.0518 42.8125 43.3125 41.5518 43.3125 40Z" fill="url(#paint6_linear)"/>
<path opacity="0.5" d="M42.9375 39.9999C42.9375 41.3462 41.8461 42.4375 40.5 42.4375C39.1538 42.4375 38.0625 41.3461 38.0625 39.9999C38.0625 38.6537 39.1538 37.5625 40.5 37.5625C41.8461 37.5625 42.9375 38.6537 42.9375 39.9999Z" stroke="url(#paint7_linear)" stroke-linecap="round" stroke-linejoin="round"/>
<path opacity="0.5" d="M40.5 37.1875C38.9482 37.1875 37.6875 38.4482 37.6875 40C37.6875 41.5518 38.9482 42.8125 40.5 42.8125C42.0518 42.8125 43.3125 41.5518 43.3125 40C43.3125 38.4482 42.0518 37.1875 40.5 37.1875V37.1875Z" stroke="#7A0000"/>
<path d="M50.8125 36.5C50.8125 34.9482 49.5518 33.6875 48 33.6875C46.4482 33.6875 45.1875 34.9482 45.1875 36.5C45.1875 38.0518 46.4482 39.3125 48 39.3125C49.5518 39.3125 50.8125 38.0518 50.8125 36.5Z" fill="url(#paint8_linear)"/>
<path opacity="0.5" d="M50.4375 36.4999C50.4375 37.8462 49.3461 38.9375 48 38.9375C46.6538 38.9375 45.5625 37.8461 45.5625 36.4999C45.5625 35.1537 46.6538 34.0625 48 34.0625C49.3461 34.0625 50.4375 35.1537 50.4375 36.4999Z" stroke="url(#paint9_linear)" stroke-linecap="round" stroke-linejoin="round"/>
<path opacity="0.5" d="M48 33.6875C46.4482 33.6875 45.1875 34.9482 45.1875 36.5C45.1875 38.0518 46.4482 39.3125 48 39.3125C49.5518 39.3125 50.8125 38.0518 50.8125 36.5C50.8125 34.9482 49.5518 33.6875 48 33.6875V33.6875Z" stroke="#7A0000"/>
<path fill-rule="evenodd" clip-rule="evenodd" d="M14 3C11.7909 3 10 4.79086 10 7V56C10 58.2091 11.7909 60 14 60V59.9691C12.0268 59.723 10.5 58.0398 10.5 56V7C10.5 4.96019 12.0268 3.277 14 3.03095V3Z" fill="#C4C4C4"/>
<path d="M29.7759 46.9122L25.6694 49.4407C25.2997 49.6683 25.2309 50.2135 25.5157 50.6582L25.539 50.6946C25.8238 51.1394 26.3544 51.3155 26.7241 51.0878L30.8306 48.5593C31.2003 48.3317 31.2691 47.7866 30.9843 47.3418L30.961 47.3054C30.6762 46.8606 30.1456 46.6846 29.7759 46.9122Z" fill="#4D4D4D"/>
<path opacity="0.5" d="M25.939 49.8618L30.0455 47.3333C30.0826 47.3105 30.1466 47.2947 30.2426 47.3265C30.3399 47.3588 30.4517 47.437 30.5353 47.5675L30.5586 47.6039C30.6421 47.7345 30.6654 47.8671 30.6528 47.9671C30.6403 48.0657 30.598 48.1155 30.561 48.1383L26.4545 50.6667C26.4174 50.6895 26.3534 50.7053 26.2574 50.6735C26.1601 50.6412 26.0483 50.563 25.9647 50.4325L25.9414 50.3961C25.8579 50.2656 25.8346 50.1329 25.8472 50.0329C25.8597 49.9343 25.902 49.8846 25.939 49.8618Z" stroke="url(#paint10_linear)" stroke-linecap="round" stroke-linejoin="round"/>
<path d="M30.3064 49.2885L27.4635 51.0585C27.2075 51.2178 27.1598 51.5994 27.357 51.9108L27.3731 51.9363C27.5703 52.2476 27.9376 52.3708 28.1936 52.2115L31.0366 50.4415C31.2925 50.2822 31.3402 49.9006 31.143 49.5892L31.1269 49.5638C30.9297 49.2524 30.5624 49.1292 30.3064 49.2885Z" fill="#1A1A1A"/>
<path opacity="0.5" d="M27.7382 51.4906C27.7392 51.483 27.7404 51.4778 27.7414 51.4744L30.5634 49.7175C30.567 49.718 30.5723 49.7192 30.5795 49.7217C30.6117 49.7325 30.6618 49.764 30.7024 49.828L30.7185 49.8535C30.7591 49.9176 30.766 49.976 30.7618 50.0094C30.7608 50.017 30.7596 50.0222 30.7586 50.0256L27.9366 51.7825C27.933 51.782 27.9277 51.7808 27.9205 51.7784C27.8883 51.7676 27.8382 51.736 27.7976 51.672L27.7815 51.6465C27.7409 51.5825 27.734 51.524 27.7382 51.4906ZM30.5575 49.7171C30.5575 49.7171 30.5581 49.717 30.5594 49.717L30.5575 49.7171ZM30.7563 50.031C30.7563 50.031 30.7565 50.0304 30.7572 50.0295L30.7563 50.031ZM27.9425 51.7829C27.9425 51.7829 27.9419 51.783 27.9406 51.783L27.9425 51.7829ZM27.7428 51.4706C27.7433 51.4694 27.7436 51.4689 27.7437 51.469L27.7428 51.4706Z" stroke="url(#paint11_linear)" stroke-linecap="round" stroke-linejoin="round"/>
<path d="M38.7083 46.9122L34.6018 49.4407C34.2321 49.6683 34.1633 50.2135 34.4481 50.6582L34.4714 50.6946C34.7562 51.1394 35.2867 51.3155 35.6565 51.0878L39.7629 48.5593C40.1327 48.3317 40.2015 47.7866 39.9167 47.3418L39.8934 47.3054C39.6086 46.8606 39.078 46.6846 38.7083 46.9122Z" fill="#4D4D4D"/>
<path opacity="0.5" d="M34.8714 49.8618L38.9779 47.3333C39.0149 47.3105 39.079 47.2947 39.175 47.3265C39.2723 47.3588 39.384 47.437 39.4676 47.5675L39.4909 47.6039C39.5745 47.7345 39.5978 47.8671 39.5852 47.9671C39.5727 48.0657 39.5304 48.1155 39.4933 48.1383L35.3868 50.6667C35.3498 50.6895 35.2858 50.7053 35.1898 50.6735C35.0924 50.6412 34.9807 50.563 34.8971 50.4325L34.8738 50.3961C34.7902 50.2656 34.767 50.1329 34.7796 50.0329C34.7921 49.9343 34.8344 49.8846 34.8714 49.8618Z" stroke="url(#paint12_linear)" stroke-linecap="round" stroke-linejoin="round"/>
<path d="M39.2388 49.2885L36.3958 51.0585C36.1399 51.2178 36.0922 51.5994 36.2894 51.9108L36.3055 51.9363C36.5027 52.2476 36.87 52.3708 37.126 52.2115L39.9689 50.4415C40.2249 50.2822 40.2725 49.9006 40.0754 49.5892L40.0592 49.5638C39.8621 49.2524 39.4947 49.1292 39.2388 49.2885Z" fill="#1A1A1A"/>
<path opacity="0.5" d="M36.6706 51.4906C36.6715 51.483 36.6727 51.4778 36.6738 51.4744L39.4958 49.7175C39.4994 49.718 39.5047 49.7192 39.5119 49.7217C39.5441 49.7325 39.5942 49.764 39.6348 49.828L39.6509 49.8535C39.6915 49.9176 39.6983 49.976 39.6942 50.0094C39.6932 50.017 39.692 50.0222 39.691 50.0256L36.8689 51.7825C36.8654 51.782 36.8601 51.7808 36.8528 51.7784C36.8206 51.7676 36.7705 51.736 36.73 51.672L36.7138 51.6465C36.6733 51.5825 36.6664 51.524 36.6706 51.4906ZM39.4899 49.7171C39.4899 49.7171 39.4905 49.717 39.4917 49.717L39.4899 49.7171ZM39.6887 50.031C39.6887 50.031 39.6889 50.0304 39.6896 50.0295L39.6887 50.031ZM36.8748 51.7829C36.8749 51.7829 36.8743 51.783 36.873 51.783L36.8748 51.7829ZM36.6752 51.4706C36.6757 51.4694 36.676 51.4689 36.6761 51.469L36.6752 51.4706Z" stroke="url(#paint13_linear)" stroke-linecap="round" stroke-linejoin="round"/>
<path opacity="0.379121" d="M10.5003 4.66844C10.4781 3.92218 11.6953 3.03207 12.8405 3.00832C14.154 2.97929 51.4879 3.03555 51.4879 3.03555C51.4879 3.03555 53.7795 3.31016 53.4715 5.22992C43.8106 9.53548 26.0136 24.6924 29.2814 29.7374C39.6431 45.7343 10.5211 57.5 10.5211 57.5C10.5211 57.5 10.5481 7.19651 10.5003 4.66844Z" fill="white"/>
<path d="M28 37C28 33.134 24.866 30 21 30C17.134 30 14 33.134 14 37C14 40.866 17.134 44 21 44C24.866 44 28 40.866 28 37Z" fill="url(#paint14_linear)"/>
<path d="M19.1832 32V35.1818H16V38.8182H19.1832V42H22.8168V38.8182H26V35.1818H22.8168V32H19.1832Z" stroke="#E7E7E7" stroke-width="2" stroke-linecap="round" stroke-linejoin="round"/>
<path d="M26 38.8168H22.8182V42H19.1818V38.8168H16V35.1832H19.1818V32H22.8182V35.1832H26V38.8168Z" fill="url(#paint15_linear)"/>
<path opacity="0.2" d="M26 38.8168H22.8182V42H19.1818V38.8168H16V35.1832H19.1818V32H22.8182V35.1832H26V38.8168Z" stroke="url(#paint16_linear)" stroke-width="2" stroke-linecap="round"/>
<path opacity="0.1" d="M22 37C22 36.4477 21.5523 36 21 36C20.4477 36 20 36.4477 20 37C20 37.5523 20.4477 38 21 38C21.5523 38 22 37.5523 22 37Z" fill="url(#paint17_linear)"/>
<path d="M35.1394 57.5H29.8606C29.3853 57.5 29 57.9378 29 58.4779V58.5221C29 59.0622 29.3853 59.5 29.8606 59.5H35.1394C35.6147 59.5 36 59.0622 36 58.5221V58.4779C36 57.9378 35.6147 57.5 35.1394 57.5Z" fill="white" fill-opacity="0.7"/>
<path d="M35.1394 57H29.8606C29.3853 57 29 57.4378 29 57.9779V58.0221C29 58.5622 29.3853 59 29.8606 59H35.1394C35.6147 59 36 58.5622 36 58.0221V57.9779C36 57.4378 35.6147 57 35.1394 57Z" fill="url(#paint18_linear)"/>
<path fill-rule="evenodd" clip-rule="evenodd" d="M29.8606 57H35.1394C35.6147 57 36 57.4378 36 57.9779V58.0221C36 58.1957 35.9602 58.3587 35.8904 58.5C35.7431 58.2016 35.462 58 35.1394 58H29.8606C29.538 58 29.2569 58.2016 29.1096 58.5C29.0398 58.3587 29 58.1957 29 58.0221V57.9779C29 57.4378 29.3853 57 29.8606 57Z" fill="black" fill-opacity="0.07"/>
<path fill-rule="evenodd" clip-rule="evenodd" d="M29.8606 57H35.1394C35.6147 57 36 57.4378 36 57.9779V58.0221C36 58.1006 35.9919 58.1769 35.9765 58.25C35.8861 57.8198 35.5457 57.5 35.1394 57.5H29.8606C29.4543 57.5 29.1139 57.8198 29.0235 58.25C29.0081 58.1769 29 58.1006 29 58.0221V57.9779C29 57.4378 29.3853 57 29.8606 57Z" fill="black" fill-opacity="0.15"/>
<path d="M52.9721 54.1169L50.8009 50.1471C50.6054 49.7897 50.2548 49.605 50.0179 49.7346L49.9985 49.7452C49.7616 49.8748 49.728 50.2696 49.9235 50.627L52.0948 54.5968C52.2902 54.9542 52.6408 55.1389 52.8777 55.0093L52.8971 54.9987C53.134 54.8691 53.1676 54.4743 52.9721 54.1169Z" fill="white" fill-opacity="0.7"/>
<path d="M52.9721 53.1169L50.8009 49.1471C50.6054 48.7897 50.2548 48.605 50.0179 48.7346L49.9985 48.7452C49.7616 48.8748 49.728 49.2696 49.9235 49.627L52.0948 53.5968C52.2902 53.9542 52.6408 54.1389 52.8777 54.0093L52.8971 53.9987C53.134 53.8691 53.1676 53.4743 52.9721 53.1169Z" fill="url(#paint19_linear)"/>
<path fill-rule="evenodd" clip-rule="evenodd" d="M50.8009 49.1472L52.9722 53.1169C53.1655 53.4703 53.1348 53.8603 52.9051 53.9942L50.8009 50.1472C50.6054 49.7898 50.2549 49.6051 50.018 49.7346L49.9986 49.7452C49.9959 49.7467 49.9933 49.7482 49.9907 49.7497L49.9236 49.627C49.7281 49.2696 49.7617 48.8748 49.9986 48.7452L50.018 48.7346C50.2549 48.6051 50.6054 48.7898 50.8009 49.1472Z" fill="black" fill-opacity="0.07"/>
<path fill-rule="evenodd" clip-rule="evenodd" d="M50.8009 49.1472L52.9722 53.1169C53.108 53.3653 53.1332 53.6317 53.0565 53.8146C53.0359 53.7487 53.0079 53.6822 52.9722 53.6169L50.8009 49.6472C50.6054 49.2898 50.2549 49.1051 50.018 49.2346L49.9986 49.2452C49.9263 49.2848 49.8729 49.349 49.8393 49.4293C49.7471 49.1343 49.8049 48.8512 49.9986 48.7452L50.018 48.7346C50.2549 48.6051 50.6054 48.7898 50.8009 49.1472Z" fill="black" fill-opacity="0.15"/>
<path d="M51.1583 55.2168L48.987 51.247C48.7915 50.8896 48.441 50.7049 48.2041 50.8345L48.1847 50.8451C47.9478 50.9747 47.9142 51.3694 48.1097 51.7269L50.2809 55.6966C50.4764 56.054 50.8269 56.2387 51.0639 56.1092L51.0832 56.0986C51.3202 55.969 51.3537 55.5742 51.1583 55.2168Z" fill="white" fill-opacity="0.7"/>
<path d="M51.1583 54.2168L48.987 50.247C48.7915 49.8896 48.441 49.7049 48.2041 49.8345L48.1847 49.8451C47.9478 49.9747 47.9142 50.3694 48.1097 50.7269L50.2809 54.6966C50.4764 55.054 50.8269 55.2387 51.0639 55.1092L51.0832 55.0986C51.3202 54.969 51.3537 54.5742 51.1583 54.2168Z" fill="url(#paint20_linear)"/>
<path fill-rule="evenodd" clip-rule="evenodd" d="M48.987 50.247L51.1582 54.2168C51.3515 54.5702 51.3208 54.9601 51.0911 55.0941L48.987 51.247C48.7915 50.8896 48.4409 50.7049 48.204 50.8345L48.1846 50.8451C48.182 50.8466 48.1793 50.848 48.1767 50.8496L48.1096 50.7269C47.9141 50.3695 47.9477 49.9747 48.1846 49.8451L48.204 49.8345C48.4409 49.7049 48.7915 49.8896 48.987 50.247Z" fill="black" fill-opacity="0.07"/>
<path fill-rule="evenodd" clip-rule="evenodd" d="M48.987 50.247L51.1582 54.2168C51.294 54.4651 51.3193 54.7315 51.2425 54.9145C51.222 54.8486 51.1939 54.7821 51.1582 54.7168L48.987 50.747C48.7915 50.3896 48.4409 50.2049 48.204 50.3345L48.1846 50.3451C48.1123 50.3846 48.059 50.4489 48.0253 50.5292C47.9332 50.2341 47.991 49.951 48.1846 49.8451L48.204 49.8345C48.4409 49.7049 48.7915 49.8896 48.987 50.247Z" fill="black" fill-opacity="0.15"/>
<path d="M49.3443 56.3167L47.173 52.3469C46.9776 51.9895 46.627 51.8048 46.3901 51.9344L46.3707 51.945C46.1338 52.0746 46.1002 52.4693 46.2957 52.8267L48.467 56.7965C48.6624 57.1539 49.013 57.3386 49.2499 57.209L49.2693 57.1984C49.5062 57.0689 49.5398 56.6741 49.3443 56.3167Z" fill="white" fill-opacity="0.7"/>
<path d="M49.3443 55.3167L47.173 51.3469C46.9776 50.9895 46.627 50.8048 46.3901 50.9344L46.3707 50.945C46.1338 51.0746 46.1002 51.4693 46.2957 51.8267L48.467 55.7965C48.6624 56.1539 49.013 56.3386 49.2499 56.209L49.2693 56.1984C49.5062 56.0689 49.5398 55.6741 49.3443 55.3167Z" fill="url(#paint21_linear)"/>
<path fill-rule="evenodd" clip-rule="evenodd" d="M47.173 51.3469L49.3442 55.3166C49.5375 55.67 49.5069 56.06 49.2771 56.1939L47.173 52.3469C46.9775 51.9895 46.627 51.8048 46.3901 51.9344L46.3707 51.945C46.368 51.9464 46.3654 51.9479 46.3628 51.9494L46.2956 51.8267C46.1002 51.4693 46.1338 51.0745 46.3707 50.945L46.3901 50.9344C46.627 50.8048 46.9775 50.9895 47.173 51.3469Z" fill="black" fill-opacity="0.07"/>
<path fill-rule="evenodd" clip-rule="evenodd" d="M47.173 51.3469L49.3442 55.3166C49.4801 55.565 49.5053 55.8314 49.4286 56.0143C49.408 55.9484 49.3799 55.8819 49.3442 55.8166L47.173 51.8469C46.9775 51.4895 46.627 51.3048 46.3901 51.4344L46.3707 51.445C46.2984 51.4845 46.245 51.5487 46.2113 51.6291C46.1192 51.334 46.177 51.0509 46.3707 50.945L46.3901 50.9344C46.627 50.8048 46.9775 50.9895 47.173 51.3469Z" fill="black" fill-opacity="0.15"/>
<path d="M47.5303 57.4165L45.3591 53.4467C45.1636 53.0893 44.8131 52.9046 44.5761 53.0342L44.5568 53.0448C44.3198 53.1744 44.2863 53.5692 44.4817 53.9266L46.653 57.8964C46.8485 58.2538 47.199 58.4385 47.4359 58.3089L47.4553 58.2983C47.6922 58.1687 47.7258 57.7739 47.5303 57.4165Z" fill="white" fill-opacity="0.7"/>
<path d="M47.5303 56.4165L45.3591 52.4467C45.1636 52.0893 44.8131 51.9046 44.5761 52.0342L44.5568 52.0448C44.3198 52.1744 44.2863 52.5692 44.4817 52.9266L46.653 56.8964C46.8485 57.2538 47.199 57.4385 47.4359 57.3089L47.4553 57.2983C47.6922 57.1687 47.7258 56.7739 47.5303 56.4165Z" fill="url(#paint22_linear)"/>
<path fill-rule="evenodd" clip-rule="evenodd" d="M45.3591 52.4468L47.5304 56.4165C47.7237 56.7699 47.693 57.1598 47.4633 57.2938L45.3591 53.4468C45.1637 53.0893 44.8131 52.9047 44.5762 53.0342L44.5568 53.0448C44.5542 53.0463 44.5515 53.0478 44.5489 53.0493L44.4818 52.9266C44.2863 52.5692 44.3199 52.1744 44.5568 52.0448L44.5762 52.0342C44.8131 51.9047 45.1637 52.0893 45.3591 52.4468Z" fill="black" fill-opacity="0.07"/>
<path fill-rule="evenodd" clip-rule="evenodd" d="M45.3591 52.4468L47.5304 56.4165C47.6662 56.6649 47.6915 56.9313 47.6147 57.1142C47.5942 57.0483 47.5661 56.9818 47.5304 56.9165L45.3591 52.9468C45.1637 52.5893 44.8131 52.4047 44.5762 52.5342L44.5568 52.5448C44.4845 52.5844 44.4312 52.6486 44.3975 52.7289C44.3054 52.4339 44.3632 52.1508 44.5568 52.0448L44.5762 52.0342C44.8131 51.9047 45.1637 52.0893 45.3591 52.4468Z" fill="black" fill-opacity="0.15"/>
<path d="M45.7165 58.5164L43.5452 54.5466C43.3498 54.1892 42.9992 54.0045 42.7623 54.1341L42.7429 54.1447C42.506 54.2743 42.4724 54.6691 42.6679 55.0265L44.8391 58.9963C45.0346 59.3537 45.3852 59.5384 45.6221 59.4088L45.6415 59.3982C45.8784 59.2686 45.912 58.8738 45.7165 58.5164Z" fill="white" fill-opacity="0.7"/>
<path d="M45.7165 57.5164L43.5452 53.5466C43.3498 53.1892 42.9992 53.0045 42.7623 53.1341L42.7429 53.1447C42.506 53.2743 42.4724 53.6691 42.6679 54.0265L44.8391 57.9963C45.0346 58.3537 45.3852 58.5384 45.6221 58.4088L45.6415 58.3982C45.8784 58.2686 45.912 57.8738 45.7165 57.5164Z" fill="url(#paint23_linear)"/>
<path fill-rule="evenodd" clip-rule="evenodd" d="M43.5452 53.5466L45.7164 57.5164C45.9097 57.8698 45.8791 58.2597 45.6493 58.3937L43.5452 54.5466C43.3497 54.1892 42.9992 54.0045 42.7622 54.1341L42.7429 54.1447C42.7402 54.1461 42.7376 54.1476 42.7349 54.1492L42.6678 54.0265C42.4724 53.6691 42.5059 53.2743 42.7429 53.1447L42.7622 53.1341C42.9992 53.0045 43.3497 53.1892 43.5452 53.5466Z" fill="black" fill-opacity="0.07"/>
<path fill-rule="evenodd" clip-rule="evenodd" d="M43.5452 53.5466L45.7164 57.5164C45.8523 57.7647 45.8775 58.0311 45.8008 58.2141C45.7802 58.1481 45.7521 58.0816 45.7164 58.0164L43.5452 54.0466C43.3497 53.6892 42.9992 53.5045 42.7622 53.6341L42.7429 53.6447C42.6706 53.6842 42.6172 53.7485 42.5835 53.8288C42.4914 53.5337 42.5492 53.2506 42.7429 53.1447L42.7622 53.1341C42.9992 53.0045 43.3497 53.1892 43.5452 53.5466Z" fill="black" fill-opacity="0.15"/>
<path d="M43.9025 59.6163L41.7313 55.6465C41.5358 55.2891 41.1853 55.1044 40.9483 55.234L40.929 55.2446C40.692 55.3741 40.6584 55.7689 40.8539 56.1263L43.0252 60.0961C43.2207 60.4535 43.5712 60.6382 43.8081 60.5086L43.8275 60.498C44.0644 60.3684 44.098 59.9737 43.9025 59.6163Z" fill="white" fill-opacity="0.7"/>
<path d="M43.9025 58.6163L41.7313 54.6465C41.5358 54.2891 41.1853 54.1044 40.9483 54.234L40.929 54.2446C40.692 54.3741 40.6584 54.7689 40.8539 55.1263L43.0252 59.0961C43.2207 59.4535 43.5712 59.6382 43.8081 59.5086L43.8275 59.498C44.0644 59.3684 44.098 58.9737 43.9025 58.6163Z" fill="url(#paint24_linear)"/>
<path fill-rule="evenodd" clip-rule="evenodd" d="M41.7313 54.6465L43.9026 58.6163C44.0959 58.9697 44.0652 59.3596 43.8355 59.4936L41.7313 55.6465C41.5359 55.2891 41.1853 55.1044 40.9484 55.234L40.929 55.2446C40.9264 55.246 40.9237 55.2475 40.9211 55.249L40.854 55.1263C40.6585 54.7689 40.6921 54.3742 40.929 54.2446L40.9484 54.234C41.1853 54.1044 41.5359 54.2891 41.7313 54.6465Z" fill="black" fill-opacity="0.07"/>
<path fill-rule="evenodd" clip-rule="evenodd" d="M41.7313 54.6465L43.9026 58.6163C44.0384 58.8646 44.0637 59.131 43.9869 59.3139C43.9663 59.248 43.9383 59.1815 43.9026 59.1163L41.7313 55.1465C41.5359 54.7891 41.1853 54.6044 40.9484 54.734L40.929 54.7446C40.8567 54.7841 40.8034 54.8483 40.7697 54.9287C40.6776 54.6336 40.7354 54.3505 40.929 54.2446L40.9484 54.234C41.1853 54.1044 41.5359 54.2891 41.7313 54.6465Z" fill="black" fill-opacity="0.15"/>
<path d="M11.25 10C11.25 7.37665 13.3766 5.25 16 5.25H48C50.6234 5.25 52.75 7.37665 52.75 10V19C52.75 24.3848 48.3848 28.75 43 28.75H16C13.3766 28.75 11.25 26.6234 11.25 24V10Z" fill="#95A3AB" stroke="#273445" stroke-width="0.5"/>
<path d="M12.25 10C12.25 7.92893 13.9289 6.25 16 6.25H48C50.0711 6.25 51.75 7.92893 51.75 10V19C51.75 23.8325 47.8325 27.75 43 27.75H16C13.9289 27.75 12.25 26.0711 12.25 24V10Z" stroke="url(#paint25_linear)" stroke-width="0.5"/>
<rect x="22" y="8" width="19" height="19" fill="white" fill-opacity="0.7"/>
<rect x="23" y="8" width="19" height="19" fill="white" fill-opacity="0.7"/>
<rect x="22" y="8" width="19" height="19" fill="#8CC449"/>
<path d="M18.829 17.2623L15.007 17.2596C14.6629 17.2594 14.4093 17.5911 14.4407 18.0005L14.4433 18.034C14.4746 18.4435 14.779 18.7756 15.1231 18.7758L18.9451 18.7785C19.2892 18.7788 19.5427 18.447 19.5114 18.0376L19.5088 18.0041C19.4775 17.5946 19.1731 17.2625 18.829 17.2623Z" fill="#4D4D4D"/>
<path opacity="0.5" d="M15.0261 17.5099L18.8482 17.5125C19.0169 17.5127 19.2358 17.6914 19.2598 18.0039L19.2623 18.0374C19.2863 18.35 19.0947 18.5284 18.9259 18.5282L15.1039 18.5256C14.9352 18.5254 14.7163 18.3468 14.6923 18.0342L14.6898 18.0007C14.6658 17.6881 14.8574 17.5097 15.0261 17.5099Z" stroke="url(#paint26_linear)" stroke-width="0.5" stroke-linecap="round" stroke-linejoin="round"/>
<path d="M19 15C19 13.8965 18.1035 13 17 13C15.8965 13 15 13.8965 15 15C15 16.1035 15.8965 17 17 17C18.1035 17 19 16.1035 19 15Z" fill="url(#paint27_linear)"/>
<path opacity="0.5" d="M19 14.9999C19 16.1045 18.1045 17 17 17C15.8954 17 15 16.1045 15 14.9999C15 13.8954 15.8954 13 17 13C18.1045 13 19 13.8954 19 14.9999Z" stroke="url(#paint28_linear)" stroke-linecap="round" stroke-linejoin="round"/>
<path opacity="0.5" d="M17 13C15.8965 13 15 13.8965 15 15C15 16.1035 15.8965 17 17 17C18.1035 17 19 16.1035 19 15C19 13.8965 18.1035 13 17 13V13Z" stroke="#7A0000"/>
<path fill-rule="evenodd" clip-rule="evenodd" d="M23.1579 7.79071H22.0526V26.2093H23.1579V7.79071Z" fill="black" fill-opacity="0.07"/>
<path fill-rule="evenodd" clip-rule="evenodd" d="M22.6052 7.79071H22.0526V26.2093H22.6052V7.79071Z" fill="black" fill-opacity="0.15"/>
<path fill-rule="evenodd" clip-rule="evenodd" d="M41.3947 7.79071H22.0526V8.90698H41.3947V7.79071Z" fill="black" fill-opacity="0.07"/>
<path fill-rule="evenodd" clip-rule="evenodd" d="M41.3947 7.79071H22.0526V8.34885H41.3947V7.79071Z" fill="black" fill-opacity="0.15"/>
<path fill-rule="evenodd" clip-rule="evenodd" d="M29.8025 18.6938L29.7085 18.5926C30.358 17.6294 31.3267 17 32 17C32.6734 17 33.642 17.6293 34.2915 18.5925L34.1974 18.6938C33.0107 19.9706 30.9893 19.9706 29.8025 18.6938Z" fill="#D93C40"/>
<path fill-rule="evenodd" clip-rule="evenodd" d="M36.973 17.2988C36.4367 17.4843 35.8527 17.4843 35.3165 17.2988C35.316 17.2922 35.3158 17.2857 35.3158 17.2791C35.3158 16.9708 35.8395 16.7209 36.1447 16.7209C36.45 16.7209 36.9737 16.9708 36.9737 17.2791C36.9737 17.2857 36.9735 17.2922 36.973 17.2988Z" fill="#D93C40"/>
<path fill-rule="evenodd" clip-rule="evenodd" d="M28.6835 17.2988C28.1473 17.4843 27.5633 17.4843 27.0271 17.2988C27.0266 17.2922 27.0264 17.2857 27.0264 17.2791C27.0264 16.9708 27.5501 16.7209 27.8553 16.7209C28.1605 16.7209 28.6843 16.9708 28.6843 17.2791C28.6843 17.2857 28.684 17.2922 28.6835 17.2988Z" fill="#D93C40"/>
<path d="M28.2857 8H33L25.1429 27H22V22.9697L28.2857 8Z" fill="url(#paint29_linear)"/>
<circle cx="29" cy="14" r="2" fill="#164B00"/>
<circle cx="29.5" cy="13.5" r="0.5" fill="white"/>
<circle cx="36" cy="14" r="2" fill="#164B00"/>
<circle cx="35.5" cy="13.5" r="0.5" fill="white"/>
<path fill-rule="evenodd" clip-rule="evenodd" d="M41.9473 19.4L38.6315 26.7675H35.3158L33.1052 26.2093L41.9473 8.34885L41.9473 19.4Z" fill="url(#paint30_linear)"/>
<defs>
<linearGradient id="paint0_linear" x1="27.1479" y1="58" x2="27.1479" y2="63" gradientUnits="userSpaceOnUse">
<stop stop-opacity="0"/>
<stop offset="0.5"/>
<stop offset="1" stop-opacity="0"/>
</linearGradient>
<radialGradient id="paint1_radial" cx="0" cy="0" r="1" gradientUnits="userSpaceOnUse" gradientTransform="translate(11.9019 60.4706) rotate(180) scale(3.76375 2.41176)">
<stop/>
<stop offset="1" stop-opacity="0"/>
</radialGradient>
<radialGradient id="paint2_radial" cx="0" cy="0" r="1" gradientUnits="userSpaceOnUse" gradientTransform="translate(52.0981 60.4706) scale(3.76375 2.41176)">
<stop/>
<stop offset="1" stop-opacity="0"/>
</radialGradient>
<linearGradient id="paint3_linear" x1="32.5" y1="2" x2="32.5" y2="61" gradientUnits="userSpaceOnUse">
<stop stop-color="#C4C4C4"/>
<stop offset="0.0001" stop-color="#FFF394"/>
<stop offset="1" stop-color="#F9C440"/>
</linearGradient>
<linearGradient id="paint4_linear" x1="32.5" y1="2" x2="32.5" y2="61" gradientUnits="userSpaceOnUse">
<stop stop-color="white"/>
<stop offset="0.9999" stop-color="white" stop-opacity="0.302083"/>
<stop offset="1" stop-color="white" stop-opacity="0"/>
</linearGradient>
<linearGradient id="paint5_linear" x1="50.1321" y1="38.3796" x2="66.321" y2="39.3906" gradientUnits="userSpaceOnUse">
<stop stop-color="#FF8C82"/>
<stop offset="1" stop-color="#C4C4C4" stop-opacity="0.65"/>
</linearGradient>
<linearGradient id="paint6_linear" x1="40.5" y1="37.1875" x2="40.5" y2="42.8125" gradientUnits="userSpaceOnUse">
<stop stop-color="#ED5353"/>
<stop offset="1" stop-color="#C6262E"/>
</linearGradient>
<linearGradient id="paint7_linear" x1="40.4303" y1="37.4809" x2="40.4303" y2="42.5012" gradientUnits="userSpaceOnUse">
<stop stop-color="white"/>
<stop offset="0.507761" stop-color="white" stop-opacity="0.235294"/>
<stop offset="0.834566" stop-color="white" stop-opacity="0.156863"/>
<stop offset="1" stop-color="white" stop-opacity="0.392157"/>
</linearGradient>
<linearGradient id="paint8_linear" x1="48" y1="33.6875" x2="48" y2="39.3125" gradientUnits="userSpaceOnUse">
<stop stop-color="#ED5353"/>
<stop offset="1" stop-color="#C6262E"/>
</linearGradient>
<linearGradient id="paint9_linear" x1="47.9303" y1="33.9809" x2="47.9303" y2="39.0012" gradientUnits="userSpaceOnUse">
<stop stop-color="white"/>
<stop offset="0.507761" stop-color="white" stop-opacity="0.235294"/>
<stop offset="0.834566" stop-color="white" stop-opacity="0.156863"/>
<stop offset="1" stop-color="white" stop-opacity="0.392157"/>
</linearGradient>
<linearGradient id="paint10_linear" x1="27.6271" y1="48.1968" x2="28.683" y2="49.9117" gradientUnits="userSpaceOnUse">
<stop stop-color="white"/>
<stop offset="0.507761" stop-color="white" stop-opacity="0.235294"/>
<stop offset="0.834566" stop-color="white" stop-opacity="0.156863"/>
<stop offset="1" stop-color="white" stop-opacity="0.392157"/>
</linearGradient>
<linearGradient id="paint11_linear" x1="28.8188" y1="50.1878" x2="29.5616" y2="51.3808" gradientUnits="userSpaceOnUse">
<stop stop-color="white"/>
<stop offset="0.507761" stop-color="white" stop-opacity="0.235294"/>
<stop offset="0.834566" stop-color="white" stop-opacity="0.156863"/>
<stop offset="1" stop-color="white" stop-opacity="0.392157"/>
</linearGradient>
<linearGradient id="paint12_linear" x1="36.5595" y1="48.1968" x2="37.6154" y2="49.9117" gradientUnits="userSpaceOnUse">
<stop stop-color="white"/>
<stop offset="0.507761" stop-color="white" stop-opacity="0.235294"/>
<stop offset="0.834566" stop-color="white" stop-opacity="0.156863"/>
<stop offset="1" stop-color="white" stop-opacity="0.392157"/>
</linearGradient>
<linearGradient id="paint13_linear" x1="37.7512" y1="50.1878" x2="38.4939" y2="51.3808" gradientUnits="userSpaceOnUse">
<stop stop-color="white"/>
<stop offset="0.507761" stop-color="white" stop-opacity="0.235294"/>
<stop offset="0.834566" stop-color="white" stop-opacity="0.156863"/>
<stop offset="1" stop-color="white" stop-opacity="0.392157"/>
</linearGradient>
<linearGradient id="paint14_linear" x1="21" y1="30" x2="21" y2="44" gradientUnits="userSpaceOnUse">
<stop stop-color="#FF8C82"/>
<stop offset="1" stop-color="#FF8C82" stop-opacity="0.65"/>
</linearGradient>
<linearGradient id="paint15_linear" x1="21" y1="41.0993" x2="21" y2="32.9007" gradientUnits="userSpaceOnUse">
<stop stop-color="#4D4D4D"/>
<stop offset="1" stop-color="#252525"/>
</linearGradient>
<linearGradient id="paint16_linear" x1="21" y1="32" x2="21" y2="42" gradientUnits="userSpaceOnUse">
<stop stop-color="white"/>
<stop offset="1" stop-color="white" stop-opacity="0"/>
</linearGradient>
<linearGradient id="paint17_linear" x1="21" y1="38" x2="21" y2="36" gradientUnits="userSpaceOnUse">
<stop stop-color="white"/>
<stop offset="1" stop-color="white" stop-opacity="0"/>
</linearGradient>
<linearGradient id="paint18_linear" x1="32.5" y1="57" x2="32.5" y2="59" gradientUnits="userSpaceOnUse">
<stop stop-color="#D48E15"/>
<stop offset="1" stop-color="#D48E15" stop-opacity="0.5"/>
</linearGradient>
<linearGradient id="paint19_linear" x1="50" y1="48.75" x2="53" y2="54" gradientUnits="userSpaceOnUse">
<stop stop-color="#AD5F00"/>
<stop offset="1" stop-color="#AD5F00" stop-opacity="0.5"/>
</linearGradient>
<linearGradient id="paint20_linear" x1="48.1861" y1="49.8499" x2="51.1861" y2="55.0999" gradientUnits="userSpaceOnUse">
<stop stop-color="#AD5F00"/>
<stop offset="1" stop-color="#AD5F00" stop-opacity="0.5"/>
</linearGradient>
<linearGradient id="paint21_linear" x1="46.3722" y1="50.9497" x2="49.3722" y2="56.1997" gradientUnits="userSpaceOnUse">
<stop stop-color="#AD5F00"/>
<stop offset="1" stop-color="#AD5F00" stop-opacity="0.5"/>
</linearGradient>
<linearGradient id="paint22_linear" x1="44.5582" y1="52.0496" x2="47.5582" y2="57.2996" gradientUnits="userSpaceOnUse">
<stop stop-color="#AD5F00"/>
<stop offset="1" stop-color="#AD5F00" stop-opacity="0.5"/>
</linearGradient>
<linearGradient id="paint23_linear" x1="42.7444" y1="53.1495" x2="45.7444" y2="58.3995" gradientUnits="userSpaceOnUse">
<stop stop-color="#AD5F00"/>
<stop offset="1" stop-color="#AD5F00" stop-opacity="0.5"/>
</linearGradient>
<linearGradient id="paint24_linear" x1="40.9304" y1="54.2493" x2="43.9304" y2="59.4993" gradientUnits="userSpaceOnUse">
<stop stop-color="#AD5F00"/>
<stop offset="1" stop-color="#AD5F00" stop-opacity="0.5"/>
</linearGradient>
<linearGradient id="paint25_linear" x1="32" y1="6" x2="32" y2="39.8049" gradientUnits="userSpaceOnUse">
<stop stop-color="white"/>
<stop offset="0.911059" stop-color="white" stop-opacity="0.430081"/>
<stop offset="1" stop-color="white" stop-opacity="0"/>
</linearGradient>
<linearGradient id="paint26_linear" x1="16.8436" y1="17.2355" x2="16.8425" y2="18.7968" gradientUnits="userSpaceOnUse">
<stop stop-color="white"/>
<stop offset="0.507761" stop-color="white" stop-opacity="0.235294"/>
<stop offset="0.834566" stop-color="white" stop-opacity="0.156863"/>
<stop offset="1" stop-color="white" stop-opacity="0.392157"/>
</linearGradient>
<linearGradient id="paint27_linear" x1="17" y1="13" x2="17" y2="17" gradientUnits="userSpaceOnUse">
<stop stop-color="#ED5353"/>
<stop offset="1" stop-color="#C6262E"/>
</linearGradient>
<linearGradient id="paint28_linear" x1="16.9428" y1="12.933" x2="16.9428" y2="17.0523" gradientUnits="userSpaceOnUse">
<stop stop-color="white"/>
<stop offset="0.507761" stop-color="white" stop-opacity="0.235294"/>
<stop offset="0.834566" stop-color="white" stop-opacity="0.156863"/>
<stop offset="1" stop-color="white" stop-opacity="0.392157"/>
</linearGradient>
<linearGradient id="paint29_linear" x1="27.5" y1="8" x2="27.5" y2="27" gradientUnits="userSpaceOnUse">
<stop stop-color="white" stop-opacity="0.6"/>
<stop offset="1" stop-color="white" stop-opacity="0"/>
</linearGradient>
<linearGradient id="paint30_linear" x1="41.1184" y1="8.34885" x2="41.1184" y2="26.7674" gradientUnits="userSpaceOnUse">
<stop stop-color="white" stop-opacity="0.6"/>
<stop offset="1" stop-color="white" stop-opacity="0"/>
</linearGradient>
</defs>
</svg>
