<?xml version="1.0" encoding="UTF-8"?>
<svg width="64px" height="64px" viewBox="0 0 64 64" version="1.1" xmlns="http://www.w3.org/2000/svg" xmlns:xlink="http://www.w3.org/1999/xlink">
    <title>64x64/com.github.avojak.replay</title>
    <defs>
        <radialGradient cx="50%" cy="40.1050202%" fx="50%" fy="40.1050202%" r="51.3996832%" gradientTransform="translate(0.500000,0.401050),scale(0.256410,1.000000),rotate(-90.000000),scale(1.000000,3.190320),translate(-0.500000,-0.401050)" id="radialGradient-1">
            <stop stop-color="#181818" stop-opacity="0" offset="0%"></stop>
            <stop stop-color="#181818" stop-opacity="0.49685861" offset="50%"></stop>
            <stop stop-color="#181818" stop-opacity="0" offset="100%"></stop>
        </radialGradient>
        <linearGradient x1="27.9609334%" y1="77.8394389%" x2="23.7843512%" y2="34.1631945%" id="linearGradient-2">
            <stop stop-color="#E7C591" offset="0%"></stop>
            <stop stop-color="#CFA25E" offset="100%"></stop>
        </linearGradient>
        <linearGradient x1="52.0106933%" y1="60.6098179%" x2="65.4116409%" y2="44.7024548%" id="linearGradient-3">
            <stop stop-color="#FFFFFF" stop-opacity="0.462194056" offset="0%"></stop>
            <stop stop-color="#FFFFFF" stop-opacity="0" offset="28.6030376%"></stop>
            <stop stop-color="#FFFFFF" stop-opacity="0" offset="100%"></stop>
        </linearGradient>
        <path d="M54.5547803,21.2221047 L32.827948,10.5170698 L38.1346252,5.86558813 C39.3460836,4.80370396 41.0763291,4.57219373 42.5243395,5.2782358 L59.6138243,13.6109766 C60.6066588,14.0950773 61.019069,15.2923699 60.5349682,16.2852043 C60.4020365,16.5578318 60.2088382,16.7966538 59.9699915,16.9835999 L54.5547803,21.2221047 L54.5547803,21.2221047 Z" id="path-4"></path>
        <linearGradient x1="71.1491752%" y1="77.0833518%" x2="76.7159722%" y2="34.9512441%" id="linearGradient-5">
            <stop stop-color="#E7C591" offset="0%"></stop>
            <stop stop-color="#CFA25E" offset="100%"></stop>
        </linearGradient>
        <linearGradient x1="52.0106933%" y1="60.2456484%" x2="65.4116409%" y2="44.8842868%" id="linearGradient-6">
            <stop stop-color="#FFFFFF" stop-opacity="0.462194056" offset="0%"></stop>
            <stop stop-color="#FFFFFF" stop-opacity="0" offset="28.6030376%"></stop>
            <stop stop-color="#FFFFFF" stop-opacity="0" offset="100%"></stop>
        </linearGradient>
        <path d="M9.11773297,21.100332 L31.0280848,10.776113 L25.8033954,6.03272554 C24.6106539,4.94986023 22.8847124,4.68818832 21.4246004,5.36885158 L4.19229193,13.4020706 C3.19115997,13.8687703 2.75791698,15.0586829 3.22461663,16.0598149 C3.35277008,16.3347208 3.54177095,16.5768782 3.77731859,16.7679643 L9.11773297,21.100332 L9.11773297,21.100332 Z" id="path-7"></path>
        <linearGradient x1="50%" y1="0%" x2="50%" y2="100%" id="linearGradient-8">
            <stop stop-color="#B6802E" offset="0%"></stop>
            <stop stop-color="#804B00" offset="100%"></stop>
        </linearGradient>
        <linearGradient x1="50%" y1="0%" x2="50%" y2="100%" id="linearGradient-9">
            <stop stop-color="#C4C4C4" offset="0%"></stop>
            <stop stop-color="#FFF394" offset="0.01%"></stop>
            <stop stop-color="#F9C440" offset="100%"></stop>
        </linearGradient>
        <linearGradient x1="50%" y1="-2.38095238%" x2="50%" y2="102.380952%" id="linearGradient-10">
            <stop stop-color="#FFFFFF" offset="0%"></stop>
            <stop stop-color="#FFFFFF" stop-opacity="0.302083" offset="99.99%"></stop>
            <stop stop-color="#FFFFFF" stop-opacity="0" offset="100%"></stop>
        </linearGradient>
        <linearGradient x1="50%" y1="0%" x2="50%" y2="100%" id="linearGradient-11">
            <stop stop-color="#ED5353" offset="0%"></stop>
            <stop stop-color="#C6262E" offset="100%"></stop>
        </linearGradient>
        <linearGradient x1="48.57%" y1="-1.67333333%" x2="48.57%" y2="101.306667%" id="linearGradient-12">
            <stop stop-color="#FFFFFF" offset="0%"></stop>
            <stop stop-color="#FFFFFF" stop-opacity="0.235294" offset="50.7761%"></stop>
            <stop stop-color="#FFFFFF" stop-opacity="0.156863" offset="83.4566%"></stop>
            <stop stop-color="#FFFFFF" stop-opacity="0.392157" offset="100%"></stop>
        </linearGradient>
        <linearGradient x1="50%" y1="90.9933333%" x2="50%" y2="9.00666667%" id="linearGradient-13">
            <stop stop-color="#4D4D4D" offset="0%"></stop>
            <stop stop-color="#252525" offset="100%"></stop>
        </linearGradient>
        <linearGradient x1="50%" y1="0%" x2="50%" y2="100%" id="linearGradient-14">
            <stop stop-color="#FFFFFF" offset="0%"></stop>
            <stop stop-color="#FFFFFF" stop-opacity="0" offset="100%"></stop>
        </linearGradient>
        <linearGradient x1="48.57%" y1="-1.675%" x2="48.57%" y2="101.3075%" id="linearGradient-15">
            <stop stop-color="#FFFFFF" offset="0%"></stop>
            <stop stop-color="#FFFFFF" stop-opacity="0.235294" offset="50.7761%"></stop>
            <stop stop-color="#FFFFFF" stop-opacity="0.156863" offset="83.4566%"></stop>
            <stop stop-color="#FFFFFF" stop-opacity="0.392157" offset="100%"></stop>
        </linearGradient>
        <linearGradient x1="50%" y1="87.5%" x2="50%" y2="12.5%" id="linearGradient-16">
            <stop stop-color="#FFFFFF" offset="0%"></stop>
            <stop stop-color="#FFFFFF" stop-opacity="0" offset="100%"></stop>
        </linearGradient>
        <radialGradient cx="50.0002704%" cy="82.0000098%" fx="50.0002704%" fy="82.0000098%" r="119.845587%" gradientTransform="translate(0.500003,0.820000),scale(0.607143,1.000000),rotate(89.999999),translate(-0.500003,-0.820000)" id="radialGradient-17">
            <stop stop-color="#F4F4F4" offset="0%"></stop>
            <stop stop-color="#D0D0D0" offset="100%"></stop>
        </radialGradient>
        <linearGradient x1="49.99998%" y1="-1.35135973%" x2="49.99998%" y2="101.351374%" id="linearGradient-18">
            <stop stop-color="#FFFFFF" offset="0%"></stop>
            <stop stop-color="#FFFFFF" stop-opacity="0.23529412" offset="6.316455%"></stop>
            <stop stop-color="#FFFFFF" stop-opacity="0.15686275" offset="95.056331%"></stop>
            <stop stop-color="#FFFFFF" stop-opacity="0.39215687" offset="100%"></stop>
        </linearGradient>
        <linearGradient x1="6.37499968e-06%" y1="49.999979%" x2="100.000002%" y2="49.999979%" id="linearGradient-19">
            <stop stop-color="#F44336" offset="0%"></stop>
            <stop stop-color="#C6180B" offset="100%"></stop>
        </linearGradient>
        <linearGradient x1="74.630289%" y1="1.74963098%" x2="74.630289%" y2="98.2502786%" id="linearGradient-20">
            <stop stop-color="#E7C591" offset="0%"></stop>
            <stop stop-color="#CFA25E" offset="100%"></stop>
        </linearGradient>
        <linearGradient x1="50%" y1="0%" x2="50%" y2="100%" id="linearGradient-21">
            <stop stop-color="#FFFFFF" stop-opacity="0.353802448" offset="0%"></stop>
            <stop stop-color="#FFFFFF" stop-opacity="0.15" offset="100%"></stop>
        </linearGradient>
        <path d="M53,21 L53,44.1751679 C53,46.1309265 51.8597081,47.907144 50.0814743,48.7213162 L50.0814743,48.7213162 L39.3008491,53.6587398 C34.955162,56.9945969 28.8930812,56.9652984 24.5777303,53.5721107 L24.673,53.645 L13.9185257,48.7213162 C12.1402919,47.907144 11,46.1309265 11,44.1751679 L11,21 L32,31.5540225 L53,21 Z" id="path-22"></path>
        <linearGradient x1="63.6491847%" y1="99.3009382%" x2="63.6491847%" y2="0.660209415%" id="linearGradient-23">
            <stop stop-color="#FFFFFF" offset="0%"></stop>
            <stop stop-color="#FFFFFF" offset="33.12453%"></stop>
            <stop stop-color="#FFFFFF" stop-opacity="0.643" offset="36.582196%"></stop>
            <stop stop-color="#FFFFFF" stop-opacity="0.391" offset="100%"></stop>
        </linearGradient>
        <linearGradient x1="74.630289%" y1="1.74963098%" x2="74.630289%" y2="98.2502786%" id="linearGradient-24">
            <stop stop-color="#000000" stop-opacity="0.05" offset="0%"></stop>
            <stop stop-color="#000000" stop-opacity="0.102928322" offset="100%"></stop>
        </linearGradient>
        <linearGradient x1="26.319141%" y1="11.8311201%" x2="24.7371016%" y2="72.8081444%" id="linearGradient-25">
            <stop stop-color="#E7C591" offset="0%"></stop>
            <stop stop-color="#CFA25E" offset="100%"></stop>
        </linearGradient>
        <linearGradient x1="53.4203919%" y1="34.9023703%" x2="34.9015566%" y2="61.9073724%" id="linearGradient-26">
            <stop stop-color="#FFFFFF" stop-opacity="0.462194056" offset="0%"></stop>
            <stop stop-color="#FFFFFF" stop-opacity="0" offset="28.6030376%"></stop>
            <stop stop-color="#FFFFFF" stop-opacity="0" offset="100%"></stop>
        </linearGradient>
        <path d="M54.952782,21.1627512 L32.8618106,31.7811149 L38.6472288,39.332017 C39.7963614,40.83182 41.8382235,41.3230074 43.5437428,40.5099153 L58.6386992,33.313521 C60.6328167,32.3628421 61.4786909,29.9756129 60.528012,27.9814954 C60.3813562,27.6738743 60.1959893,27.3862561 59.9764157,27.1256298 L54.952782,21.1627512 L54.952782,21.1627512 Z" id="path-27"></path>
        <linearGradient x1="73.680859%" y1="11.8311201%" x2="75.2628984%" y2="72.8081444%" id="linearGradient-28">
            <stop stop-color="#E7C591" offset="0%"></stop>
            <stop stop-color="#CFA25E" offset="100%"></stop>
        </linearGradient>
        <path d="M9.7344881,21.1627512 L31.8254595,31.7811149 L26.0400413,39.332017 C24.8909087,40.83182 22.8490466,41.3230074 21.1435273,40.5099153 L6.04857093,33.313521 C4.05445339,32.3628421 3.20857922,29.9756129 4.1592581,27.9814954 C4.30591388,27.6738743 4.49128077,27.3862561 4.71085443,27.1256298 L9.7344881,21.1627512 L9.7344881,21.1627512 Z" id="path-29"></path>
    </defs>
    <g id="64x64/com.github.avojak.replay" stroke="none" stroke-width="1" fill="none" fill-rule="evenodd">
        <rect id="Base-Shadow-Middle" fill="url(#radialGradient-1)" fill-rule="nonzero" opacity="0.35" x="0.9" y="43.4558851" width="62.4" height="16"></rect>
        <g id="Rectangle" fill-rule="nonzero">
            <use fill="url(#linearGradient-2)" xlink:href="#path-4"></use>
            <path stroke="#9F702A" stroke-width="1" d="M40.1744653,4.41335615 C41.0350846,4.29820361 41.9289691,4.43166569 42.743475,4.82881435 L42.743475,4.82881435 L59.8329598,13.1615551 C60.4534814,13.4641181 60.8926203,13.9895535 61.1009881,14.5944785 C61.309356,15.1994036 61.2869526,15.8838183 60.9843897,16.5043398 C60.8182251,16.8451242 60.5767272,17.1436517 60.2781688,17.3773343 L60.2781688,17.3773343 L54.6155835,21.8094596 L31.935276,10.6346376 L37.8050464,5.48958572 C38.4864918,4.89227587 39.313846,4.5285087 40.1744653,4.41335615 Z"></path>
            <path stroke="url(#linearGradient-3)" stroke-width="1" d="M40.3070854,5.4045231 C40.976456,5.31496001 41.6716995,5.41876385 42.305204,5.72765725 L42.305204,5.72765725 L59.3946889,14.060398 C59.7670018,14.2419358 60.0304852,14.5571971 60.1555058,14.9201521 C60.2805265,15.2831071 60.2670846,15.6937559 60.0855468,16.0660688 C59.985848,16.2705395 59.8409493,16.449656 59.6618143,16.5898656 L59.6618143,16.5898656 L54.493977,20.6347498 L33.72062,10.399502 L38.464204,6.24159054 C38.9942171,5.77701622 39.6377148,5.49408619 40.3070854,5.4045231 Z" stroke-linejoin="square"></path>
        </g>
        <g id="Rectangle" fill-rule="nonzero">
            <use fill="url(#linearGradient-5)" xlink:href="#path-7"></use>
            <path stroke="#9F702A" stroke-width="1" d="M21.2133418,4.91567414 C22.0346547,4.53280105 22.9307323,4.41495973 23.7892109,4.54511462 C24.6476895,4.67526951 25.468569,5.0534206 26.1394861,5.66253234 L26.1394861,5.66253234 L31.918569,10.9092422 L9.04668822,21.6865363 L3.46231664,17.1562603 C3.16788208,16.9174027 2.931631,16.6147059 2.77143919,16.2710735 C2.4797519,15.645366 2.4692967,14.9606646 2.68819018,14.3594682 C2.90708366,13.7582718 3.35532584,13.2405805 3.98103332,12.9488932 L3.98103332,12.9488932 Z"></path>
            <path stroke="url(#linearGradient-6)" stroke-width="1" d="M21.635859,5.82202902 C22.274658,5.52423885 22.9716072,5.43258449 23.6393128,5.53381607 C24.3070183,5.63504765 24.9454802,5.92916516 25.4673046,6.40291874 L25.4673046,6.40291874 L30.1376006,10.6429839 L9.18877772,20.5141278 L4.09232055,16.3796683 C3.91565981,16.2363538 3.77390916,16.0547357 3.67779408,15.8485563 C3.50278171,15.4731318 3.49650858,15.0623109 3.62784467,14.7015931 C3.75918076,14.3408752 4.02812607,14.0302604 4.40355055,13.8552481 L4.40355055,13.8552481 Z" stroke-linejoin="square"></path>
        </g>
        <path d="M27.0343647,12.257107 C30.1894647,10.8229706 33.8105353,10.8229706 36.9656353,12.257107 L54,20 L32,30 L10,20 L27.0343647,12.257107 Z" id="Combined-Shape" stroke-opacity="0.8" stroke="#804B00" fill="url(#linearGradient-8)"></path>
        <g id="com.github.avojak.vee-2" transform="translate(40.773303, 18.575690) rotate(-165.000000) translate(-40.773303, -18.575690) translate(31.960803, 7.513190)">
            <path d="M1.18326291e-13,3 C1.18326291e-13,1.34315 1.34315,-2.1680591e-14 3,-2.1680591e-14 L14.625,-2.1680591e-14 C16.2819,-2.1680591e-14 17.625,1.34315 17.625,3 L17.625,16.125 C17.625,19.4387 14.9387,22.125 11.625,22.125 L3,22.125 C1.34315,22.125 1.18326291e-13,20.7819 1.18326291e-13,19.125 L1.18326291e-13,3 Z" id="Path" fill="url(#linearGradient-9)" fill-rule="nonzero"></path>
            <path d="M0.125,2.625 C0.125,1.24429 1.24429,0.125 2.625,0.125 L15,0.125 C16.3807,0.125 17.5,1.24429 17.5,2.625 L17.5,15.5 C17.5,19.0899 14.5899,22 11,22 L2.625,22 C1.24429,22 0.125,20.8807 0.125,19.5 L0.125,2.625 Z" id="Path" stroke="#AD5F00"></path>
            <path d="M1.125,3.25 C1.125,1.86929 2.24429,0.75 3.625,0.75 L13.625,0.75 C15.0057,0.75 16.125,1.86929 16.125,3.25 L16.125,15.25 C16.125,18.8399 13.2149,21.75 9.625,21.75 L3.625,21.75 C2.24429,21.75 1.125,20.6307 1.125,19.25 L1.125,3.25 Z" id="Path" stroke="url(#linearGradient-10)"></path>
            <path d="M14.625,10.25 C13.5215,10.25 12.625,11.1465 12.625,12.25 C12.625,13.3535 13.5215,14.25 14.625,14.25 C15.7285,14.25 16.625,13.3535 16.625,12.25 C16.625,11.1465 15.7285,10.25 14.625,10.25 L14.625,10.25 Z" id="Path" stroke-opacity="0.16" stroke="#000000"></path>
            <path d="M14.625,9.75 C13.2453,9.75 12.125,10.8703 12.125,12.25 C12.125,13.6297 13.2453,14.75 14.625,14.75 C16.0047,14.75 17.125,13.6297 17.125,12.25 C17.125,10.8703 16.0047,9.75 14.625,9.75 Z" id="Path" stroke-opacity="0.07" stroke="#000000"></path>
            <path d="M16.625,12.25 C16.625,11.1465 15.7285,10.25 14.625,10.25 C13.5215,10.25 12.625,11.1465 12.625,12.25 C12.625,13.3535 13.5215,14.25 14.625,14.25 C15.7285,14.25 16.625,13.3535 16.625,12.25 Z" id="Path" fill="url(#linearGradient-11)" fill-rule="nonzero"></path>
            <path d="M16.625,11.7499 C16.625,12.5784 15.7295,13.25 14.625,13.25 C13.5204,13.25 12.625,12.5784 12.625,11.7499 C12.625,10.9215 13.5204,10.25 14.625,10.25 C15.7295,10.25 16.625,10.9215 16.625,11.7499 Z" id="Path" stroke="url(#linearGradient-12)" opacity="0.5" stroke-linecap="round" stroke-linejoin="round"></path>
            <path d="M14.625,10.25 C13.5215,10.25 12.625,11.1465 12.625,12.25 C12.625,13.3535 13.5215,14.25 14.625,14.25 C15.7285,14.25 16.625,13.3535 16.625,12.25 C16.625,11.1465 15.7285,10.25 14.625,10.25 L14.625,10.25 Z" id="Path" stroke="#7A0000" opacity="0.5"></path>
            <polygon id="Path" stroke="#E7E7E7" stroke-width="2" stroke-linecap="round" stroke-linejoin="round" points="3.53493 10.25 3.53493 12.1591 1.625 12.1591 1.625 14.3409 3.53493 14.3409 3.53493 16.25 5.71507 16.25 5.71507 14.3409 7.625 14.3409 7.625 12.1591 5.71507 12.1591 5.71507 10.25"></polygon>
            <polygon id="Path" fill="url(#linearGradient-13)" fill-rule="nonzero" points="7.625 14.3401 5.71591 14.3401 5.71591 16.25 3.53409 16.25 3.53409 14.3401 1.625 14.3401 1.625 12.1599 3.53409 12.1599 3.53409 10.25 5.71591 10.25 5.71591 12.1599 7.625 12.1599"></polygon>
            <polygon id="Path" stroke="url(#linearGradient-14)" stroke-width="2" opacity="0.2" stroke-linecap="round" points="7.625 14.3401 5.71591 14.3401 5.71591 16.25 3.53409 16.25 3.53409 14.3401 1.625 14.3401 1.625 12.1599 3.53409 12.1599 3.53409 10.25 5.71591 10.25 5.71591 12.1599 7.625 12.1599"></polygon>
            <path d="M10.625,12.25 C9.5215,12.25 8.625,13.1465 8.625,14.25 C8.625,15.3535 9.5215,16.25 10.625,16.25 C11.7285,16.25 12.625,15.3535 12.625,14.25 C12.625,13.1465 11.7285,12.25 10.625,12.25 L10.625,12.25 Z" id="Path" stroke-opacity="0.15" stroke="#000000"></path>
            <path d="M10.625,11.75 C9.2453,11.75 8.125,12.8703 8.125,14.25 C8.125,15.6297 9.2453,16.75 10.625,16.75 C12.0047,16.75 13.125,15.6297 13.125,14.25 C13.125,12.8703 12.0047,11.75 10.625,11.75 Z" id="Path" stroke-opacity="0.07" stroke="#000000"></path>
            <path d="M12.625,14.25 C12.625,13.1465 11.7285,12.25 10.625,12.25 C9.5215,12.25 8.625,13.1465 8.625,14.25 C8.625,15.3535 9.5215,16.25 10.625,16.25 C11.7285,16.25 12.625,15.3535 12.625,14.25 Z" id="Path" fill="url(#linearGradient-11)" fill-rule="nonzero"></path>
            <path d="M12.625,14.2499 C12.625,15.3545 11.9534,16.25 11.125,16.25 C10.2966,16.25 9.625,15.3545 9.625,14.2499 C9.625,13.1454 10.2966,12.25 11.125,12.25 C11.9534,12.25 12.625,13.1454 12.625,14.2499 Z" id="Path" stroke="url(#linearGradient-15)" opacity="0.5" stroke-linecap="round" stroke-linejoin="round"></path>
            <path d="M10.625,12.25 C9.5215,12.25 8.625,13.1465 8.625,14.25 C8.625,15.3535 9.5215,16.25 10.625,16.25 C11.7285,16.25 12.625,15.3535 12.625,14.25 C12.625,13.1465 11.7285,12.25 10.625,12.25 L10.625,12.25 Z" id="Path" stroke="#7A0000" opacity="0.5"></path>
            <path d="M4.875,13.125 C4.875,12.9179 4.70711,12.75 4.5,12.75 C4.29289,12.75 4.125,12.9179 4.125,13.125 C4.125,13.3321 4.29289,13.5 4.5,13.5 C4.70711,13.5 4.875,13.3321 4.875,13.125 Z" id="Path" fill="url(#linearGradient-16)" fill-rule="nonzero" opacity="0.1"></path>
            <rect id="Rectangle" fill="#8CC449" fill-rule="nonzero" x="2.625" y="2.25" width="12" height="6"></rect>
        </g>
        <g id="Group-3" transform="translate(21.600000, 23.455885) rotate(-108.000000) translate(-21.600000, -23.455885) translate(7.100000, 14.455885)">
            <rect id="rect5505" fill="url(#radialGradient-17)" fill-rule="nonzero" transform="translate(14.500000, 9.000000) scale(-1, 1) rotate(-180.000000) translate(-14.500000, -9.000000) " x="0.5" y="0.5" width="28" height="17" rx="1.5"></rect>
            <rect id="rect5505-21" stroke="#000000" stroke-width="0.99999994" opacity="0.4" stroke-linecap="round" stroke-linejoin="round" x="0" y="0" width="29" height="18" rx="2"></rect>
            <rect id="rect4439" fill="#FFFFFF" fill-rule="nonzero" opacity="0.3" x="2.5" y="3.532562" width="24" height="13" rx="1"></rect>
            <rect id="rect6741-2" stroke="url(#linearGradient-18)" stroke-linecap="round" stroke-linejoin="round" x="1" y="1.000002" width="26.999998" height="16" rx="1"></rect>
            <rect id="rect4263" fill="#575757" fill-rule="nonzero" x="2.5" y="2.532562" width="24" height="13" rx="0.99999994"></rect>
            <rect id="rect4265" stroke="#000000" opacity="0.1" stroke-linecap="round" x="3" y="3.032562" width="23" height="12" rx="0.5"></rect>
            <polygon id="path4320" stroke="#C3C3C3" stroke-width="2" fill="#E7E7E7" fill-rule="nonzero" stroke-linecap="round" stroke-linejoin="round" points="6.5 6.532562 6.5 8.532562 4.5 8.532562 4.5 10.532562 6.5 10.532562 6.5 12.532562 8.5 12.532562 8.5 10.532562 10.5 10.532562 10.5 8.532562 8.5 8.532562 8.5 6.532562"></polygon>
            <polygon id="rect4280" fill="#333333" fill-rule="nonzero" points="6.5 6.532562 6.5 8.532562 4.5 8.532562 4.5 10.532562 6.5 10.532562 6.5 12.532562 8.5 12.532562 8.5 10.532562 10.5 10.532562 10.5 8.532562 8.5 8.532562 8.5 6.532562"></polygon>
            <rect id="rect4350" fill="#FF1200" fill-rule="nonzero" opacity="0.5" x="18.5" y="6.532562" width="5" height="1"></rect>
            <line x1="2.5" y1="3.032562" x2="26.5" y2="3.032562" id="path4441" stroke="#000000" opacity="0.2"></line>
            <rect id="rect6597" fill="#E7E7E7" fill-rule="nonzero" x="12.5" y="9.532562" width="5" height="3"></rect>
            <rect id="rect6599" fill="#83847C" fill-rule="nonzero" x="12.5" y="6.532562" width="5" height="2"></rect>
            <rect id="rect6601" fill="#83847C" fill-rule="nonzero" x="12.5" y="3.532562" width="5" height="2"></rect>
            <rect id="rect6605" fill="#83847C" fill-rule="nonzero" x="12.5" y="13.532562" width="5" height="2"></rect>
            <rect id="rect6615" fill="#E7E7E7" fill-rule="nonzero" x="21.5" y="8.532562" width="4" height="4" rx="0.33333334"></rect>
            <rect id="rect6623" fill="#E7E7E7" fill-rule="nonzero" x="18.5" y="8.532562" width="4" height="4" rx="0.33333334"></rect>
            <circle id="circle6617" fill="url(#linearGradient-19)" fill-rule="nonzero" transform="translate(23.500000, 10.532562) scale(-1, 1) rotate(-90.000000) translate(-23.500000, -10.532562) " cx="23.5" cy="10.532562" r="1.3333334"></circle>
            <circle id="circle6625" fill="url(#linearGradient-19)" fill-rule="nonzero" transform="translate(20.500000, 10.532562) scale(-1, 1) rotate(-90.000000) translate(-20.500000, -10.532562) " cx="20.5" cy="10.532562" r="1.3333334"></circle>
        </g>
        <g id="Combined-Shape" fill-rule="nonzero" transform="translate(32.000000, 38.569502) scale(-1, 1) translate(-32.000000, -38.569502) ">
            <use fill="url(#linearGradient-20)" xlink:href="#path-22"></use>
            <path stroke-opacity="0.65" stroke="#804B00" stroke-width="1" d="M53.5,20.1891203 L53.5,44.1751679 C53.5,45.2061153 53.2119478,46.1917072 52.6966655,47.0372229 C52.1776958,47.8887891 51.428209,48.5982402 50.5103794,49.0688647 L50.5103794,49.0688647 L39.5600189,54.0899593 C37.3527175,55.7685533 34.7253814,56.6180671 32.092956,56.6386221 C29.4554038,56.659217 26.8127699,55.8475947 24.5824018,54.2040064 L24.5824018,54.2040064 L13.7103782,49.1759311 C12.7323497,48.7281363 11.9297551,48.0157791 11.3716677,47.1464538 C10.8135803,46.2771285 10.5,45.2508351 10.5,44.1751679 L10.5,44.1751679 L10.5,20.1891203 L32,30.9944291 L53.5,20.1891203 Z"></path>
            <path stroke="url(#linearGradient-21)" stroke-width="1" d="M52.5,21.8108797 L52.5,44.1751679 C52.5,45.0186574 52.2643345,45.8250421 51.8427454,46.5168188 C51.4216575,47.2077729 50.8151107,47.784418 50.0726333,48.1694709 L50.0726333,48.1694709 L39.0406072,53.2280119 C36.9923767,54.8159873 34.5411634,55.6194751 32.0851479,55.6386526 C29.6272308,55.6578449 27.164476,54.8915388 25.0960184,53.3397778 L25.0960184,53.3397778 L14.1266731,48.2667014 C13.3264679,47.9003239 12.6697997,47.3174862 12.2131827,46.60622 C11.7565657,45.8949539 11.5,45.0552593 11.5,44.1751679 L11.5,44.1751679 L11.5,21.8108797 L32,32.1136159 L52.5,21.8108797 Z" stroke-linejoin="square"></path>
        </g>
        <polygon id="Rectangle" fill-opacity="0.500737544" fill="#000000" fill-rule="nonzero" opacity="0.496000744" points="22.6507331 40.9863029 29.9968316 44.5146246 29.9968316 53.5796146 22.6507331 50.1051624"></polygon>
        <path d="M39.9356722,25.8002505 L47.3435026,22.0963353 L48.0298018,36.1712131 L48.0842842,44.3198266 C47.2155198,44.3198266 46.3452804,42.9101372 45.4750419,42.9101372 C44.58566,42.9101372 43.6948061,45.8013927 42.8039523,45.8013927 C42.0883248,45.8013927 41.3712238,45.3076867 40.6541229,45.3076867 C40.1858732,45.3076867 39.717622,47.2829587 39.2493723,47.2829587 L39.1948877,39.8751283 L39.9356722,25.8002505 Z" id="path87-0-9-7-6-4" fill="url(#linearGradient-23)" fill-rule="nonzero" opacity="0.3"></path>
        <path d="M16.8479341,25.8002505 L24.2557645,22.0963353 L24.9420637,36.1712131 L24.9965461,44.3198266 C24.1277816,44.3198266 23.2575423,42.9101372 22.3873037,42.9101372 C21.4979218,42.9101372 20.607068,45.8013927 19.7162142,45.8013927 C19.0005866,45.8013927 18.2834857,45.3076867 17.5663847,45.3076867 C17.098135,45.3076867 16.6298838,47.2829587 16.1616341,47.2829587 L16.1071496,39.8751283 L16.8479341,25.8002505 Z" id="path87-0-9-7-6-4" fill="url(#linearGradient-23)" fill-rule="nonzero" opacity="0.3" transform="translate(20.551848, 34.689647) scale(-1, 1) translate(-20.551848, -34.689647) "></path>
        <path d="M10.0574214,21.0468927 L31.0462742,31.5074094 L31.0462742,56.7279425 L14.7500555,49.3288235 C11.892449,48.0313586 10.0574214,45.1828668 10.0574214,42.0445026 L10.0574214,21.0468927 L10.0574214,21.0468927 Z" id="Rectangle" fill="url(#linearGradient-24)" fill-rule="nonzero"></path>
        <g id="Rectangle" fill-rule="nonzero">
            <use fill="url(#linearGradient-25)" xlink:href="#path-27"></use>
            <path stroke="#9F702A" stroke-width="1" d="M55.0854663,20.5442135 L60.3587998,26.8034771 C60.6058202,27.0966816 60.8143579,27.4202521 60.9793457,27.7663258 C61.5141025,28.888017 61.5435789,30.1202707 61.1589432,31.2057909 C60.7743075,32.2913111 59.9755599,33.2300978 58.8538687,33.7648546 L58.8538687,33.7648546 L43.7589124,40.961249 C42.7995578,41.4186133 41.7456067,41.509149 40.7698976,41.2744338 C39.7941885,41.0397186 38.8967212,40.4797526 38.2503341,39.6361134 L38.2503341,39.6361134 L32.0908124,31.596946 L55.0854663,20.5442135 Z"></path>
            <path stroke="url(#linearGradient-26)" stroke-width="1" d="M54.8200977,21.781289 L59.5940316,27.4477826 C59.7861585,27.6758306 59.9483546,27.9274965 60.0766784,28.1966649 C60.4926004,29.0690914 60.5155264,30.027511 60.2163653,30.8718044 C59.9172043,31.7160979 59.2959561,32.4462653 58.4235296,32.8621873 L58.4235296,32.8621873 L43.3285733,40.0585817 C42.5824086,40.4143095 41.7626689,40.4847261 41.003784,40.3021699 C40.2448991,40.1196136 39.5468691,39.6840845 39.0441235,39.0279206 L39.0441235,39.0279206 L33.6328088,31.9652838 L54.8200977,21.781289 Z" stroke-linejoin="square"></path>
        </g>
        <line x1="31.5709956" y1="33.1154831" x2="31.5709956" y2="56.2032212" id="Line-5" stroke-opacity="0.15" stroke="#FFFFFF" opacity="0.564011347"></line>
        <line x1="32.6204382" y1="33.1154831" x2="32.6204382" y2="56.2032212" id="Line-5" stroke-opacity="0.15" stroke="#FFFFFF" opacity="0.564011347"></line>
        <g id="Rectangle" fill-rule="nonzero">
            <use fill="url(#linearGradient-28)" xlink:href="#path-29"></use>
            <path stroke="#9F702A" stroke-width="1" d="M9.60180381,20.5442135 L32.5964577,31.596946 L26.436936,39.6361134 C25.7905489,40.4797526 24.8930816,41.0397186 23.9173725,41.2744338 C22.9416634,41.509149 21.8877124,41.4186133 20.9283577,40.961249 L20.9283577,40.961249 L5.83340138,33.7648546 C4.71171026,33.2300978 3.9129626,32.2913111 3.52832692,31.2057909 C3.14369125,30.1202707 3.17316758,28.888017 3.70792445,27.7663258 C3.87291221,27.4202521 4.08144995,27.0966816 4.32847031,26.8034771 L4.32847031,26.8034771 L9.60180381,20.5442135 Z"></path>
            <path stroke="url(#linearGradient-26)" stroke-width="1" d="M9.86717239,21.781289 L31.0544613,31.9652838 L25.6431466,39.0279206 C25.1404011,39.6840845 24.442371,40.1196136 23.6834861,40.3021699 C22.9246012,40.4847261 22.1048615,40.4143095 21.3586968,40.0585817 L21.3586968,40.0585817 L6.26374048,32.8621873 C5.39131405,32.4462653 4.77006587,31.7160979 4.47090479,30.8718044 C4.17174371,30.027511 4.19466974,29.0690914 4.61059175,28.1966649 C4.73891556,27.9274965 4.90111159,27.6758306 5.09323854,27.4477826 L5.09323854,27.4477826 L9.86717239,21.781289 Z" stroke-linejoin="square"></path>
        </g>
        <g id="Group-2" opacity="0.504975818" transform="translate(21.600000, 32.455885) rotate(-26.000000) translate(-21.600000, -32.455885) translate(17.100000, 29.455885)" fill="#000000">
            <rect id="Rectangle" x="8" y="3" width="1" height="2.5"></rect>
            <rect id="Rectangle" x="6.5" y="1.5" width="1" height="3.5"></rect>
            <rect id="Rectangle" x="5" y="5" width="1.5" height="1"></rect>
            <rect id="Rectangle" x="2.5" y="5" width="1.5" height="1"></rect>
            <rect id="Rectangle" x="2" y="1.5" width="1" height="3.5"></rect>
            <rect id="Rectangle" x="2.5" y="3" width="1" height="1.5"></rect>
            <rect id="Rectangle-Copy-7" x="1" y="2" width="1" height="1.5"></rect>
            <rect id="Rectangle-Copy-9" x="7" y="2" width="1" height="1.5"></rect>
            <rect id="Rectangle-Copy-8" x="0" y="3" width="1" height="2.5"></rect>
            <rect id="Rectangle-Copy-6" x="5" y="3" width="1.5" height="1.5"></rect>
            <rect id="Rectangle" x="2.5" y="1" width="1" height="1"></rect>
            <rect id="Rectangle-Copy-4" x="5.5" y="1" width="1" height="1"></rect>
            <rect id="Rectangle-Copy-5" x="6.5" y="0" width="1" height="1"></rect>
            <rect id="Rectangle" x="1.5" y="0" width="1" height="1"></rect>
            <rect id="Rectangle" x="3.5" y="1.5" width="2" height="3"></rect>
        </g>
    </g>
</svg>