<svg width="16" height="16" viewBox="0 0 16 16" fill="none" xmlns="http://www.w3.org/2000/svg">
<g clip-path="url(#clip0)">
<path d="M2.25 1.5C2.25 0.947715 2.69772 0.5 3.25 0.5H13C13.5523 0.5 14 0.947715 14 1.5V12.25C14 13.9069 12.6569 15.25 11 15.25H3.25C2.69772 15.25 2.25 14.8023 2.25 14.25V1.5Z" fill="url(#paint0_linear)"/>
<path d="M2.5 2.25C2.5 1.42157 3.17157 0.75 4 0.75H12.25C13.0784 0.75 13.75 1.42157 13.75 2.25V11.5C13.75 13.433 12.183 15 10.25 15H4C3.17157 15 2.5 14.3284 2.5 13.5V2.25Z" stroke="#AD5F00"/>
<path d="M3.16669 1.66666C3.16669 1.39051 3.39055 1.16666 3.66669 1.16666H12.3334C12.6095 1.16666 12.8334 1.39051 12.8334 1.66666V12.3333C12.8334 13.714 11.7141 14.8333 10.3334 14.8333H3.66669C3.39054 14.8333 3.16669 14.6095 3.16669 14.3333V1.66666Z" stroke="url(#paint1_linear)"/>
<path d="M7.33331 10.0601H6.06059V11.3333H4.60604V10.0601H3.33331V8.60663H4.60604V7.33334H6.06059V8.60663H7.33331V10.0601Z" fill="url(#paint2_linear)"/>
<path opacity="0.1" d="M5.5 9.25C5.5 9.11193 5.38807 9 5.25 9C5.11193 9 5 9.11193 5 9.25C5 9.38807 5.11193 9.5 5.25 9.5C5.38807 9.5 5.5 9.38807 5.5 9.25Z" fill="url(#paint3_linear)"/>
<circle cx="9.5" cy="10.5" r="1.5" fill="#D93C40"/>
<circle cx="12.5" cy="9.5" r="1.5" fill="#D93C40"/>
<rect x="4" y="2" width="8" height="4" fill="#8CC449"/>
</g>
<defs>
<linearGradient id="paint0_linear" x1="8.125" y1="0.5" x2="8.125" y2="15.25" gradientUnits="userSpaceOnUse">
<stop stop-color="#C4C4C4"/>
<stop offset="0.0001" stop-color="#FFF394"/>
<stop offset="1" stop-color="#F9C440"/>
</linearGradient>
<linearGradient id="paint1_linear" x1="8.00002" y1="0.666656" x2="8.00002" y2="15.3333" gradientUnits="userSpaceOnUse">
<stop stop-color="white"/>
<stop offset="0.9999" stop-color="white" stop-opacity="0.302083"/>
<stop offset="1" stop-color="white" stop-opacity="0"/>
</linearGradient>
<linearGradient id="paint2_linear" x1="5.33331" y1="10.9731" x2="5.33331" y2="7.69363" gradientUnits="userSpaceOnUse">
<stop stop-color="#4D4D4D"/>
<stop offset="1" stop-color="#252525"/>
</linearGradient>
<linearGradient id="paint3_linear" x1="5.25" y1="9.5" x2="5.25" y2="9" gradientUnits="userSpaceOnUse">
<stop stop-color="white"/>
<stop offset="1" stop-color="white" stop-opacity="0"/>
</linearGradient>
<clipPath id="clip0">
<rect width="16" height="16" fill="white"/>
</clipPath>
</defs>
</svg>
